<?xml version="1.0" standalone="no"?>
<!DOCTYPE svg PUBLIC "-//W3C//DTD SVG 1.1//EN" "http://www.w3.org/Graphics/SVG/1.1/DTD/svg11.dtd" >
<svg xmlns="http://www.w3.org/2000/svg" xmlns:xlink="http://www.w3.org/1999/xlink" version="1.1">
<metadata>
Created by FontForge 20160405 at Wed Sep 13 18:45:59 2017
 By Apache
 Copyright \(c\)2013 Talbot Type. All Rights Reserved. Vietnamese by Viet Linh
</metadata>
<defs>
<font id="VLKalekoRound-Book" horiz-adv-x="715" >
  <font-face 
    font-family="VL Kaleko 105 Round"
    font-weight="400"
    font-stretch="normal"
    units-per-em="1000"
    panose-1="0 0 0 0 0 0 0 0 0 0"
    ascent="803"
    descent="-197"
    x-height="553"
    cap-height="724"
    bbox="-49.0315 -196 1296 1072.07"
    underline-thickness="28"
    underline-position="-100"
    unicode-range="U+0020-FB02"
  />
<missing-glyph horiz-adv-x="191" 
 />
    <glyph glyph-name=".notdef" horiz-adv-x="191" 
 />
    <glyph glyph-name="NULL" horiz-adv-x="0" 
 />
    <glyph glyph-name="CR" horiz-adv-x="333" 
 />
    <glyph glyph-name="space" unicode=" " horiz-adv-x="270" 
 />
    <glyph glyph-name="exclam" unicode="!" horiz-adv-x="188" 
d="M70 187l-10 537c-2 44 70 44 68 0l-10 -537c0 -31 -48 -31 -48 0zM43 42c0 29 23 52 52 52c27 0 50 -23 50 -52c0 -27 -23 -50 -50 -50c-29 0 -52 23 -52 50z" />
    <glyph glyph-name="quotedbl" unicode="&#x22;" horiz-adv-x="231" 
d="M50 569v166c0 30 46 30 46 0v-166c0 -30 -46 -30 -46 0zM135 569v166c0 30 46 30 46 0v-166c0 -30 -46 -30 -46 0z" />
    <glyph glyph-name="numbersign" unicode="#" horiz-adv-x="620" 
d="M298 20l54 236h-129l-53 -236c-3 -15 -18 -28 -33 -28s-24 13 -21 28l52 236h-129c-35 0 -35 54 0 54h139l28 129h-167c-34 0 -33 55 0 55h179l48 236c3 15 19 28 34 28s25 -13 22 -28l-48 -236h128l48 236c3 15 19 28 34 28s25 -13 22 -28l-48 -236h123
c35 0 35 -55 0 -55h-137l-28 -129h165c35 0 35 -54 0 -54h-175l-52 -236c-3 -15 -19 -28 -34 -28s-25 13 -22 28zM362 310l28 129h-129l-27 -129h128z" />
    <glyph glyph-name="dollar" unicode="$" horiz-adv-x="591" 
d="M261 -44v41c-79 8 -148 35 -207 80c-9 6 -14 15 -14 28c0 19 15 34 34 34c7 0 14 -2 20 -6c59 -46 128 -69 207 -69c52 0 95 13 130 40s53 62 53 103c0 64 -53 115 -130 136l-129 32c-49 13 -90 36 -121 69c-31 34 -47 73 -47 116c0 51 19 94 58 130s87 57 146 63v35
c0 19 16 35 35 35s35 -16 35 -35v-35c63 -5 123 -26 180 -63c11 -7 16 -17 16 -29c0 -19 -15 -34 -34 -34c-9 0 -15 2 -20 6c-55 35 -115 53 -182 53c-47 0 -87 -12 -119 -36c-31 -23 -47 -53 -47 -90c0 -56 48 -100 117 -119l125 -32c109 -28 184 -106 184 -202
c0 -55 -21 -103 -63 -142c-41 -39 -94 -61 -157 -68v-41c0 -19 -16 -35 -35 -35s-35 16 -35 35z" />
    <glyph glyph-name="percent" unicode="%" horiz-adv-x="599" 
d="M150 -8c-20 0 -32 19 -23 40l251 605c-29 -5 -37 -5 -64 0v-7c0 -37 -14 -69 -41 -96s-59 -40 -96 -40s-70 13 -97 40s-40 59 -40 96c0 38 13 70 40 97s60 40 97 40c43 0 78 -16 105 -49c15 -20 36 -30 63 -30c33 0 64 21 76 50l2 5c3 10 11 15 24 15c20 0 32 -18 25 -37
l-297 -713c-5 -11 -13 -16 -25 -16zM325 22c-27 27 -40 59 -40 97s13 70 40 96c27 27 59 40 97 40s70 -13 97 -40c27 -26 40 -58 40 -96s-13 -70 -40 -97c-27 -26 -59 -39 -97 -39s-70 13 -97 39zM364 177c-31 -32 -31 -84 0 -116c32 -32 84 -32 115 0c32 32 32 84 0 116
c-31 32 -83 32 -115 0zM234 572c32 32 32 84 0 116c-31 33 -83 33 -115 0c-31 -32 -31 -84 0 -116c32 -32 84 -32 115 0z" />
    <glyph glyph-name="ampersand" unicode="&#x26;" horiz-adv-x="665" 
d="M603 494h8c44 2 44 -70 0 -68h-8c-29 0 -51 -23 -51 -51v-256c0 -28 22 -51 51 -51h8c44 2 44 -70 0 -68h-8c-52 0 -100 36 -113 81c-43 -59 -115 -98 -194 -98c-71 0 -131 25 -181 74c-50 50 -75 110 -75 181c0 99 57 187 144 228c-39 35 -59 78 -59 130
c0 47 17 87 50 120c34 34 74 51 121 51s87 -17 120 -51c34 -33 51 -73 51 -120s-17 -87 -51 -121c-33 -33 -73 -50 -120 -50c-52 0 -96 -18 -132 -55c-36 -36 -54 -80 -54 -132s18 -97 54 -134c37 -37 81 -55 132 -55c52 0 96 18 133 55s55 82 55 134v137c0 33 12 61 35 84
s51 35 84 35zM195 596c0 -56 45 -105 101 -105s101 48 101 105s-45 105 -101 105s-101 -48 -101 -105z" />
    <glyph glyph-name="quotesingle" unicode="'" horiz-adv-x="146" 
d="M50 569v166c0 30 46 30 46 0v-166c0 -30 -46 -30 -46 0z" />
    <glyph glyph-name="parenleft" unicode="(" horiz-adv-x="280" 
d="M148 289c0 -172 32 -319 97 -441c11 -21 -1 -44 -25 -44c-13 0 -22 6 -27 18c-75 139 -113 295 -113 467c0 173 38 329 113 468c5 12 14 18 27 18c24 0 36 -23 25 -44c-65 -122 -97 -269 -97 -442z" />
    <glyph glyph-name="parenright" unicode=")" horiz-adv-x="280" 
d="M139 289c0 173 -32 320 -97 442c-11 21 1 44 25 44c13 0 22 -6 27 -18c75 -139 113 -295 113 -468c0 -172 -38 -328 -113 -467c-5 -12 -14 -18 -27 -18c-24 0 -36 23 -25 44c65 122 97 269 97 441z" />
    <glyph glyph-name="asterisk" unicode="*" horiz-adv-x="358" 
d="M217 648l55 -24c15 -8 18 -20 10 -35c-7 -12 -22 -16 -35 -8l-48 34l7 -58c0 -34 -50 -34 -50 0l6 59l-47 -35c-13 -8 -28 -4 -35 9c-7 12 -3 27 10 34l54 24l-54 24c-13 7 -17 22 -10 34c7 13 22 17 35 9l47 -35l-6 59c0 34 50 34 50 0l-7 -59l48 35c15 9 27 6 36 -9
c7 -15 4 -26 -11 -34z" />
    <glyph glyph-name="plus" unicode="+" horiz-adv-x="679" 
d="M76 323h230v230c-2 44 70 44 68 0v-230h229c44 2 44 -70 0 -67h-229v-230c2 -44 -70 -44 -68 0v230h-230c-44 -3 -44 69 0 67z" />
    <glyph glyph-name="comma" unicode="," horiz-adv-x="222" 
d="M61 -70c17 0 34 21 34 42v22c-2 -1 -5 -2 -9 -2c-29 0 -51 23 -51 52c0 28 22 51 51 51c28 0 51 -23 51 -51v-67c0 -47 -32 -86 -76 -87c-13 0 -20 7 -20 20s7 20 20 20z" />
    <glyph glyph-name="hyphen" unicode="-" horiz-adv-x="465" 
d="M97 323h272c44 2 44 -70 0 -67h-272c-43 0 -43 67 0 67z" />
    <glyph glyph-name="period" unicode="." horiz-adv-x="222" 
d="M87 -8c-29 0 -52 23 -52 51s23 51 52 51c27 0 50 -23 50 -51s-23 -51 -50 -51z" />
    <glyph glyph-name="slash" unicode="/" horiz-adv-x="456" 
d="M86 -8c-20 0 -32 19 -23 40l296 711c3 10 11 15 24 15c20 0 32 -18 25 -37l-297 -713c-5 -11 -13 -16 -25 -16z" />
    <glyph glyph-name="zero" unicode="0" horiz-adv-x="598" 
d="M546 519v-289c0 -68 -24 -126 -72 -175c-48 -48 -106 -72 -174 -72c-69 0 -127 24 -176 72c-48 49 -72 107 -72 175v289c0 69 24 127 72 175c49 49 107 73 176 73c68 0 126 -24 174 -73c48 -48 72 -106 72 -175zM478 230v289c0 50 -18 93 -53 128c-35 36 -76 54 -125 54
s-92 -18 -127 -54c-35 -35 -53 -78 -53 -128v-289c0 -49 18 -92 53 -128c35 -35 78 -53 127 -53s90 18 125 53c35 36 53 79 53 128z" />
    <glyph glyph-name="one" unicode="1" horiz-adv-x="336" 
d="M208 27v634l-112 -64c-5 -3 -11 -5 -18 -5c-19 0 -34 14 -34 33c0 15 7 25 20 32l157 94c7 5 14 7 21 7c19 0 34 -15 34 -34v-697c0 -19 -16 -35 -35 -35s-33 16 -33 35z" />
    <glyph glyph-name="two" unicode="2" horiz-adv-x="583" 
d="M59 34c0 11 4 19 12 26l337 322c43 42 65 90 65 143c0 51 -17 93 -52 126c-34 33 -77 50 -129 50c-51 0 -95 -18 -130 -54c-35 -35 -53 -79 -54 -132c2 -44 -70 -44 -68 0c0 71 24 131 73 179c49 49 108 73 179 73s131 -23 179 -69c48 -45 72 -103 72 -173
c0 -73 -30 -139 -91 -196l-273 -261h307c44 2 44 -70 0 -68h-393c-19 0 -34 15 -34 34z" />
    <glyph glyph-name="three" unicode="3" horiz-adv-x="589" 
d="M45 196c-5 25 13 43 33 43c17 0 32 -15 35 -32c7 -45 28 -82 63 -113c35 -30 76 -45 122 -45c51 0 95 18 131 55s54 81 54 133c0 53 -18 97 -54 133c-36 37 -80 55 -131 55c-45 0 -89 -18 -132 -54c-21 -21 -58 -6 -58 24c0 13 5 22 14 28l272 259h-266
c-44 -2 -44 70 0 68h349c29 0 46 -36 22 -60l-207 -201c71 1 132 -23 183 -73c52 -49 78 -109 78 -179s-25 -130 -75 -180c-49 -49 -109 -74 -180 -74c-63 0 -119 20 -167 61c-47 41 -76 91 -86 152z" />
    <glyph glyph-name="four" unicode="4" horiz-adv-x="613" 
d="M395 26v145h-343c-19 0 -34 15 -34 34c0 8 3 16 9 23l373 515c7 10 16 15 29 15c19 0 34 -15 34 -34v-487h86c44 3 44 -69 0 -66h-86v-145c2 -44 -70 -44 -68 0zM395 625l-281 -388h281v388z" />
    <glyph glyph-name="five" unicode="5" horiz-adv-x="589" 
d="M94 388c0 4 19 114 58 330c3 21 14 32 33 32h257c44 2 44 -70 0 -68h-228l-43 -225c37 24 78 36 123 36c71 0 131 -25 180 -75c50 -50 75 -110 75 -181c0 -70 -25 -130 -75 -180c-49 -49 -109 -74 -180 -74s-131 25 -181 74c-50 50 -75 110 -75 180c-2 44 70 44 68 0
c0 -51 18 -96 55 -133s82 -55 133 -55s95 18 131 55s54 81 54 133c0 53 -18 97 -54 134s-80 56 -131 56c-53 0 -97 -21 -133 -62c-7 -9 -17 -14 -30 -14c-21 0 -37 16 -37 37z" />
    <glyph glyph-name="six" unicode="6" horiz-adv-x="591" 
d="M302 493c70 0 129 -25 177 -75c48 -49 72 -110 72 -181c0 -70 -25 -130 -75 -180c-49 -49 -109 -74 -180 -74s-131 25 -181 74c-50 50 -75 110 -75 180c0 51 15 100 45 145l240 361c7 10 16 15 28 15c19 0 34 -15 34 -34c0 -7 -2 -13 -6 -20l-152 -227c18 11 42 16 73 16
zM110 237c0 -51 18 -96 54 -133c37 -37 81 -55 132 -55s95 18 131 55s54 81 54 133c0 53 -18 97 -54 134s-80 56 -131 56s-95 -19 -132 -56c-36 -37 -54 -81 -54 -134z" />
    <glyph glyph-name="seven" unicode="7" horiz-adv-x="539" 
d="M161 27c0 5 1 10 4 17l266 638h-375c-44 -2 -44 70 0 68h427c19 0 34 -15 34 -34c0 -5 -1 -10 -3 -15l-286 -688c-7 -14 -17 -21 -32 -21c-19 0 -35 16 -35 35z" />
    <glyph glyph-name="eight" unicode="8" horiz-adv-x="602" 
d="M466 563c0 42 -16 75 -48 100c-31 25 -70 38 -117 38s-86 -13 -118 -38c-31 -25 -47 -58 -47 -100c0 -43 16 -77 47 -102s71 -37 118 -37s87 12 118 37s47 59 47 102zM110 204c0 -47 18 -85 54 -113c37 -28 82 -42 137 -42s100 14 136 42c37 28 55 66 55 113
s-18 84 -55 112c-36 28 -81 42 -136 42s-100 -14 -137 -42c-36 -28 -54 -65 -54 -112zM536 563c0 -73 -34 -129 -101 -169c85 -43 127 -106 127 -190c0 -65 -25 -119 -76 -160c-50 -41 -112 -61 -185 -61s-135 20 -186 61c-50 41 -75 95 -75 160c0 84 42 147 127 190
c-67 40 -101 96 -101 169c0 60 22 109 67 147s101 57 168 57s122 -19 167 -57s68 -87 68 -147z" />
    <glyph glyph-name="nine" unicode="9" horiz-adv-x="591" 
d="M289 257c-70 0 -129 25 -177 74c-48 50 -72 111 -72 182c0 70 25 130 74 179c50 50 110 75 181 75s131 -25 181 -75c50 -49 75 -109 75 -179c0 -51 -15 -100 -45 -145l-240 -361c-7 -10 -16 -15 -28 -15c-19 0 -34 15 -34 34c0 7 2 13 6 20l152 227
c-18 -11 -42 -16 -73 -16zM481 513c0 51 -18 95 -55 132c-36 37 -80 56 -131 56s-95 -18 -131 -55s-54 -81 -54 -133c0 -53 18 -98 54 -135s80 -55 131 -55s95 18 131 55c37 37 55 82 55 135z" />
    <glyph glyph-name="colon" unicode=":" horiz-adv-x="222" 
d="M122 79c20 -20 20 -52 0 -72s-52 -20 -72 0s-20 52 0 72s52 20 72 0zM35 535c0 29 23 52 51 52s51 -23 51 -52c0 -28 -23 -51 -51 -51s-51 23 -51 51z" />
    <glyph glyph-name="semicolon" unicode=";" horiz-adv-x="222" 
d="M35 535c0 29 23 52 51 52s51 -23 51 -52c0 -28 -23 -51 -51 -51s-51 23 -51 51zM61 -70c17 0 34 21 34 42v22c-2 -1 -5 -2 -9 -2c-29 0 -51 23 -51 52c0 28 22 51 51 51c28 0 51 -23 51 -51v-67c0 -47 -32 -86 -76 -87c-13 0 -20 7 -20 20s7 20 20 20z" />
    <glyph glyph-name="less" unicode="&#x3c;" horiz-adv-x="431" 
d="M43 321l292 209c18 18 56 5 56 -25c0 -11 -5 -20 -14 -27l-270 -189l270 -189c9 -7 14 -16 14 -27c0 -30 -38 -43 -56 -25l-292 209c-25 20 -25 44 0 64z" />
    <glyph glyph-name="equal" unicode="=" horiz-adv-x="679" 
d="M76 408h527c19 -1 34 -17 34 -34c0 -19 -16 -33 -35 -33h-526c-44 -3 -44 69 0 67zM75 239h528c44 2 44 -70 0 -67h-528c-43 0 -43 67 0 67z" />
    <glyph glyph-name="greater" unicode="&#x3e;" horiz-adv-x="431" 
d="M388 257l-292 -209c-6 -6 -13 -9 -22 -9c-19 0 -34 17 -34 34c0 11 5 20 14 27l270 189l-270 189c-9 7 -14 16 -14 27c0 17 15 34 34 34c9 0 16 -3 22 -9l292 -209c25 -20 25 -44 0 -64z" />
    <glyph glyph-name="question" unicode="?" horiz-adv-x="587" 
d="M263 205v86c0 19 15 34 34 34c51 0 95 18 130 54c36 37 54 81 54 134c0 52 -18 96 -54 133s-80 55 -131 55c-46 0 -87 -15 -122 -46c-35 -30 -56 -67 -63 -112c-3 -17 -18 -32 -35 -32c-20 0 -38 18 -33 43c10 61 39 111 86 152c48 41 104 61 167 61
c71 0 131 -25 180 -75c50 -49 75 -109 75 -179c0 -65 -21 -121 -63 -169s-94 -76 -157 -85v-54c1 -44 -71 -44 -68 0zM346 43c0 -28 -23 -51 -50 -51c-29 0 -52 23 -52 51c0 29 23 52 52 52c27 0 50 -23 50 -52z" />
    <glyph glyph-name="at" unicode="@" horiz-adv-x="874" 
d="M594 231c-45 -51 -99 -77 -162 -77c-61 0 -114 21 -157 64s-65 96 -65 157s22 113 65 156s96 65 157 65s113 -22 156 -65s65 -95 65 -156v-102c0 -29 23 -53 52 -53c27 0 51 24 51 53v102c0 89 -32 166 -95 230s-140 96 -229 96s-165 -32 -228 -96
c-63 -63 -94 -140 -94 -230s31 -167 94 -231c63 -63 139 -95 228 -95c48 0 97 12 147 36c21 11 48 -6 48 -31c0 -16 -8 -27 -24 -33c-55 -25 -112 -38 -171 -38c-109 0 -201 38 -278 115c-76 77 -114 169 -114 277s38 200 114 277c77 77 169 115 278 115
c108 0 200 -38 277 -115s115 -169 115 -277v-102c0 -33 -12 -61 -35 -84s-51 -35 -84 -35c-49 0 -94 33 -111 77zM586 375c0 42 -15 78 -46 109c-30 31 -66 46 -108 46s-78 -15 -108 -46c-29 -31 -44 -67 -44 -109c0 -43 15 -79 44 -110c30 -30 66 -45 108 -45
c43 0 79 15 109 45c30 31 45 67 45 110z" />
    <glyph glyph-name="A" unicode="A" horiz-adv-x="690" 
d="M604 12l-63 157h-392l-63 -157c-6 -13 -17 -20 -32 -20c-20 0 -34 14 -34 33c0 5 1 10 3 14l291 699c5 13 16 20 31 20s26 -7 31 -20l291 -699c2 -4 3 -9 3 -14c0 -19 -14 -33 -34 -33c-15 0 -26 7 -32 20zM345 637l-167 -401h334z" />
    <glyph glyph-name="B" unicode="B" horiz-adv-x="663" 
d="M60 34v682c0 19 15 34 34 34h299c54 0 100 -19 138 -58c39 -38 58 -84 58 -138c0 -69 -40 -126 -91 -155c69 -28 125 -101 125 -186c0 -59 -21 -110 -63 -151c-41 -41 -91 -62 -150 -62h-316c-19 0 -34 15 -34 34zM410 358h-282v-290h282c39 0 73 14 101 42
c28 29 42 63 42 103s-14 74 -42 102c-28 29 -62 43 -101 43zM128 682v-256h265c35 0 64 12 89 37s37 56 37 91s-12 65 -37 90s-54 38 -89 38h-265z" />
    <glyph glyph-name="C" unicode="C" horiz-adv-x="747" 
d="M704 650c13 -13 14 -35 1 -48c-15 -13 -35 -13 -48 0c-67 65 -144 98 -230 98c-90 0 -167 -32 -230 -96c-63 -63 -94 -140 -93 -230c-1 -89 30 -166 93 -230c63 -63 140 -95 230 -95c87 0 163 32 230 95c29 31 81 -19 47 -48c-79 -76 -171 -114 -278 -113
c-108 -1 -200 37 -277 114s-115 169 -115 277c0 109 38 201 115 278s169 115 277 114c107 1 200 -38 278 -116z" />
    <glyph glyph-name="D" unicode="D" horiz-adv-x="726" 
d="M60 34v682c0 19 15 34 34 34h222c103 0 192 -37 265 -110s110 -162 110 -265s-37 -192 -110 -265s-162 -110 -265 -110h-222c-19 0 -34 15 -34 34zM621 375c0 85 -30 158 -89 217c-59 60 -131 90 -216 90h-188v-614h188c85 0 157 30 216 90s89 132 89 217z" />
    <glyph glyph-name="E" unicode="E" horiz-adv-x="641" 
d="M60 34v682c0 19 15 34 34 34h478c44 2 44 -70 0 -68h-444v-274h375c44 2 44 -70 0 -68h-375v-272h444c19 -1 34 -17 34 -34c0 -19 -15 -34 -34 -34h-478c-19 0 -34 15 -34 34z" />
    <glyph glyph-name="F" unicode="F" horiz-adv-x="603" 
d="M60 26v690c0 19 15 34 34 34h460c44 2 44 -70 0 -68h-426v-274h357c44 2 44 -70 0 -68h-357v-314c2 -44 -70 -44 -68 0z" />
    <glyph glyph-name="G" unicode="G" horiz-adv-x="781" 
d="M427 408h264c19 0 34 -15 34 -34v-241c0 -8 -3 -16 -9 -23c-78 -85 -174 -128 -289 -127c-108 -1 -200 37 -277 114s-115 169 -115 278c0 108 38 200 115 277s169 115 277 115c107 0 200 -39 279 -116c13 -15 13 -35 0 -48c-13 -15 -35 -15 -48 0c-69 65 -145 98 -230 98
c-90 0 -167 -32 -230 -96c-63 -63 -94 -140 -93 -230c-1 -90 30 -167 93 -231c63 -63 140 -95 230 -95c86 0 162 33 229 98v193h-230c-19 0 -35 15 -35 34s16 34 35 34z" />
    <glyph glyph-name="H" unicode="H" horiz-adv-x="699" 
d="M60 26v698c-2 44 70 44 68 0v-316h443v316c-2 44 70 44 68 0v-698c2 -44 -70 -44 -68 0v314h-443v-314c2 -44 -70 -44 -68 0z" />
    <glyph glyph-name="I" unicode="I" horiz-adv-x="188" 
d="M60 26v698c-2 44 70 44 68 0v-698c2 -44 -70 -44 -68 0z" />
    <glyph glyph-name="J" unicode="J" horiz-adv-x="435" 
d="M308 188l-1 537c0 19 16 34 33 34c20 -1 35 -15 35 -34v-536c0 -60 -20 -109 -60 -148c-39 -38 -87 -57 -144 -58c-56 0 -104 20 -145 61c-15 13 -14 36 -1 49c13 15 35 13 52 -4c28 -27 59 -40 94 -40c77 0 136 56 137 139z" />
    <glyph glyph-name="K" unicode="K" horiz-adv-x="615" 
d="M183 400l348 348c13 13 33 13 48 0c13 -15 14 -36 1 -49l-324 -324l323 -325c15 -13 15 -35 0 -48c-13 -13 -33 -13 -48 0l-348 350c-15 13 -15 35 0 48zM60 26v698c-2 44 70 44 68 0v-698c2 -44 -70 -44 -68 0z" />
    <glyph glyph-name="L" unicode="L" horiz-adv-x="586" 
d="M60 34v690c-2 44 70 44 68 0v-656h409c44 2 44 -70 0 -68h-443c-19 0 -34 15 -34 34z" />
    <glyph glyph-name="M" unicode="M" horiz-adv-x="870" 
d="M810 724v-698c2 -44 -70 -44 -68 0v616l-283 -284c-13 -13 -35 -13 -48 0l-283 284v-616c2 -44 -70 -44 -68 0v698c0 30 37 45 58 24l317 -316l316 316c21 21 59 6 59 -24z" />
    <glyph glyph-name="N" unicode="N" horiz-adv-x="700" 
d="M640 724v-698c0 -19 -16 -34 -35 -34c-12 0 -21 5 -28 15l-449 615v-596c2 -44 -70 -44 -68 0v698c0 19 15 34 34 34c12 0 21 -4 28 -13l450 -617v596c-2 44 70 44 68 0z" />
    <glyph glyph-name="O" unicode="O" horiz-adv-x="854" 
d="M655 144c63 64 94 141 94 231s-31 167 -94 230c-63 64 -139 96 -228 96s-165 -32 -228 -96c-63 -63 -94 -140 -94 -230s31 -167 94 -231c63 -63 139 -95 228 -95s165 32 228 95zM427 -17c-109 0 -201 38 -278 115c-76 77 -114 169 -114 277s38 200 114 277
c77 77 169 115 278 115c108 0 200 -38 277 -115s115 -169 115 -277s-38 -200 -115 -277s-169 -115 -277 -115z" />
    <glyph glyph-name="P" unicode="P" horiz-adv-x="658" 
d="M60 26v690c0 19 16 34 35 34h290c65 0 121 -23 168 -70s70 -103 70 -169c0 -65 -23 -121 -70 -168s-103 -70 -168 -70h-257v-247c2 -44 -70 -44 -68 0zM385 682h-257v-341h257c47 0 86 16 119 49s49 74 49 121s-16 88 -49 121s-72 50 -119 50z" />
    <glyph glyph-name="Q" unicode="Q" horiz-adv-x="855" 
d="M820 374c0 -95 -30 -179 -91 -252l99 -99c33 -29 -19 -78 -45 -47l-102 98c-75 -61 -159 -92 -253 -91c-108 -1 -200 37 -277 114c-76 77 -114 169 -114 277c-1 108 37 200 114 277s169 116 277 116c109 0 201 -39 278 -116s115 -169 114 -277zM750 374
c0 90 -31 167 -94 231c-63 65 -139 97 -228 96c-89 1 -165 -31 -228 -96c-62 -64 -93 -141 -93 -231c0 -116 59 -218 152 -275c-9 21 -13 42 -14 65c0 50 18 93 54 128s79 53 129 53c53 0 95 -17 128 -52l124 -122c47 57 70 125 70 203zM428 49c76 0 144 24 203 73l-123 123
c-21 23 -48 34 -80 34c-31 -1 -58 -12 -80 -35c-22 -22 -33 -49 -33 -80s11 -58 33 -81s49 -34 80 -34z" />
    <glyph glyph-name="R" unicode="R" horiz-adv-x="663" 
d="M60 26v690c0 19 15 34 34 34h291c65 0 121 -23 168 -70s70 -103 70 -169c0 -101 -63 -189 -156 -224l120 -242c4 -6 6 -12 6 -19c0 -19 -15 -34 -34 -34c-17 0 -28 8 -33 23l-129 258h-269v-247c2 -44 -70 -44 -68 0zM385 682h-257v-341h257c47 0 86 16 119 49
s49 74 49 121s-16 88 -49 121s-72 50 -119 50z" />
    <glyph glyph-name="S" unicode="S" horiz-adv-x="591" 
d="M40 93c0 19 15 34 34 34c7 0 14 -2 20 -6c61 -48 130 -72 207 -72c51 0 93 15 128 44c35 30 52 66 52 108c0 69 -50 121 -127 142l-129 32c-100 25 -169 99 -169 191c0 56 23 103 68 142s101 59 167 59c79 0 153 -22 220 -65c11 -7 16 -17 16 -29c0 -19 -15 -34 -34 -34
c-9 0 -15 2 -20 6c-58 37 -119 56 -182 56c-47 0 -86 -13 -118 -40c-31 -26 -47 -58 -47 -95c0 -61 47 -106 116 -125l125 -32c109 -28 184 -107 184 -208c0 -61 -24 -112 -73 -155c-48 -42 -107 -63 -177 -63c-93 0 -175 27 -247 82c-9 6 -14 15 -14 28z" />
    <glyph glyph-name="T" unicode="T" horiz-adv-x="598" 
d="M266 26v656h-222c-44 -2 -44 70 0 68h510c44 2 44 -70 0 -68h-220v-656c2 -44 -70 -44 -68 0z" />
    <glyph glyph-name="U" unicode="U" horiz-adv-x="699" 
d="M571 273v451c-2 44 70 44 68 0v-451c0 -80 -28 -148 -85 -205s-125 -85 -204 -85c-80 0 -148 28 -205 85s-85 125 -85 205v451c-2 44 70 44 68 0v-451c0 -61 22 -114 65 -158s96 -66 157 -66s113 22 156 66s65 97 65 158z" />
    <glyph glyph-name="V" unicode="V" horiz-adv-x="680" 
d="M81 738l259 -625l259 625c6 13 17 20 32 20c20 0 34 -14 34 -33c0 -5 -1 -10 -3 -14l-291 -699c-5 -13 -16 -20 -31 -20s-26 7 -31 20l-291 699c-2 4 -3 9 -3 14c0 19 14 33 34 33c15 0 26 -7 32 -20z" />
    <glyph glyph-name="W" unicode="W" horiz-adv-x="953" 
d="M233 16l-213 697c-5 21 9 45 32 45c18 0 29 -8 34 -24l181 -589l181 589c5 17 16 25 33 24c17 0 29 -8 34 -24l180 -589l180 589c6 16 17 24 34 24c23 0 37 -22 32 -45l-213 -697c-5 -16 -17 -24 -34 -24s-27 8 -32 24l-181 594l-181 -594c-5 -16 -17 -24 -34 -24
s-28 8 -33 24z" />
    <glyph glyph-name="X" unicode="X" horiz-adv-x="634" 
d="M39 46l235 329l-235 329c-16 21 0 54 28 54c12 0 21 -5 28 -14l231 -325l231 325c7 9 16 14 28 14c27 0 44 -31 28 -54l-235 -329l235 -329c16 -21 0 -54 -28 -54c-12 0 -21 5 -28 14l-231 325l-231 -325c-7 -9 -16 -14 -28 -14c-27 0 -44 31 -28 54z" />
    <glyph glyph-name="Y" unicode="Y" horiz-adv-x="626" 
d="M614 704l-258 -361v-317c2 -44 -70 -44 -68 0v317l-258 361c-16 21 0 54 28 54c11 0 21 -5 28 -14l236 -332l236 332c7 9 17 14 28 14c28 0 44 -33 28 -54z" />
    <glyph glyph-name="Z" unicode="Z" horiz-adv-x="641" 
d="M585 0h-529c-19 0 -34 15 -34 34c0 8 3 15 8 22l485 626h-459c-44 -2 -44 70 0 68h529c19 0 34 -15 34 -34c0 -8 -3 -15 -8 -22l-485 -626h459c44 2 44 -70 0 -68z" />
    <glyph glyph-name="bracketleft" unicode="[" horiz-adv-x="281" 
d="M225 -171h-111c-19 0 -34 14 -34 33v854c0 19 15 34 34 34h111c44 3 44 -69 0 -66h-77v-789h77c44 3 44 -69 0 -66z" />
    <glyph glyph-name="backslash" unicode="\" horiz-adv-x="456" 
d="M382 -8c-12 0 -20 5 -25 16l-297 713c-7 19 5 37 25 37c13 0 21 -5 24 -15l296 -711c9 -21 -3 -40 -23 -40z" />
    <glyph glyph-name="bracketright" unicode="]" horiz-adv-x="281" 
d="M167 -171h-111c-44 -3 -44 69 0 66h77v789h-77c-44 -3 -44 69 0 66h111c19 0 34 -15 34 -34v-854c0 -19 -15 -33 -34 -33z" />
    <glyph glyph-name="asciicircum" unicode="^" horiz-adv-x="539" 
d="M85 358c-19 12 -23 27 -13 46l183 336c13 24 44 24 59 0l183 -336c10 -19 6 -34 -13 -46c-20 -9 -35 -5 -45 14l-155 291l-154 -291c-10 -19 -25 -23 -45 -14z" />
    <glyph glyph-name="underscore" unicode="_" horiz-adv-x="519" 
d="M0 -116v25h579v-25h-579z" />
    <glyph glyph-name="grave" unicode="`" horiz-adv-x="351" 
d="M269 684c-5 -11 -13 -14 -24 -11l-133 34c-17 5 -27 25 -20 42c5 17 25 26 42 19l124 -59c11 -7 15 -15 11 -25z" />
    <glyph glyph-name="a" unicode="a" 
d="M587 26v91c-59 -89 -139 -134 -239 -134c-85 0 -157 30 -218 90c-60 60 -90 132 -90 217s30 157 90 216c61 60 133 90 218 90c101 0 180 -45 239 -134v91c-2 44 70 44 68 0v-527c2 -44 -70 -44 -68 0zM587 290c0 66 -24 122 -71 169s-103 71 -168 71
c-66 0 -122 -24 -169 -71c-46 -47 -69 -103 -69 -169c0 -67 23 -124 69 -171c47 -47 103 -70 169 -70c65 0 121 23 168 70s71 104 71 171z" />
    <glyph glyph-name="b" unicode="b" 
d="M60 26v698c-2 44 70 44 68 0v-262c59 89 138 134 239 134c85 0 157 -30 217 -90c61 -59 91 -131 91 -216s-30 -157 -91 -217c-60 -60 -132 -90 -217 -90c-100 0 -180 45 -239 134v-91c2 -44 -70 -44 -68 0zM128 290c0 -67 23 -124 70 -171s104 -70 169 -70
c66 0 122 23 168 70c47 47 70 104 70 171c0 66 -23 122 -70 169c-46 47 -102 71 -168 71c-65 0 -122 -24 -169 -71s-70 -103 -70 -169z" />
    <glyph glyph-name="c" unicode="c" horiz-adv-x="609" 
d="M517 122c28 31 80 -20 48 -48c-63 -61 -135 -91 -218 -91c-85 1 -158 31 -218 90c-59 60 -89 132 -89 217s30 157 89 216c60 60 133 90 218 91c83 0 156 -30 218 -91c31 -29 -17 -81 -49 -47c-48 47 -104 71 -169 72c-65 -1 -121 -25 -168 -72c-46 -47 -69 -103 -69 -168
c0 -67 23 -124 69 -171c47 -47 103 -71 168 -71s121 24 170 73z" />
    <glyph glyph-name="d" unicode="d" 
d="M655 724v-698c2 -44 -70 -44 -68 0v91c-59 -89 -139 -134 -238 -134c-85 0 -157 30 -218 90c-60 60 -90 132 -90 217s30 157 90 216c61 60 133 90 218 90c100 0 179 -45 238 -134v262c-2 44 70 44 68 0zM587 290c0 66 -23 122 -70 169s-103 71 -168 71
c-66 0 -122 -24 -169 -71c-46 -47 -69 -103 -69 -169c0 -67 23 -124 69 -171c47 -47 103 -70 169 -70c65 0 121 23 168 70s70 104 70 171z" />
    <glyph glyph-name="e" unicode="e" horiz-adv-x="691" 
d="M651 290c0 -19 -16 -34 -35 -34h-504c9 -59 35 -108 78 -148c44 -39 96 -59 155 -59c79 0 149 39 192 102c7 11 16 17 29 17c28 0 44 -33 29 -54c-24 -37 -59 -69 -104 -94s-94 -37 -146 -37c-84 0 -156 30 -216 90c-59 60 -89 132 -89 217s30 157 89 216
c60 60 132 90 216 90c83 0 155 -30 214 -89c60 -59 91 -132 92 -217zM112 324h467c-9 58 -35 107 -79 146c-44 40 -96 60 -155 60s-111 -20 -155 -59c-43 -39 -69 -88 -78 -147z" />
    <glyph glyph-name="f" unicode="f" horiz-adv-x="334" 
d="M46 579h42v56c0 83 57 132 136 132c33 0 62 -10 88 -31c8 -7 12 -15 12 -26c0 -19 -15 -34 -34 -34c-8 0 -15 3 -22 8c-13 11 -28 17 -44 17c-45 0 -68 -22 -68 -66v-56h93c44 2 44 -70 0 -68h-93v-485c2 -44 -70 -44 -68 0v485h-42c-44 -2 -44 70 0 68z" />
    <glyph glyph-name="g" unicode="g" horiz-adv-x="713" 
d="M107 -103c0 19 15 34 34 34c6 0 11 -1 16 -4c61 -33 124 -49 190 -49c67 0 122 19 166 58s68 98 72 178c-49 -75 -137 -131 -238 -131c-85 0 -157 30 -217 89c-60 60 -90 133 -90 218s30 157 90 216c60 60 132 90 217 90c100 0 179 -45 238 -134v91c-3 44 69 44 68 0
v-434c0 -96 -29 -171 -87 -225c-58 -55 -131 -82 -219 -82c-75 0 -149 18 -222 55c-12 6 -18 16 -18 30zM585 290c0 66 -23 122 -70 169c-46 47 -102 71 -168 71c-65 0 -121 -24 -168 -71c-46 -47 -69 -103 -69 -169c0 -67 23 -124 69 -171c47 -47 103 -70 168 -70
c66 0 122 23 168 70c47 47 70 104 70 171z" />
    <glyph glyph-name="h" unicode="h" horiz-adv-x="614" 
d="M60 26v698c-2 44 70 44 68 0v-248c13 31 38 58 74 83c37 25 77 37 121 37c71 0 128 -21 169 -64s62 -98 62 -167v-339c2 -44 -70 -44 -68 0v339c0 99 -66 165 -163 165c-49 0 -93 -17 -133 -52c-40 -34 -61 -74 -62 -121v-331c2 -44 -70 -44 -68 0z" />
    <glyph glyph-name="i" unicode="i" horiz-adv-x="190" 
d="M61 26v527c-2 44 70 44 68 0v-527c2 -44 -70 -44 -68 0zM63 690c-17 17 -17 47 0 64s47 17 64 0s17 -47 0 -64s-47 -17 -64 0z" />
    <glyph glyph-name="j" unicode="j" horiz-adv-x="262" 
d="M66 -122c40 0 68 23 68 71v604c0 17 15 34 34 34c19 -1 34 -17 34 -34v-604c0 -84 -59 -137 -136 -137c-37 0 -69 13 -95 39c-15 13 -15 33 0 48c13 13 34 13 49 -2c18 -13 33 -19 46 -19zM136 690c-17 17 -17 47 0 64s47 17 64 0s17 -47 0 -64s-47 -17 -64 0z" />
    <glyph glyph-name="k" unicode="k" horiz-adv-x="553" 
d="M184 316l287 263c15 13 36 13 49 -2c12 -13 11 -36 -2 -49l-259 -237l259 -239c13 -13 14 -36 2 -49c-13 -15 -34 -15 -49 -2l-289 267c-12 11 -11 35 2 48zM60 26v698c-2 44 70 44 68 0v-698c2 -44 -70 -44 -68 0z" />
    <glyph glyph-name="l" unicode="l" horiz-adv-x="188" 
d="M60 26v698c-2 44 70 44 68 0v-698c2 -44 -70 -44 -68 0z" />
    <glyph glyph-name="m" unicode="m" horiz-adv-x="870" 
d="M60 26v527c-2 44 70 44 68 0v-58c7 23 23 46 50 68s59 33 96 33c72 0 129 -32 170 -95c39 57 103 95 172 95c59 0 106 -18 141 -54s53 -83 53 -140v-376c2 -44 -70 -44 -68 0v376c0 76 -51 128 -126 128c-39 0 -73 -14 -103 -41c-29 -27 -44 -60 -44 -97v-366
c2 -44 -70 -44 -68 0v366c0 39 -12 71 -36 98c-23 27 -54 40 -91 40s-71 -13 -101 -40c-29 -26 -44 -57 -45 -93v-371c2 -44 -70 -44 -68 0z" />
    <glyph glyph-name="n" unicode="n" horiz-adv-x="614" 
d="M486 26v339c0 99 -66 165 -163 165c-49 0 -93 -17 -133 -52c-40 -34 -61 -74 -62 -121v-331c2 -44 -70 -44 -68 0v527c-2 44 70 44 68 0v-86c9 30 33 59 70 87s79 42 125 42c71 0 128 -21 169 -64s62 -98 62 -167v-339c2 -44 -70 -44 -68 0z" />
    <glyph glyph-name="o" unicode="o" horiz-adv-x="695" 
d="M347 49c66 0 122 23 168 70c47 47 70 104 70 171c0 66 -23 122 -70 169c-46 47 -102 71 -168 71c-65 0 -121 -24 -168 -71c-46 -47 -69 -103 -69 -169c0 -67 23 -124 69 -171c47 -47 103 -70 168 -70zM347 -17c-85 0 -157 30 -217 90s-90 132 -90 217s30 157 90 216
c60 60 132 90 217 90s158 -30 218 -90c60 -59 90 -131 90 -216s-30 -157 -90 -217s-133 -90 -218 -90z" />
    <glyph glyph-name="p" unicode="p" 
d="M60 -144v697c-2 44 70 44 68 0v-91c59 89 138 134 239 134c85 0 157 -30 217 -90c61 -59 91 -131 91 -216s-30 -157 -91 -217c-60 -60 -132 -90 -217 -90c-100 0 -180 45 -239 134v-261c0 -19 -15 -35 -34 -35s-34 16 -34 35zM128 290c0 -67 23 -124 70 -171
s104 -70 169 -70c66 0 122 23 168 70c47 47 70 104 70 171c0 66 -23 122 -70 169c-46 47 -102 71 -168 71c-65 0 -122 -24 -169 -71s-70 -103 -70 -169z" />
    <glyph glyph-name="q" unicode="q" 
d="M655 553v-697c0 -19 -15 -35 -34 -35s-34 16 -34 35v261c-59 -89 -139 -134 -239 -134c-85 0 -157 30 -218 90c-60 60 -90 132 -90 217s30 157 90 216c61 60 133 90 218 90c101 0 180 -45 239 -134v91c-2 44 70 44 68 0zM587 290c0 66 -24 122 -71 169s-103 71 -168 71
c-66 0 -122 -24 -169 -71c-46 -47 -69 -103 -69 -169c0 -67 23 -124 69 -171c47 -47 103 -70 169 -70c65 0 121 23 168 70s71 104 71 171z" />
    <glyph glyph-name="r" unicode="r" horiz-adv-x="374" 
d="M60 26v527c1 19 15 34 34 34c20 0 34 -14 34 -33v-54c25 55 84 96 156 96c17 0 35 -3 55 -8c15 -3 27 -16 27 -33s-16 -33 -33 -33c-5 0 -26 6 -49 6c-43 0 -80 -15 -111 -45c-30 -29 -45 -65 -45 -108v-349c3 -44 -69 -44 -68 0z" />
    <glyph glyph-name="s" unicode="s" horiz-adv-x="547" 
d="M422 490c-57 27 -109 41 -154 41c-87 0 -147 -39 -147 -87c0 -54 37 -86 110 -95l113 -18c96 -13 163 -69 162 -173c-1 -107 -92 -175 -236 -175c-77 0 -149 20 -214 60c-11 7 -16 17 -16 30c0 28 29 44 52 31c64 -37 123 -55 178 -55c103 0 166 44 166 113
c0 57 -39 92 -117 104l-111 18c-89 13 -157 59 -157 158c0 48 21 86 63 113c43 28 94 42 154 42c67 0 129 -16 186 -47c14 -7 21 -17 21 -31c0 -27 -29 -42 -53 -29z" />
    <glyph glyph-name="t" unicode="t" horiz-adv-x="312" 
d="M54 579h42v104c0 19 15 35 34 35s34 -16 34 -35v-104h93c44 2 44 -70 0 -68h-93v-375c0 -45 28 -68 68 -68h25c19 0 35 -15 35 -34s-16 -34 -35 -34h-25c-77 0 -136 53 -136 136v375h-42c-44 -2 -44 70 0 68z" />
    <glyph glyph-name="u" unicode="u" horiz-adv-x="614" 
d="M128 553v-339c0 -99 66 -165 163 -165c49 0 93 17 133 51c40 35 61 75 62 122v331c-2 44 70 44 68 0v-527c2 -44 -70 -44 -68 0v86c-9 -30 -33 -59 -70 -87s-79 -42 -125 -42c-71 0 -128 21 -169 64s-62 98 -62 167v339c-2 44 70 44 68 0z" />
    <glyph glyph-name="v" unicode="v" horiz-adv-x="584" 
d="M573 539l-246 -528c-15 -25 -47 -25 -62 0l-246 528c-22 39 45 70 62 29l215 -468l215 468c17 41 84 10 62 -29z" />
    <glyph glyph-name="w" unicode="w" horiz-adv-x="803" 
d="M794 540l-177 -525c-3 -13 -17 -23 -33 -23c-17 0 -28 8 -33 23l-143 425l-143 -425c-6 -15 -17 -23 -34 -23s-28 8 -34 23l-177 525c-8 23 10 47 34 47c17 0 28 -8 34 -25l143 -428l143 428c6 17 17 25 34 25s28 -8 34 -25l142 -428l143 428c6 17 17 25 34 25
c24 0 41 -24 33 -47z" />
    <glyph glyph-name="x" unicode="x" horiz-adv-x="544" 
d="M525 529l-199 -239l199 -241c19 -23 5 -57 -26 -57c-11 0 -20 4 -27 13l-192 230l-191 -230c-7 -9 -16 -13 -27 -13c-32 0 -46 35 -26 58l199 240l-199 239c-9 11 -11 24 -5 37c6 14 16 21 31 21c12 0 21 -5 27 -14l191 -229l191 229c9 9 19 14 28 14c32 0 46 -35 26 -58
z" />
    <glyph glyph-name="y" unicode="y" horiz-adv-x="584" 
d="M187 -131l72 155l-240 515c-22 39 45 70 62 29l215 -468l215 468c17 41 84 10 62 -29l-324 -699c-17 -41 -84 -10 -62 29z" />
    <glyph glyph-name="z" unicode="z" horiz-adv-x="526" 
d="M502 545c0 -8 -3 -15 -8 -22l-363 -455h336c19 0 35 -15 35 -34s-16 -34 -35 -34h-408c-19 0 -35 15 -35 34c0 8 3 15 8 22l363 455h-336c-19 0 -35 15 -35 34s16 34 35 34h408c19 0 35 -15 35 -34z" />
    <glyph glyph-name="braceleft" unicode="{" horiz-adv-x="332" 
d="M97 323c29 0 52 23 52 52v255c0 33 11 62 34 85s52 35 85 35h8c44 3 44 -69 0 -66h-8c-28 0 -51 -25 -51 -54v-255c0 -37 -17 -65 -51 -85c34 -21 51 -50 51 -86v-254c0 -29 23 -54 51 -54h8c44 3 44 -69 0 -67h-8c-33 0 -62 12 -85 36c-23 23 -34 52 -34 85v254
c0 29 -23 52 -52 52c-43 0 -43 67 0 67z" />
    <glyph glyph-name="bar" unicode="|" horiz-adv-x="296" 
d="M120 -151v881c0 36 56 36 56 0v-881c0 -36 -56 -36 -56 0z" />
    <glyph glyph-name="braceright" unicode="}" horiz-adv-x="332" 
d="M235 256c-29 0 -52 -23 -52 -52v-254c0 -33 -12 -62 -35 -85c-23 -24 -51 -36 -84 -36h-8c-44 -2 -44 70 0 67h8c28 0 51 25 51 54v254c0 36 17 65 51 86c-34 20 -51 48 -51 85v255c0 29 -23 54 -51 54h-8c-44 -3 -44 69 0 66h8c33 0 61 -12 84 -35s35 -52 35 -85v-255
c0 -29 23 -52 52 -52c43 0 43 -67 0 -67z" />
    <glyph glyph-name="asciitilde" unicode="~" horiz-adv-x="469" 
d="M60 252c0 60 48 108 108 108c43 0 74 -19 94 -56c9 -15 23 -23 40 -23c25 0 45 20 45 47c0 41 62 41 62 0c-1 -61 -50 -108 -107 -108c-42 0 -73 18 -94 55c-10 16 -23 24 -40 24c-25 0 -46 -19 -47 -47c0 -41 -61 -42 -61 0z" />
    <glyph glyph-name="uni00A0" unicode="&#xa0;" horiz-adv-x="500" 
 />
    <glyph glyph-name="exclamdown" unicode="&#xa1;" horiz-adv-x="188" 
d="M60 26l10 537c0 31 48 31 48 0l10 -537c2 -44 -70 -44 -68 0zM43 708c0 27 23 50 52 50c27 0 50 -23 50 -50c0 -29 -23 -52 -50 -52c-29 0 -52 23 -52 52z" />
    <glyph glyph-name="cent" unicode="&#xa2;" horiz-adv-x="609" 
d="M296 -60v47c-73 12 -134 46 -183 103s-73 124 -73 200c0 75 24 141 73 198s110 92 183 105v46c-3 44 69 44 67 0v-43c78 -4 145 -34 202 -90c31 -29 -17 -81 -49 -47c-48 47 -104 71 -169 72c-65 -1 -121 -25 -168 -72c-46 -47 -69 -103 -69 -168c0 -67 23 -124 69 -171
c47 -47 103 -71 168 -71s121 24 170 73c28 31 80 -20 48 -48c-57 -56 -124 -86 -202 -90v-44c2 -44 -70 -44 -67 0z" />
    <glyph glyph-name="sterling" unicode="&#xa3;" horiz-adv-x="604" 
d="M66 413h55v106c0 69 24 128 72 176c47 47 103 71 169 72s123 -21 172 -66c10 -7 15 -16 15 -28c0 -19 -15 -34 -34 -34c-8 0 -15 3 -22 8c-35 35 -78 52 -127 52s-90 -17 -125 -52s-52 -78 -52 -128v-106h234c44 2 44 -70 0 -68h-234v-192c0 -11 0 -18 -1 -23
c4 0 16 1 23 1c47 0 87 -17 120 -50c19 -19 43 -29 72 -29s53 10 72 29l40 39c7 6 15 9 23 9c19 0 34 -16 34 -35c0 -7 -3 -14 -8 -21c-5 -6 -18 -20 -41 -41c-33 -33 -73 -49 -120 -49c-46 0 -86 16 -120 49c-19 21 -43 31 -72 31s-53 -10 -72 -31l-32 -31
c-7 -6 -15 -9 -23 -9c-19 0 -34 15 -34 34c0 11 4 19 12 26l29 29c20 21 30 46 30 73v191h-55c-44 -2 -44 70 0 68z" />
    <glyph glyph-name="currency" unicode="&#xa4;" horiz-adv-x="709" 
d="M354 -17c-71 0 -134 22 -191 66l-48 -48c-13 -13 -34 -14 -49 1c-13 13 -13 35 0 48l48 48c-45 55 -67 119 -67 192c0 72 22 135 66 190l-47 48c-13 15 -12 36 1 49c13 15 35 15 48 0l47 -48c57 45 121 67 192 67s135 -22 192 -67l48 48c13 15 35 15 48 0
c13 -13 14 -34 1 -49l-48 -48c45 -55 67 -119 67 -190c0 -72 -23 -136 -68 -192l49 -48c13 -13 13 -35 0 -48c-15 -15 -36 -14 -49 -1l-49 48c-56 -44 -120 -66 -191 -66zM354 52c67 0 123 23 170 69s70 102 70 169c0 66 -23 122 -70 168c-47 47 -103 70 -170 70
c-65 0 -121 -23 -168 -70c-47 -46 -70 -102 -70 -168s23 -122 69 -169c47 -46 103 -69 169 -69z" />
    <glyph glyph-name="yen" unicode="&#xa5;" horiz-adv-x="617" 
d="M93 375h172l-50 69h-122c-44 -2 -44 70 0 68h74l-137 192c-16 21 0 54 28 54c11 0 21 -5 28 -14l231 -325l231 325c7 9 17 14 28 14c27 0 44 -31 28 -54l-138 -192h76c44 2 44 -70 0 -68h-124l-49 -69h173c44 2 44 -70 0 -68h-191v-281c2 -44 -70 -44 -68 0v281h-190
c-44 -2 -44 70 0 68z" />
    <glyph glyph-name="brokenbar" unicode="&#xa6;" horiz-adv-x="189" 
d="M60 366v239c-1 44 71 44 69 0v-239c0 -43 -69 -43 -69 0zM60 -25v239c-1 44 71 44 69 0v-239c0 -43 -69 -43 -69 0z" />
    <glyph glyph-name="section" unicode="&#xa7;" horiz-adv-x="525" 
d="M262 470c128 0 213 -71 213 -180c0 -61 -30 -111 -89 -148c59 -35 89 -84 89 -147c0 -55 -20 -99 -59 -132s-90 -50 -153 -50c-49 0 -93 13 -132 39c-38 26 -63 59 -75 99c-5 19 9 41 33 41c15 0 26 -7 31 -21c21 -55 74 -92 143 -92c89 0 142 43 142 116
c0 71 -61 115 -142 115c-128 0 -213 71 -213 180c0 61 30 111 89 148c-59 35 -89 84 -89 147c0 55 19 99 58 132s91 50 154 50c49 0 93 -13 131 -39c39 -26 64 -59 76 -99c5 -19 -9 -41 -33 -41c-15 0 -26 7 -31 21c-21 55 -74 92 -143 92c-89 0 -142 -43 -142 -116
c0 -71 61 -115 142 -115zM263 176c81 0 142 43 142 114c0 72 -52 114 -143 114c-81 0 -142 -43 -142 -114c0 -72 52 -114 143 -114z" />
    <glyph glyph-name="dieresis" unicode="&#xa8;" horiz-adv-x="316" 
d="M104 723c3 -58 -91 -58 -89 0c0 24 21 44 45 44s44 -20 44 -44zM301 723c0 -25 -19 -45 -43 -45c-25 0 -45 20 -45 45c0 24 20 44 45 44c24 0 43 -20 43 -44z" />
    <glyph glyph-name="copyright" unicode="&#xa9;" horiz-adv-x="693" 
d="M346 560c-75 0 -138 -26 -191 -79s-79 -116 -79 -191s26 -139 79 -192s116 -79 191 -79s139 26 192 79s79 117 79 192s-26 138 -79 191s-117 79 -192 79zM653 290c0 -85 -30 -158 -90 -218c-59 -59 -132 -89 -217 -89s-157 30 -217 90c-59 60 -89 132 -89 217
s30 157 89 216c60 60 132 90 217 90s157 -30 217 -90c60 -59 90 -131 90 -216zM455 182c8 8 22 8 30 0c9 -8 9 -23 1 -30c-41 -39 -87 -58 -140 -58c-54 0 -100 19 -139 57c-38 38 -57 84 -57 139s19 101 57 139c39 38 85 57 139 57c53 0 100 -19 140 -58c8 -8 8 -22 0 -30
c-8 -9 -23 -8 -32 0c-29 29 -65 44 -108 45c-42 -1 -78 -16 -107 -46c-29 -29 -44 -65 -44 -106c0 -43 15 -79 44 -109s65 -45 107 -45c43 0 79 15 109 45z" />
    <glyph glyph-name="ordfeminine" unicode="&#xaa;" horiz-adv-x="397" 
d="M313 482v45c-30 -45 -70 -67 -119 -67c-43 0 -79 15 -109 45s-45 66 -45 109c0 42 15 78 45 108s66 45 109 45c50 0 90 -22 119 -67v45c0 9 8 17 17 17c11 0 17 -6 17 -17v-263c0 -11 -6 -17 -17 -17c-9 0 -17 8 -17 17zM313 614c0 33 -12 61 -35 84
c-23 24 -51 36 -84 36s-61 -12 -84 -35s-35 -52 -35 -85s12 -62 35 -86c23 -23 51 -35 84 -35s61 12 84 35c23 24 35 53 35 86z" />
    <glyph glyph-name="guillemotleft" unicode="&#xab;" horiz-adv-x="431" 
d="M32 290c0 10 4 19 12 28c9 9 32 31 70 64c23 20 41 36 56 49c11 11 24 13 38 6s21 -18 21 -33c0 -8 -5 -18 -15 -29l-99 -85l99 -86c10 -9 15 -18 15 -28c0 -15 -7 -25 -21 -32s-27 -5 -38 5c-79 70 -122 108 -127 114c-7 9 -11 18 -11 27zM202 290c0 10 4 19 12 28
c9 9 32 31 70 64c19 15 32 28 56 49c11 11 24 13 38 6s21 -18 21 -33c0 -8 -5 -18 -15 -29l-99 -85l99 -86c10 -9 15 -18 15 -28c0 -15 -7 -25 -21 -32s-27 -5 -38 5c-79 70 -122 108 -127 114c-7 9 -11 18 -11 27z" />
    <glyph glyph-name="logicalnot" unicode="&#xac;" horiz-adv-x="445" 
d="M86 323h265c19 0 34 -15 34 -34v-75c1 -44 -71 -44 -69 0v42h-230c-44 -3 -44 69 0 67z" />
    <glyph glyph-name="registered" unicode="&#xae;" horiz-adv-x="319" 
d="M160 528c-33 0 -62 12 -85 35s-35 52 -35 85s12 61 35 84c24 23 52 35 85 35s61 -12 84 -35s35 -51 35 -84s-12 -61 -35 -85c-23 -23 -51 -35 -84 -35zM234 573c21 21 31 46 31 75s-10 54 -31 74c-20 21 -45 31 -74 31s-54 -10 -75 -31c-21 -20 -31 -45 -31 -74
s10 -54 31 -75s46 -31 75 -31s54 10 74 31zM224 678c0 -23 -11 -39 -33 -47l30 -59l-15 -1l-29 58h-58v-57h-14v154h69c28 0 50 -21 50 -48zM209 678c0 19 -15 35 -35 35h-55v-71h55c20 0 35 15 35 36z" />
    <glyph glyph-name="overscore" unicode="&#xaf;" horiz-adv-x="307" 
d="M86 750h135c44 2 44 -70 0 -68h-135c-44 -2 -44 70 0 68z" />
    <glyph glyph-name="degree" unicode="&#xb0;" horiz-adv-x="304" 
d="M204 665c0 28 -23 50 -52 50c-28 0 -50 -22 -50 -50c0 -29 22 -52 50 -52c29 0 52 23 52 52zM224 737c40 -40 40 -104 0 -144s-104 -40 -144 0s-40 104 0 144s104 40 144 0z" />
    <glyph glyph-name="plusminus" unicode="&#xb1;" horiz-adv-x="679" 
d="M306 199v143h-231c-43 0 -43 67 0 67h231v144c-2 44 70 44 68 0v-144h229c44 2 44 -70 0 -67h-229v-143c2 -44 -70 -44 -68 0zM76 67h527c44 3 44 -69 0 -67h-527c-44 -2 -44 70 0 67z" />
    <glyph glyph-name="twosuperior" unicode="&#xb2;" horiz-adv-x="331" 
d="M55 405l169 161c67 64 20 164 -58 159c-51 0 -92 -40 -92 -93c0 -22 -34 -22 -34 0c0 35 12 65 36 89c25 25 55 37 90 37c71 0 125 -50 125 -121c0 -37 -15 -69 -45 -98l-137 -130h154c22 0 22 -34 0 -34h-197c-15 0 -23 18 -11 30z" />
    <glyph glyph-name="threesuperior" unicode="&#xb3;" horiz-adv-x="335" 
d="M43 473c-3 13 5 22 16 22c9 0 17 -8 18 -16c7 -45 47 -79 92 -79c52 0 93 42 93 94s-41 94 -93 94c-22 0 -44 -9 -66 -27c-11 -11 -29 -3 -29 12c0 6 2 11 7 14l136 129h-133c-22 0 -22 34 0 34h175c9 0 17 -8 17 -17c0 -3 -2 -8 -6 -13l-104 -100c35 1 66 -12 92 -37
s39 -54 39 -89s-13 -65 -38 -90s-55 -37 -90 -37c-64 0 -115 46 -126 106z" />
    <glyph glyph-name="acute" unicode="&#xb4;" horiz-adv-x="351" 
d="M93 684c-4 10 0 18 11 25l124 59c17 7 37 -2 42 -19c7 -17 -3 -37 -20 -42l-133 -34c-11 -3 -19 0 -24 11z" />
    <glyph glyph-name="mu" unicode="&#xb5;" horiz-adv-x="614" 
d="M128 553l1 -361c9 -87 71 -143 162 -143c49 0 93 17 133 51c40 35 61 75 62 122v331c-2 44 70 44 68 0v-527c2 -44 -70 -44 -68 0v86c-9 -30 -33 -59 -70 -87s-79 -42 -125 -42c-70 0 -124 21 -162 64v-191c0 -19 -16 -35 -35 -35s-34 16 -34 35v697c-2 44 70 44 68 0z
" />
    <glyph glyph-name="mu" unicode="&#x3bc;" horiz-adv-x="614" 
d="M128 553l1 -361c9 -87 71 -143 162 -143c49 0 93 17 133 51c40 35 61 75 62 122v331c-2 44 70 44 68 0v-527c2 -44 -70 -44 -68 0v86c-9 -30 -33 -59 -70 -87s-79 -42 -125 -42c-70 0 -124 21 -162 64v-191c0 -19 -16 -35 -35 -35s-34 16 -34 35v697c-2 44 70 44 68 0z
" />
    <glyph glyph-name="paragraph" unicode="&#xb6;" horiz-adv-x="596" 
d="M213 750h289c19 0 34 -15 34 -34v-690c2 -44 -70 -44 -68 0v656h-102v-656c2 -44 -70 -44 -68 0v349h-85c-52 0 -96 18 -133 55s-55 81 -55 133c0 51 18 95 55 132s81 55 133 55zM213 443h85v239h-85c-67 0 -118 -52 -118 -119c0 -33 11 -62 34 -85s51 -35 84 -35z" />
    <glyph glyph-name="middot" unicode="&#xb7;" horiz-adv-x="222" 
d="M87 239c-29 0 -52 23 -52 51s23 51 52 51c27 0 50 -23 50 -51s-23 -51 -50 -51z" />
    <glyph glyph-name="cedilla" unicode="&#xb8;" horiz-adv-x="325" 
d="M124 -73l28 96l26 -7l-22 -70c29 2 50 -9 64 -33c19 -31 7 -73 -25 -90c-31 -17 -69 -9 -90 22c-13 17 11 29 23 15c11 -19 35 -25 54 -14s25 34 14 54c-11 19 -33 25 -52 16c-8 -7 -21 -1 -20 11z" />
    <glyph glyph-name="onesuperior" unicode="&#xb9;" horiz-adv-x="226" 
d="M131 392v318l-55 -32c-3 -2 -6 -3 -9 -3c-11 0 -17 6 -17 17c0 7 3 13 10 16l78 47c9 7 28 2 28 -14v-349c0 -22 -35 -22 -35 0z" />
    <glyph glyph-name="ordmasculine" unicode="&#xba;" horiz-adv-x="387" 
d="M110 528c23 -23 51 -35 84 -35s61 12 84 35c23 24 35 53 35 86s-12 62 -35 85s-51 35 -84 35s-61 -12 -84 -35s-35 -52 -35 -85s12 -62 35 -86zM40 614c0 42 15 78 45 108s66 45 109 45s79 -15 109 -45s45 -66 45 -108c0 -43 -15 -79 -45 -109s-66 -45 -109 -45
s-79 15 -109 45s-45 66 -45 109z" />
    <glyph glyph-name="guillemotright" unicode="&#xbb;" horiz-adv-x="431" 
d="M399 290c0 -10 -4 -20 -13 -29c-8 -9 -31 -30 -69 -63c-19 -15 -32 -28 -56 -49c-11 -10 -24 -12 -38 -5s-21 17 -21 32c0 10 5 19 15 28l99 86l-99 85c-10 11 -15 21 -15 29c0 15 7 26 21 33s27 5 38 -6c79 -70 122 -108 127 -114c7 -9 11 -18 11 -27zM229 290
c0 -10 -4 -20 -13 -29c-8 -9 -31 -30 -69 -63c-23 -20 -41 -36 -56 -49c-11 -10 -24 -12 -38 -5s-21 17 -21 32c0 10 5 19 15 28l99 86l-99 85c-10 11 -15 21 -15 29c0 15 7 26 21 33s27 5 38 -6c79 -70 122 -108 127 -114c7 -9 11 -18 11 -27z" />
    <glyph glyph-name="onequarter" unicode="&#xbc;" horiz-adv-x="665" 
d="M131 392v318l-55 -32c-3 -2 -6 -3 -9 -3c-11 0 -17 6 -17 17c0 7 3 13 10 16l78 47c9 7 28 2 28 -14v-349c0 -22 -35 -22 -35 0zM152 13l304 736c5 9 12 12 21 8c10 -4 13 -11 8 -20l-304 -736c-5 -9 -12 -12 -20 -9c-11 4 -14 11 -9 21zM551 9v73h-172
c-9 0 -17 8 -17 17c0 4 2 8 5 11l186 258c3 5 8 7 15 7c9 0 17 -8 17 -17v-243h43c22 0 22 -33 0 -33h-43v-73c0 -22 -34 -22 -34 0zM551 309l-141 -194h141v194z" />
    <glyph glyph-name="onehalf" unicode="&#xbd;" horiz-adv-x="712" 
d="M131 392v318l-55 -32c-3 -2 -6 -3 -9 -3c-11 0 -17 6 -17 17c0 7 3 13 10 16l78 47c9 7 28 2 28 -14v-349c0 -22 -35 -22 -35 0zM152 13l304 736c5 9 12 12 21 8c10 -4 13 -11 8 -20l-304 -736c-5 -9 -12 -12 -20 -9c-11 4 -14 11 -9 21zM436 28l169 161
c43 43 41 102 6 134c-17 17 -38 25 -64 25c-52 0 -92 -41 -92 -93c0 -22 -34 -22 -34 0c0 35 12 65 36 89c25 25 55 37 90 37c71 0 125 -50 125 -121c0 -37 -15 -69 -45 -98l-137 -130h154c22 0 22 -34 0 -34h-197c-15 0 -23 18 -11 30z" />
    <glyph glyph-name="threequarters" unicode="&#xbe;" horiz-adv-x="746" 
d="M235 13l304 736c5 9 12 12 21 8c10 -4 13 -11 8 -20l-304 -736c-5 -9 -12 -12 -20 -9c-11 4 -14 11 -9 21zM634 9v73h-172c-9 0 -17 8 -17 17c0 4 2 8 5 11l186 258c3 5 8 7 15 7c9 0 17 -8 17 -17v-243h43c22 0 22 -33 0 -33h-43v-73c0 -22 -34 -22 -34 0zM634 309
l-141 -194h141v194zM43 473c-3 13 5 22 16 22c9 0 17 -8 18 -16c7 -45 47 -79 92 -79c52 0 93 42 93 94s-41 94 -93 94c-22 0 -44 -9 -66 -27c-11 -11 -29 -3 -29 12c0 6 2 11 7 14l136 129h-133c-22 0 -22 34 0 34h175c9 0 17 -8 17 -17c0 -3 -2 -8 -6 -13l-104 -100
c35 1 66 -12 92 -37s39 -54 39 -89s-13 -65 -38 -90s-55 -37 -90 -37c-64 0 -115 46 -126 106z" />
    <glyph glyph-name="questiondown" unicode="&#xbf;" horiz-adv-x="587" 
d="M322 545v-86c0 -19 -15 -34 -34 -34c-51 0 -95 -18 -131 -55c-35 -36 -53 -80 -53 -133c0 -52 18 -96 54 -133s80 -55 131 -55c46 0 86 15 121 45c35 31 57 68 64 113c3 17 18 32 35 32c20 0 38 -18 33 -43c-10 -61 -39 -111 -87 -152c-47 -41 -103 -61 -166 -61
c-71 0 -131 25 -181 74c-49 50 -74 110 -74 180c0 65 21 121 63 169s94 76 157 85v54c-1 44 71 44 68 0zM239 707c0 28 23 51 50 51c29 0 52 -23 52 -51c0 -29 -23 -52 -52 -52c-27 0 -50 23 -50 52z" />
    <glyph glyph-name="Agrave" unicode="&#xc0;" horiz-adv-x="690" 
d="M604 12l-63 157h-392l-63 -157c-6 -13 -17 -20 -32 -20c-20 0 -34 14 -34 33c0 5 1 10 3 14l291 699c5 13 16 20 31 20s26 -7 31 -20l291 -699c2 -4 3 -9 3 -14c0 -19 -14 -33 -34 -33c-15 0 -26 7 -32 20zM345 637l-167 -401h334zM433 797c-5 -11 -13 -14 -24 -11
l-133 34c-17 5 -27 25 -20 42c5 17 25 26 42 19l124 -59c11 -7 15 -15 11 -25z" />
    <glyph glyph-name="Aacute" unicode="&#xc1;" horiz-adv-x="690" 
d="M604 12l-63 157h-392l-63 -157c-6 -13 -17 -20 -32 -20c-20 0 -34 14 -34 33c0 5 1 10 3 14l291 699c5 13 16 20 31 20s26 -7 31 -20l291 -699c2 -4 3 -9 3 -14c0 -19 -14 -33 -34 -33c-15 0 -26 7 -32 20zM345 637l-167 -401h334zM254 797c-4 10 0 18 11 25l124 59
c17 7 37 -2 42 -19c7 -17 -3 -37 -20 -42l-133 -34c-11 -3 -19 0 -24 11z" />
    <glyph glyph-name="Acircumflex" unicode="&#xc2;" horiz-adv-x="690" 
d="M604 12l-63 157h-392l-63 -157c-6 -13 -17 -20 -32 -20c-20 0 -34 14 -34 33c0 5 1 10 3 14l291 699c5 13 16 20 31 20s26 -7 31 -20l291 -699c2 -4 3 -9 3 -14c0 -19 -14 -33 -34 -33c-15 0 -26 7 -32 20zM345 637l-167 -401h334zM345 916c8 0 18 -6 29 -19
c5 -5 16 -17 32 -36l33 -37c13 -15 2 -39 -18 -39c-6 0 -12 3 -19 10l-57 64l-57 -64c-7 -7 -13 -10 -19 -10c-20 0 -31 24 -18 39c49 55 75 85 80 88s9 4 14 4z" />
    <glyph glyph-name="Atilde" unicode="&#xc3;" horiz-adv-x="690" 
d="M604 12l-63 157h-392l-63 -157c-6 -13 -17 -20 -32 -20c-20 0 -34 14 -34 33c0 5 1 10 3 14l291 699c5 13 16 20 31 20s26 -7 31 -20l291 -699c2 -4 3 -9 3 -14c0 -19 -14 -33 -34 -33c-15 0 -26 7 -32 20zM345 637l-167 -401h334zM232 807c1 40 31 71 70 71
c25 0 46 -12 61 -36c10 -11 19 -17 26 -17c16 0 29 14 29 31c0 26 40 26 40 0c-1 -40 -32 -71 -69 -71c-25 0 -45 12 -60 36c-11 12 -20 18 -27 18c-17 0 -30 -15 -30 -32c0 -26 -40 -26 -40 0z" />
    <glyph glyph-name="Adieresis" unicode="&#xc4;" horiz-adv-x="690" 
d="M604 12l-63 157h-392l-63 -157c-6 -13 -17 -20 -32 -20c-20 0 -34 14 -34 33c0 5 1 10 3 14l291 699c5 13 16 20 31 20s26 -7 31 -20l291 -699c2 -4 3 -9 3 -14c0 -19 -14 -33 -34 -33c-15 0 -26 7 -32 20zM345 637l-167 -401h334zM290 836c3 -58 -91 -58 -89 0
c0 24 21 44 45 44s44 -20 44 -44zM487 836c0 -25 -19 -45 -43 -45c-25 0 -45 20 -45 45c0 24 20 44 45 44c24 0 43 -20 43 -44z" />
    <glyph glyph-name="Aring" unicode="&#xc5;" horiz-adv-x="690" 
d="M366 829c28 28 -15 71 -43 43c-30 -25 18 -73 43 -43zM419 851c0 -41 -34 -75 -74 -75s-74 34 -74 75c0 40 34 73 74 73s74 -33 74 -73zM604 12l-63 157h-392l-63 -157c-6 -13 -17 -20 -32 -20c-20 0 -34 14 -34 33c0 5 1 10 3 14l291 699c5 13 16 20 31 20s26 -7 31 -20
l291 -699c2 -4 3 -9 3 -14c0 -19 -14 -33 -34 -33c-15 0 -26 7 -32 20zM345 637l-167 -401h334z" />
    <glyph glyph-name="AE" unicode="&#xc6;" horiz-adv-x="1112" 
d="M24 46l511 689c7 10 18 15 32 15h478c44 2 44 -70 0 -68h-444v-274h375c44 2 44 -70 0 -68h-375v-272h444c19 -1 34 -17 34 -34c0 -19 -15 -34 -34 -34h-478c-19 0 -34 15 -34 34v137h-331l-122 -165c-25 -37 -83 7 -56 40zM533 238v379l-281 -379h281z" />
    <glyph glyph-name="Ccedilla" unicode="&#xc7;" horiz-adv-x="747" 
d="M386 -73l16 57c-103 5 -190 46 -261 121s-107 165 -107 269c0 109 38 201 115 278s169 115 277 114c107 1 200 -38 278 -116c13 -13 14 -35 1 -48c-15 -13 -35 -13 -48 0c-67 65 -144 98 -230 98c-90 0 -167 -32 -230 -96c-63 -63 -94 -140 -93 -230
c-1 -89 30 -166 93 -230c63 -63 140 -95 230 -95c87 0 163 32 230 95c29 31 81 -19 47 -48c-77 -75 -169 -113 -275 -113l-11 -37c29 2 50 -9 64 -33c19 -31 7 -73 -25 -90c-31 -17 -69 -9 -90 22c-13 17 11 29 23 15c11 -19 35 -25 54 -14s25 34 14 54
c-11 19 -33 25 -52 16c-8 -7 -21 -1 -20 11z" />
    <glyph glyph-name="Egrave" unicode="&#xc8;" horiz-adv-x="641" 
d="M60 34v682c0 19 15 34 34 34h478c44 2 44 -70 0 -68h-444v-274h375c44 2 44 -70 0 -68h-375v-272h444c19 -1 34 -17 34 -34c0 -19 -15 -34 -34 -34h-478c-19 0 -34 15 -34 34zM428 797c-5 -11 -13 -14 -24 -11l-133 34c-17 5 -27 25 -20 42c5 17 25 26 42 19l124 -59
c11 -7 15 -15 11 -25z" />
    <glyph glyph-name="Eacute" unicode="&#xc9;" horiz-adv-x="641" 
d="M60 34v682c0 19 15 34 34 34h478c44 2 44 -70 0 -68h-444v-274h375c44 2 44 -70 0 -68h-375v-272h444c19 -1 34 -17 34 -34c0 -19 -15 -34 -34 -34h-478c-19 0 -34 15 -34 34zM249 797c-4 10 0 18 11 25l124 59c17 7 37 -2 42 -19c7 -17 -3 -37 -20 -42l-133 -34
c-11 -3 -19 0 -24 11z" />
    <glyph glyph-name="Ecircumflex" unicode="&#xca;" horiz-adv-x="641" 
d="M333 916c8 0 18 -6 29 -19c5 -5 16 -17 32 -36l33 -37c13 -15 2 -39 -18 -39c-6 0 -12 3 -19 10l-57 64l-57 -64c-7 -7 -13 -10 -19 -10c-20 0 -31 24 -18 39c49 55 75 85 80 88s9 4 14 4zM60 34v682c0 19 15 34 34 34h478c44 2 44 -70 0 -68h-444v-274h375
c44 2 44 -70 0 -68h-375v-272h444c19 -1 34 -17 34 -34c0 -19 -15 -34 -34 -34h-478c-19 0 -34 15 -34 34z" />
    <glyph glyph-name="Edieresis" unicode="&#xcb;" horiz-adv-x="641" 
d="M60 34v682c0 19 15 34 34 34h478c44 2 44 -70 0 -68h-444v-274h375c44 2 44 -70 0 -68h-375v-272h444c19 -1 34 -17 34 -34c0 -19 -15 -34 -34 -34h-478c-19 0 -34 15 -34 34zM266 836c3 -58 -91 -58 -89 0c0 24 21 44 45 44s44 -20 44 -44zM463 836
c0 -25 -19 -45 -43 -45c-25 0 -45 20 -45 45c0 24 20 44 45 44c24 0 43 -20 43 -44z" />
    <glyph glyph-name="Igrave" unicode="&#xcc;" horiz-adv-x="188" 
d="M65 26v698c-2 44 70 44 68 0v-698c2 -44 -70 -44 -68 0zM188 797c-5 -11 -13 -14 -24 -11l-133 34c-17 5 -27 25 -20 42c5 17 25 26 42 19l124 -59c11 -7 15 -15 11 -25z" />
    <glyph glyph-name="Iacute" unicode="&#xcd;" horiz-adv-x="188" 
d="M66 26v698c-2 44 70 44 68 0v-698c2 -44 -70 -44 -68 0zM11 797c-4 10 0 18 11 25l124 59c17 7 37 -2 42 -19c7 -17 -3 -37 -20 -42l-133 -34c-11 -3 -19 0 -24 11z" />
    <glyph glyph-name="Icircumflex" unicode="&#xce;" horiz-adv-x="188" 
d="M67 26v698c-2 44 70 44 68 0v-698c2 -44 -70 -44 -68 0zM101 918c8 0 18 -6 29 -19c5 -5 16 -17 32 -36c13 -15 24 -27 33 -37c13 -15 2 -39 -18 -39c-6 0 -12 3 -19 10l-57 64l-57 -64c-7 -7 -13 -10 -19 -10c-20 0 -31 24 -18 39c49 55 75 85 80 88s9 4 14 4z" />
    <glyph glyph-name="Idieresis" unicode="&#xcf;" horiz-adv-x="188" 
d="M40 836c3 -58 -91 -58 -89 0c0 24 21 44 45 44s44 -20 44 -44zM237 836c0 -25 -19 -45 -43 -45c-25 0 -44 20 -44 45c0 24 19 44 44 44c24 0 43 -20 43 -44zM60 26v698c-2 44 70 44 68 0v-698c2 -44 -70 -44 -68 0z" />
    <glyph glyph-name="Eth" unicode="&#xd0;" horiz-adv-x="745" 
d="M46 409h33v307c0 19 15 34 34 34h222c103 0 192 -37 265 -110s110 -162 110 -265s-37 -192 -110 -265s-162 -110 -265 -110h-222c-19 0 -34 15 -34 34v307h-33c-44 -2 -44 70 0 68zM640 375c0 85 -30 158 -89 217c-59 60 -131 90 -216 90h-188v-273h138
c43 0 43 -68 0 -68h-138v-273h188c85 0 157 30 216 90s89 132 89 217z" />
    <glyph glyph-name="Ntilde" unicode="&#xd1;" horiz-adv-x="700" 
d="M640 724v-698c0 -19 -16 -34 -35 -34c-12 0 -21 5 -28 15l-449 615v-596c2 -44 -70 -44 -68 0v698c0 19 15 34 34 34c12 0 21 -4 28 -13l450 -617v596c-2 44 70 44 68 0zM237 789c1 40 31 71 70 71c25 0 46 -12 61 -36c10 -11 19 -17 26 -17c16 0 29 14 29 31
c0 26 40 26 40 0c-1 -40 -32 -71 -69 -71c-25 0 -45 12 -60 36c-11 12 -20 18 -27 18c-17 0 -30 -15 -30 -32c0 -26 -40 -26 -40 0z" />
    <glyph glyph-name="Ograve" unicode="&#xd2;" horiz-adv-x="854" 
d="M655 144c63 64 94 141 94 231s-31 167 -94 230c-63 64 -139 96 -228 96s-165 -32 -228 -96c-63 -63 -94 -140 -94 -230s31 -167 94 -231c63 -63 139 -95 228 -95s165 32 228 95zM427 -17c-109 0 -201 38 -278 115c-76 77 -114 169 -114 277s38 200 114 277
c77 77 169 115 278 115c108 0 200 -38 277 -115s115 -169 115 -277s-38 -200 -115 -277s-169 -115 -277 -115zM515 797c-5 -11 -13 -14 -24 -11l-133 34c-17 5 -27 25 -20 42c5 17 25 26 42 19l124 -59c11 -7 15 -15 11 -25z" />
    <glyph glyph-name="Oacute" unicode="&#xd3;" horiz-adv-x="854" 
d="M655 144c63 64 94 141 94 231s-31 167 -94 230c-63 64 -139 96 -228 96s-165 -32 -228 -96c-63 -63 -94 -140 -94 -230s31 -167 94 -231c63 -63 139 -95 228 -95s165 32 228 95zM427 -17c-109 0 -201 38 -278 115c-76 77 -114 169 -114 277s38 200 114 277
c77 77 169 115 278 115c108 0 200 -38 277 -115s115 -169 115 -277s-38 -200 -115 -277s-169 -115 -277 -115zM336 797c-4 10 0 18 11 25l124 59c17 7 37 -2 42 -19c7 -17 -3 -37 -20 -42l-133 -34c-11 -3 -19 0 -24 11z" />
    <glyph glyph-name="Ocircumflex" unicode="&#xd4;" horiz-adv-x="854" 
d="M427 916c8 0 18 -6 29 -19c5 -5 16 -17 32 -36c13 -15 24 -27 33 -37c13 -15 2 -39 -18 -39c-6 0 -12 3 -19 10l-57 64l-57 -64c-7 -7 -13 -10 -19 -10c-20 0 -31 24 -18 39c49 55 75 85 80 88s9 4 14 4zM655 144c63 64 94 141 94 231s-31 167 -94 230
c-63 64 -139 96 -228 96s-165 -32 -228 -96c-63 -63 -94 -140 -94 -230s31 -167 94 -231c63 -63 139 -95 228 -95s165 32 228 95zM427 -17c-109 0 -201 38 -278 115c-76 77 -114 169 -114 277s38 200 114 277c77 77 169 115 278 115c108 0 200 -38 277 -115
s115 -169 115 -277s-38 -200 -115 -277s-169 -115 -277 -115z" />
    <glyph glyph-name="Otilde" unicode="&#xd5;" horiz-adv-x="854" 
d="M312 807c1 40 31 71 70 71c25 0 46 -12 61 -36c10 -11 19 -17 26 -17c16 0 29 14 29 31c0 26 40 26 40 0c-1 -40 -32 -71 -69 -71c-25 0 -45 12 -60 36c-11 12 -20 18 -27 18c-17 0 -30 -15 -30 -32c0 -26 -40 -26 -40 0zM655 144c63 64 94 141 94 231s-31 167 -94 230
c-63 64 -139 96 -228 96s-165 -32 -228 -96c-63 -63 -94 -140 -94 -230s31 -167 94 -231c63 -63 139 -95 228 -95s165 32 228 95zM427 -17c-109 0 -201 38 -278 115c-76 77 -114 169 -114 277s38 200 114 277c77 77 169 115 278 115c108 0 200 -38 277 -115
s115 -169 115 -277s-38 -200 -115 -277s-169 -115 -277 -115z" />
    <glyph glyph-name="Odieresis" unicode="&#xd6;" horiz-adv-x="854" 
d="M371 836c3 -58 -91 -58 -89 0c0 24 21 44 45 44s44 -20 44 -44zM569 836c0 -25 -20 -45 -44 -45c-25 0 -44 20 -44 45c0 24 19 44 44 44c24 0 44 -20 44 -44zM655 144c63 64 94 141 94 231s-31 167 -94 230c-63 64 -139 96 -228 96s-165 -32 -228 -96
c-63 -63 -94 -140 -94 -230s31 -167 94 -231c63 -63 139 -95 228 -95s165 32 228 95zM427 -17c-109 0 -201 38 -278 115c-76 77 -114 169 -114 277s38 200 114 277c77 77 169 115 278 115c108 0 200 -38 277 -115s115 -169 115 -277s-38 -200 -115 -277s-169 -115 -277 -115
z" />
    <glyph glyph-name="multiply" unicode="&#xd7;" horiz-adv-x="662" 
d="M619 527l-239 -239l239 -239c15 -13 15 -35 0 -48c-13 -13 -34 -14 -49 -1l-239 239l-240 -239c-13 -13 -34 -14 -49 1c-13 13 -13 33 0 48l240 239l-239 240c-13 13 -14 34 1 49c13 13 35 13 48 0l239 -240l239 239c31 31 79 -16 49 -49z" />
    <glyph glyph-name="Oslash" unicode="&#xd8;" horiz-adv-x="864" 
d="M824 375c0 -108 -38 -200 -115 -277s-169 -115 -277 -115c-95 0 -179 30 -252 91l-73 -73c-33 -30 -80 18 -49 49l73 73c-61 73 -91 157 -91 252c0 108 38 200 114 277c77 77 169 115 278 115c95 0 178 -30 251 -91l73 73c13 13 35 13 48 0c15 -15 14 -36 1 -49l-73 -73
c61 -73 92 -157 92 -252zM754 375c0 77 -24 145 -71 203l-454 -455c60 -49 128 -74 203 -74c89 0 165 32 228 95c63 64 94 141 94 231zM110 375c0 -79 23 -147 69 -203l455 455c-60 49 -127 74 -202 74c-89 0 -165 -32 -228 -96c-63 -63 -94 -140 -94 -230z" />
    <glyph glyph-name="Ugrave" unicode="&#xd9;" horiz-adv-x="699" 
d="M571 273v451c-2 44 70 44 68 0v-451c0 -80 -28 -148 -85 -205s-125 -85 -204 -85c-80 0 -148 28 -205 85s-85 125 -85 205v451c-2 44 70 44 68 0v-451c0 -61 22 -114 65 -158s96 -66 157 -66s113 22 156 66s65 97 65 158zM435 797c-5 -11 -13 -14 -24 -11l-133 34
c-17 5 -27 25 -20 42c5 17 25 26 42 19l124 -59c11 -7 15 -15 11 -25z" />
    <glyph glyph-name="Uacute" unicode="&#xda;" horiz-adv-x="699" 
d="M571 273v451c-2 44 70 44 68 0v-451c0 -80 -28 -148 -85 -205s-125 -85 -204 -85c-80 0 -148 28 -205 85s-85 125 -85 205v451c-2 44 70 44 68 0v-451c0 -61 22 -114 65 -158s96 -66 157 -66s113 22 156 66s65 97 65 158zM256 797c-4 10 0 18 11 25l124 59
c17 7 37 -2 42 -19c7 -17 -3 -37 -20 -42l-133 -34c-11 -3 -19 0 -24 11z" />
    <glyph glyph-name="Ucircumflex" unicode="&#xdb;" horiz-adv-x="699" 
d="M349 918c8 0 18 -6 29 -19c5 -5 16 -17 32 -36l33 -37c13 -15 2 -39 -18 -39c-6 0 -12 3 -19 10l-57 64l-57 -64c-7 -7 -13 -10 -19 -10c-20 0 -31 24 -18 39c49 55 75 85 80 88s9 4 14 4zM571 273v451c-2 44 70 44 68 0v-451c0 -80 -28 -148 -85 -205s-125 -85 -204 -85
c-80 0 -148 28 -205 85s-85 125 -85 205v451c-2 44 70 44 68 0v-451c0 -61 22 -114 65 -158s96 -66 157 -66s113 22 156 66s65 97 65 158z" />
    <glyph glyph-name="Udieresis" unicode="&#xdc;" horiz-adv-x="699" 
d="M294 836c3 -58 -91 -58 -89 0c0 24 21 44 45 44s44 -20 44 -44zM491 836c0 -25 -19 -45 -43 -45c-25 0 -44 20 -44 45c0 24 19 44 44 44c24 0 43 -20 43 -44zM571 273v451c-2 44 70 44 68 0v-451c0 -80 -28 -148 -85 -205s-125 -85 -204 -85c-80 0 -148 28 -205 85
s-85 125 -85 205v451c-2 44 70 44 68 0v-451c0 -61 22 -114 65 -158s96 -66 157 -66s113 22 156 66s65 97 65 158z" />
    <glyph glyph-name="Yacute" unicode="&#xdd;" horiz-adv-x="626" 
d="M614 704l-258 -361v-317c2 -44 -70 -44 -68 0v317l-258 361c-16 21 0 54 28 54c11 0 21 -5 28 -14l236 -332l236 332c7 9 17 14 28 14c28 0 44 -33 28 -54zM233 797c-4 10 0 18 11 25l124 59c17 7 37 -2 42 -19c7 -17 -3 -37 -20 -42l-133 -34c-11 -3 -19 0 -24 11z" />
    <glyph glyph-name="Thorn" unicode="&#xde;" horiz-adv-x="650" 
d="M60 26v698c-2 44 70 44 68 0v-68h285c55 0 103 -20 142 -59s59 -85 59 -140s-20 -103 -59 -142s-87 -59 -142 -59h-285v-230c2 -44 -70 -44 -68 0zM544 457c0 36 -13 67 -38 92c-25 26 -56 39 -93 39h-285v-264h285c37 0 68 13 93 39s38 57 38 94z" />
    <glyph glyph-name="germandbls" unicode="&#xdf;" horiz-adv-x="552" 
d="M189 443h67c35 0 65 12 90 37s37 56 37 91c0 36 -12 67 -37 92s-55 38 -90 38s-65 -13 -90 -39c-25 -25 -38 -56 -38 -91v-545c2 -44 -70 -44 -68 0v545c0 54 19 100 57 138c39 39 85 58 139 58c55 0 101 -19 139 -58c39 -38 58 -84 58 -138c0 -59 -23 -109 -68 -149
c76 -36 127 -113 127 -201c0 -61 -22 -113 -65 -156s-95 -65 -156 -65h-102c-44 -2 -44 70 0 68h102c42 0 78 15 107 45s44 66 44 108c0 43 -15 79 -44 109s-65 45 -107 45h-102c-44 -2 -44 70 0 68z" />
    <glyph glyph-name="agrave" unicode="&#xe0;" 
d="M587 26v91c-59 -89 -139 -134 -239 -134c-85 0 -157 30 -218 90c-60 60 -90 132 -90 217s30 157 90 216c61 60 133 90 218 90c101 0 180 -45 239 -134v91c-2 44 70 44 68 0v-527c2 -44 -70 -44 -68 0zM587 290c0 66 -24 122 -71 169s-103 71 -168 71
c-66 0 -122 -24 -169 -71c-46 -47 -69 -103 -69 -169c0 -67 23 -124 69 -171c47 -47 103 -70 169 -70c65 0 121 23 168 70s71 104 71 171zM473 666c-5 -11 -13 -14 -24 -11l-133 34c-17 5 -27 25 -20 42c5 17 25 26 42 19l124 -59c11 -7 15 -15 11 -25z" />
    <glyph glyph-name="aacute" unicode="&#xe1;" 
d="M587 26v91c-59 -89 -139 -134 -239 -134c-85 0 -157 30 -218 90c-60 60 -90 132 -90 217s30 157 90 216c61 60 133 90 218 90c101 0 180 -45 239 -134v91c-2 44 70 44 68 0v-527c2 -44 -70 -44 -68 0zM587 290c0 66 -24 122 -71 169s-103 71 -168 71
c-66 0 -122 -24 -169 -71c-46 -47 -69 -103 -69 -169c0 -67 23 -124 69 -171c47 -47 103 -70 169 -70c65 0 121 23 168 70s71 104 71 171zM296 666c-4 10 0 18 11 25l124 59c17 7 37 -2 42 -19c7 -17 -3 -37 -20 -42l-133 -34c-11 -3 -19 0 -24 11z" />
    <glyph glyph-name="acircumflex" unicode="&#xe2;" 
d="M394 785c8 0 18 -6 29 -19c5 -5 16 -17 32 -36l33 -37c13 -15 2 -39 -18 -39c-6 0 -12 3 -19 10l-57 64l-57 -64c-7 -7 -13 -10 -19 -10c-20 0 -31 24 -18 39c49 55 75 85 80 88s9 4 14 4zM587 26v91c-59 -89 -139 -134 -239 -134c-85 0 -157 30 -218 90
c-60 60 -90 132 -90 217s30 157 90 216c61 60 133 90 218 90c101 0 180 -45 239 -134v91c-2 44 70 44 68 0v-527c2 -44 -70 -44 -68 0zM587 290c0 66 -24 122 -71 169s-103 71 -168 71c-66 0 -122 -24 -169 -71c-46 -47 -69 -103 -69 -169c0 -67 23 -124 69 -171
c47 -47 103 -70 169 -70c65 0 121 23 168 70s71 104 71 171z" />
    <glyph glyph-name="atilde" unicode="&#xe3;" 
d="M587 26v91c-59 -89 -139 -134 -239 -134c-85 0 -157 30 -218 90c-60 60 -90 132 -90 217s30 157 90 216c61 60 133 90 218 90c101 0 180 -45 239 -134v91c-2 44 70 44 68 0v-527c2 -44 -70 -44 -68 0zM587 290c0 66 -24 122 -71 169s-103 71 -168 71
c-66 0 -122 -24 -169 -71c-46 -47 -69 -103 -69 -169c0 -67 23 -124 69 -171c47 -47 103 -70 169 -70c65 0 121 23 168 70s71 104 71 171zM277 676c1 40 31 71 70 71c25 0 46 -12 61 -36c10 -11 19 -17 26 -17c16 0 29 14 29 31c0 26 40 26 40 0c-1 -40 -32 -71 -69 -71
c-25 0 -45 12 -60 36c-11 12 -20 18 -27 18c-17 0 -30 -15 -30 -32c0 -26 -40 -26 -40 0z" />
    <glyph glyph-name="adieresis" unicode="&#xe4;" 
d="M587 26v91c-59 -89 -139 -134 -239 -134c-85 0 -157 30 -218 90c-60 60 -90 132 -90 217s30 157 90 216c61 60 133 90 218 90c101 0 180 -45 239 -134v91c-2 44 70 44 68 0v-527c2 -44 -70 -44 -68 0zM587 290c0 66 -24 122 -71 169s-103 71 -168 71
c-66 0 -122 -24 -169 -71c-46 -47 -69 -103 -69 -169c0 -67 23 -124 69 -171c47 -47 103 -70 169 -70c65 0 121 23 168 70s71 104 71 171zM292 723c3 -58 -91 -58 -89 0c0 24 21 44 45 44s44 -20 44 -44zM489 723c0 -25 -19 -45 -43 -45c-25 0 -45 20 -45 45
c0 24 20 44 45 44c24 0 43 -20 43 -44z" />
    <glyph glyph-name="aring" unicode="&#xe5;" 
d="M349 757c-42 0 -42 -61 0 -61c16 0 30 14 30 31s-14 30 -30 30zM422 727c0 -41 -34 -75 -73 -75c-41 0 -75 34 -75 75c0 40 34 73 75 73c39 0 73 -33 73 -73zM587 26v91c-59 -89 -139 -134 -239 -134c-85 0 -157 30 -218 90c-60 60 -90 132 -90 217s30 157 90 216
c61 60 133 90 218 90c101 0 180 -45 239 -134v91c-2 44 70 44 68 0v-527c2 -44 -70 -44 -68 0zM587 290c0 66 -24 122 -71 169s-103 71 -168 71c-66 0 -122 -24 -169 -71c-46 -47 -69 -103 -69 -169c0 -67 23 -124 69 -171c47 -47 103 -70 169 -70c65 0 121 23 168 70
s71 104 71 171z" />
    <glyph glyph-name="ae" unicode="&#xe6;" horiz-adv-x="1240" 
d="M1200 290c0 -19 -16 -34 -35 -34h-507c9 -59 35 -108 80 -148c45 -39 97 -59 156 -59c79 0 149 39 192 102c7 11 16 17 29 17c28 0 44 -33 29 -54c-24 -37 -59 -69 -104 -94s-94 -37 -146 -37c-101 0 -189 51 -240 130v-87c2 -44 -70 -44 -68 0v91
c-59 -89 -139 -134 -238 -134c-85 0 -157 30 -218 90c-60 60 -90 132 -90 217s30 157 90 216c61 60 133 90 218 90c100 0 179 -45 238 -134v91c-2 44 70 44 68 0v-87c49 79 139 130 240 130c83 0 155 -30 214 -89c60 -59 91 -132 92 -217zM586 290c0 66 -23 122 -70 169
s-103 71 -168 71c-66 0 -122 -24 -169 -71c-46 -47 -69 -103 -69 -169c0 -67 23 -124 69 -171c47 -47 103 -70 169 -70c65 0 121 23 168 70s70 104 70 171zM658 324h470c-9 58 -35 107 -79 146c-44 40 -96 60 -155 60s-111 -20 -156 -60c-45 -39 -71 -88 -80 -146z" />
    <glyph glyph-name="ccedilla" unicode="&#xe7;" horiz-adv-x="609" 
d="M309 -73l16 57c-81 6 -148 38 -203 96c-55 59 -82 129 -82 210c0 85 30 157 89 216c60 60 133 90 218 91c83 0 156 -30 218 -91c31 -29 -17 -81 -49 -47c-48 47 -104 71 -169 72c-65 -1 -121 -25 -168 -72c-46 -47 -69 -103 -69 -168c0 -67 23 -124 69 -171
c47 -47 103 -71 168 -71s121 24 170 73c28 31 80 -20 48 -48c-61 -59 -132 -89 -213 -91l-11 -37c29 2 50 -9 64 -33c19 -31 7 -73 -25 -90c-31 -17 -69 -9 -90 22c-13 17 11 29 23 15c11 -19 35 -25 54 -14s25 34 14 54c-11 19 -33 25 -52 16c-8 -7 -21 -1 -20 11z" />
    <glyph glyph-name="egrave" unicode="&#xe8;" horiz-adv-x="691" 
d="M651 290c0 -19 -16 -34 -35 -34h-504c9 -59 35 -108 78 -148c44 -39 96 -59 155 -59c79 0 149 39 192 102c7 11 16 17 29 17c28 0 44 -33 29 -54c-24 -37 -59 -69 -104 -94s-94 -37 -146 -37c-84 0 -156 30 -216 90c-59 60 -89 132 -89 217s30 157 89 216
c60 60 132 90 216 90c83 0 155 -30 214 -89c60 -59 91 -132 92 -217zM112 324h467c-9 58 -35 107 -79 146c-44 40 -96 60 -155 60s-111 -20 -155 -59c-43 -39 -69 -88 -78 -147zM441 666c-5 -11 -13 -14 -24 -11l-133 34c-17 5 -27 25 -20 42c5 17 25 26 42 19l124 -59
c11 -7 15 -15 11 -25z" />
    <glyph glyph-name="eacute" unicode="&#xe9;" horiz-adv-x="691" 
d="M651 290c0 -19 -16 -34 -35 -34h-504c9 -59 35 -108 78 -148c44 -39 96 -59 155 -59c79 0 149 39 192 102c7 11 16 17 29 17c28 0 44 -33 29 -54c-24 -37 -59 -69 -104 -94s-94 -37 -146 -37c-84 0 -156 30 -216 90c-59 60 -89 132 -89 217s30 157 89 216
c60 60 132 90 216 90c83 0 155 -30 214 -89c60 -59 91 -132 92 -217zM112 324h467c-9 58 -35 107 -79 146c-44 40 -96 60 -155 60s-111 -20 -155 -59c-43 -39 -69 -88 -78 -147zM281 666c-4 10 0 18 11 25l124 59c17 7 37 -2 42 -19c7 -17 -3 -37 -20 -42l-133 -34
c-11 -3 -19 0 -24 11z" />
    <glyph glyph-name="ecircumflex" unicode="&#xea;" horiz-adv-x="691" 
d="M361 785c8 0 18 -6 29 -19c5 -5 16 -17 32 -36l33 -37c13 -15 2 -39 -18 -39c-6 0 -12 3 -19 10l-57 64l-57 -64c-7 -7 -13 -10 -19 -10c-20 0 -31 24 -18 39c49 55 75 85 80 88s9 4 14 4zM651 290c0 -19 -16 -34 -35 -34h-504c9 -59 35 -108 78 -148
c44 -39 96 -59 155 -59c79 0 149 39 192 102c7 11 16 17 29 17c28 0 44 -33 29 -54c-24 -37 -59 -69 -104 -94s-94 -37 -146 -37c-84 0 -156 30 -216 90c-59 60 -89 132 -89 217s30 157 89 216c60 60 132 90 216 90c83 0 155 -30 214 -89c60 -59 91 -132 92 -217zM112 324
h467c-9 58 -35 107 -79 146c-44 40 -96 60 -155 60s-111 -20 -155 -59c-43 -39 -69 -88 -78 -147z" />
    <glyph glyph-name="edieresis" unicode="&#xeb;" horiz-adv-x="691" 
d="M651 290c0 -19 -16 -34 -35 -34h-504c9 -59 35 -108 78 -148c44 -39 96 -59 155 -59c79 0 149 39 192 102c7 11 16 17 29 17c28 0 44 -33 29 -54c-24 -37 -59 -69 -104 -94s-94 -37 -146 -37c-84 0 -156 30 -216 90c-59 60 -89 132 -89 217s30 157 89 216
c60 60 132 90 216 90c83 0 155 -30 214 -89c60 -59 91 -132 92 -217zM112 324h467c-9 58 -35 107 -79 146c-44 40 -96 60 -155 60s-111 -20 -155 -59c-43 -39 -69 -88 -78 -147zM291 723c3 -58 -91 -58 -89 0c0 24 21 44 45 44s44 -20 44 -44zM488 723
c0 -25 -19 -45 -43 -45c-25 0 -45 20 -45 45c0 24 20 44 45 44c24 0 43 -20 43 -44z" />
    <glyph glyph-name="igrave" unicode="&#xec;" horiz-adv-x="188" 
d="M184 666c-5 -11 -13 -14 -24 -11l-133 34c-17 5 -27 25 -20 42c5 17 25 26 42 19l124 -59c11 -7 15 -15 11 -25zM65 26v527c-2 44 70 44 68 0v-527c2 -44 -70 -44 -68 0z" />
    <glyph glyph-name="iacute" unicode="&#xed;" horiz-adv-x="188" 
d="M16 666c-4 10 0 18 11 25l124 59c17 7 37 -2 42 -19c7 -17 -3 -37 -20 -42l-133 -34c-11 -3 -19 0 -24 11zM66 26v527c-2 44 70 44 68 0v-527c2 -44 -70 -44 -68 0z" />
    <glyph glyph-name="icircumflex" unicode="&#xee;" horiz-adv-x="188" 
d="M101 794c8 0 18 -6 29 -19c5 -5 16 -17 32 -36c13 -15 24 -27 33 -37c13 -15 2 -39 -18 -39c-6 0 -12 3 -19 10l-57 64l-57 -64c-7 -7 -13 -10 -19 -10c-20 0 -31 24 -18 39c49 55 75 85 80 88s9 4 14 4zM67 26v527c-2 44 70 44 68 0v-527c2 -44 -70 -44 -68 0z" />
    <glyph glyph-name="idieresis" unicode="&#xef;" horiz-adv-x="188" 
d="M59 723c2 -58 -92 -58 -89 0c0 24 20 44 44 44s45 -20 45 -44zM218 723c0 -25 -19 -45 -43 -45c-25 0 -45 20 -45 45c0 24 20 44 45 44c24 0 43 -20 43 -44zM60 26v527c-2 44 70 44 68 0v-527c2 -44 -70 -44 -68 0z" />
    <glyph glyph-name="eth" unicode="&#xf0;" horiz-adv-x="676" 
d="M200 642c-4 13 3 28 16 32l46 13l-14 13c-6 7 -9 15 -10 25c1 19 17 33 34 33c8 0 17 -4 27 -12l38 -38l75 22c31 6 45 -41 14 -50l-47 -13l165 -169c62 -65 93 -138 93 -217c-1 -82 -30 -152 -88 -210s-128 -87 -211 -88c-82 0 -152 29 -211 87c-58 59 -87 129 -86 212
c0 75 29 141 86 196c58 55 122 83 193 83c46 0 84 -11 114 -32l1 3l-131 113l-73 -20c-15 -4 -28 4 -31 17zM567 282c1 59 -22 110 -68 151c-45 41 -99 62 -160 62c-59 0 -111 -20 -158 -61c-46 -41 -69 -91 -70 -152c1 -64 23 -119 67 -165c45 -45 98 -68 161 -68
s117 23 161 68s66 100 67 165z" />
    <glyph glyph-name="ntilde" unicode="&#xf1;" horiz-adv-x="614" 
d="M208 696c1 40 31 71 70 71c25 0 46 -12 61 -36c10 -11 19 -17 26 -17c16 0 29 14 29 31c0 26 40 26 40 0c-1 -40 -32 -71 -69 -71c-25 0 -45 12 -60 36c-11 12 -20 18 -27 18c-17 0 -30 -15 -30 -32c0 -26 -40 -26 -40 0zM486 26v339c0 99 -66 165 -163 165
c-49 0 -93 -17 -133 -52c-40 -34 -61 -74 -62 -121v-331c2 -44 -70 -44 -68 0v527c-2 44 70 44 68 0v-86c9 30 33 59 70 87s79 42 125 42c71 0 128 -21 169 -64s62 -98 62 -167v-339c2 -44 -70 -44 -68 0z" />
    <glyph glyph-name="ograve" unicode="&#xf2;" horiz-adv-x="695" 
d="M347 49c66 0 122 23 168 70c47 47 70 104 70 171c0 66 -23 122 -70 169c-46 47 -102 71 -168 71c-65 0 -121 -24 -168 -71c-46 -47 -69 -103 -69 -169c0 -67 23 -124 69 -171c47 -47 103 -70 168 -70zM347 -17c-85 0 -157 30 -217 90s-90 132 -90 217s30 157 90 216
c60 60 132 90 217 90s158 -30 218 -90c60 -59 90 -131 90 -216s-30 -157 -90 -217s-133 -90 -218 -90zM442 666c-5 -11 -13 -14 -24 -11l-133 34c-17 5 -27 25 -20 42c5 17 25 26 42 19l124 -59c11 -7 15 -15 11 -25z" />
    <glyph glyph-name="oacute" unicode="&#xf3;" horiz-adv-x="695" 
d="M347 49c66 0 122 23 168 70c47 47 70 104 70 171c0 66 -23 122 -70 169c-46 47 -102 71 -168 71c-65 0 -121 -24 -168 -71c-46 -47 -69 -103 -69 -169c0 -67 23 -124 69 -171c47 -47 103 -70 168 -70zM347 -17c-85 0 -157 30 -217 90s-90 132 -90 217s30 157 90 216
c60 60 132 90 217 90s158 -30 218 -90c60 -59 90 -131 90 -216s-30 -157 -90 -217s-133 -90 -218 -90zM268 665c-4 10 0 18 11 25l124 59c17 7 37 -2 42 -19c7 -17 -3 -37 -20 -42l-133 -34c-11 -3 -19 0 -24 11z" />
    <glyph glyph-name="ocircumflex" unicode="&#xf4;" horiz-adv-x="695" 
d="M354 785c8 0 18 -6 29 -19c5 -5 16 -17 32 -36l33 -37c13 -15 2 -39 -18 -39c-6 0 -12 3 -19 10l-57 64l-57 -64c-7 -7 -13 -10 -19 -10c-20 0 -31 24 -18 39c49 55 75 85 80 88s9 4 14 4zM347 49c66 0 122 23 168 70c47 47 70 104 70 171c0 66 -23 122 -70 169
c-46 47 -102 71 -168 71c-65 0 -121 -24 -168 -71c-46 -47 -69 -103 -69 -169c0 -67 23 -124 69 -171c47 -47 103 -70 168 -70zM347 -17c-85 0 -157 30 -217 90s-90 132 -90 217s30 157 90 216c60 60 132 90 217 90s158 -30 218 -90c60 -59 90 -131 90 -216
s-30 -157 -90 -217s-133 -90 -218 -90z" />
    <glyph glyph-name="otilde" unicode="&#xf5;" horiz-adv-x="695" 
d="M239 676c1 40 31 71 70 71c25 0 46 -12 61 -36c10 -11 19 -17 26 -17c16 0 29 14 29 31c0 26 40 26 40 0c-1 -40 -32 -71 -69 -71c-25 0 -45 12 -60 36c-11 12 -20 18 -27 18c-17 0 -30 -15 -30 -32c0 -26 -40 -26 -40 0zM347 49c66 0 122 23 168 70c47 47 70 104 70 171
c0 66 -23 122 -70 169c-46 47 -102 71 -168 71c-65 0 -121 -24 -168 -71c-46 -47 -69 -103 -69 -169c0 -67 23 -124 69 -171c47 -47 103 -70 168 -70zM347 -17c-85 0 -157 30 -217 90s-90 132 -90 217s30 157 90 216c60 60 132 90 217 90s158 -30 218 -90
c60 -59 90 -131 90 -216s-30 -157 -90 -217s-133 -90 -218 -90z" />
    <glyph glyph-name="odieresis" unicode="&#xf6;" horiz-adv-x="695" 
d="M347 49c66 0 122 23 168 70c47 47 70 104 70 171c0 66 -23 122 -70 169c-46 47 -102 71 -168 71c-65 0 -121 -24 -168 -71c-46 -47 -69 -103 -69 -169c0 -67 23 -124 69 -171c47 -47 103 -70 168 -70zM347 -17c-85 0 -157 30 -217 90s-90 132 -90 217s30 157 90 216
c60 60 132 90 217 90s158 -30 218 -90c60 -59 90 -131 90 -216s-30 -157 -90 -217s-133 -90 -218 -90zM293 723c3 -58 -91 -58 -89 0c0 24 21 44 45 44s44 -20 44 -44zM490 723c0 -25 -19 -45 -43 -45c-25 0 -45 20 -45 45c0 24 20 44 45 44c24 0 43 -20 43 -44z" />
    <glyph glyph-name="divide" unicode="&#xf7;" horiz-adv-x="679" 
d="M391 46c0 -29 -22 -52 -51 -52c-28 0 -51 23 -51 52c0 27 23 50 51 50c29 0 51 -23 51 -50zM289 535c0 29 23 52 51 52c29 0 51 -23 51 -52c0 -28 -22 -51 -51 -51c-28 0 -51 23 -51 51zM75 323h528c44 2 44 -70 0 -67h-528c-43 0 -43 67 0 67z" />
    <glyph glyph-name="oslash" unicode="&#xf8;" horiz-adv-x="703" 
d="M351 -17c-71 0 -134 22 -191 66l-48 -48c-13 -13 -34 -14 -49 1c-13 13 -13 35 0 48l48 48c-45 55 -67 119 -67 192c0 85 30 157 90 216c60 60 132 90 217 90c71 0 135 -22 192 -67l48 48c13 15 35 15 48 0c13 -13 14 -34 1 -49l-48 -48c45 -55 67 -119 67 -190
c0 -85 -30 -157 -90 -217s-133 -90 -218 -90zM114 290c0 -55 15 -103 46 -143l334 334c-45 33 -93 49 -143 49c-65 0 -121 -24 -168 -71c-46 -47 -69 -103 -69 -169zM351 49c66 0 122 23 168 70c47 47 70 104 70 171c0 53 -15 101 -45 142l-335 -334c45 -33 93 -49 142 -49z
" />
    <glyph glyph-name="ugrave" unicode="&#xf9;" horiz-adv-x="614" 
d="M128 553v-339c0 -99 66 -165 163 -165c49 0 93 17 133 51c40 35 61 75 62 122v331c-2 44 70 44 68 0v-527c2 -44 -70 -44 -68 0v86c-9 -30 -33 -59 -70 -87s-79 -42 -125 -42c-71 0 -128 21 -169 64s-62 98 -62 167v339c-2 44 70 44 68 0zM400 667
c-5 -11 -13 -14 -24 -11l-133 34c-17 5 -27 25 -20 42c5 17 25 26 42 19l124 -59c11 -7 15 -15 11 -25z" />
    <glyph glyph-name="uacute" unicode="&#xfa;" horiz-adv-x="614" 
d="M128 553v-339c0 -99 66 -165 163 -165c49 0 93 17 133 51c40 35 61 75 62 122v331c-2 44 70 44 68 0v-527c2 -44 -70 -44 -68 0v86c-9 -30 -33 -59 -70 -87s-79 -42 -125 -42c-71 0 -128 21 -169 64s-62 98 -62 167v339c-2 44 70 44 68 0zM233 665c-4 10 0 18 11 25
l124 59c17 7 37 -2 42 -19c7 -17 -3 -37 -20 -42l-133 -34c-11 -3 -19 0 -24 11z" />
    <glyph glyph-name="ucircumflex" unicode="&#xfb;" horiz-adv-x="614" 
d="M306 794c8 0 18 -6 29 -19c5 -5 16 -17 32 -36l33 -37c13 -15 2 -39 -18 -39c-6 0 -12 3 -19 10l-57 64l-57 -64c-7 -7 -13 -10 -19 -10c-20 0 -31 24 -18 39c49 55 75 85 80 88s9 4 14 4zM128 553v-339c0 -99 66 -165 163 -165c49 0 93 17 133 51c40 35 61 75 62 122
v331c-2 44 70 44 68 0v-527c2 -44 -70 -44 -68 0v86c-9 -30 -33 -59 -70 -87s-79 -42 -125 -42c-71 0 -128 21 -169 64s-62 98 -62 167v339c-2 44 70 44 68 0z" />
    <glyph glyph-name="udieresis" unicode="&#xfc;" horiz-adv-x="614" 
d="M128 553v-339c0 -99 66 -165 163 -165c49 0 93 17 133 51c40 35 61 75 62 122v331c-2 44 70 44 68 0v-527c2 -44 -70 -44 -68 0v86c-9 -30 -33 -59 -70 -87s-79 -42 -125 -42c-71 0 -128 21 -169 64s-62 98 -62 167v339c-2 44 70 44 68 0zM254 723c3 -58 -91 -58 -89 0
c0 24 21 44 45 44s44 -20 44 -44zM451 723c0 -25 -19 -45 -43 -45c-25 0 -45 20 -45 45c0 24 20 44 45 44c24 0 43 -20 43 -44z" />
    <glyph glyph-name="yacute" unicode="&#xfd;" horiz-adv-x="584" 
d="M187 -131l72 155l-240 515c-22 39 45 70 62 29l215 -468l215 468c17 41 84 10 62 -29l-324 -699c-17 -41 -84 -10 -62 29zM222 665c-4 10 0 18 11 25l124 59c17 7 37 -2 42 -19c7 -17 -3 -37 -20 -42l-133 -34c-11 -3 -19 0 -24 11z" />
    <glyph glyph-name="thorn" unicode="&#xfe;" 
d="M60 -144v868c-2 44 70 44 68 0v-262c59 89 138 134 239 134c85 0 157 -30 217 -90c61 -59 91 -131 91 -216s-30 -157 -91 -217c-60 -60 -132 -90 -217 -90c-100 0 -180 45 -239 134v-261c0 -19 -15 -35 -34 -35s-34 16 -34 35zM128 290c0 -67 23 -124 70 -171
s104 -70 169 -70c66 0 122 23 168 70c47 47 70 104 70 171c0 66 -23 122 -70 169c-46 47 -102 71 -168 71c-65 0 -122 -24 -169 -71s-70 -103 -70 -169z" />
    <glyph glyph-name="ydieresis" unicode="&#xff;" horiz-adv-x="584" 
d="M187 -131l72 155l-240 515c-22 39 45 70 62 29l215 -468l215 468c17 41 84 10 62 -29l-324 -699c-17 -41 -84 -10 -62 29zM241 723c3 -58 -91 -58 -89 0c0 24 21 44 45 44s44 -20 44 -44zM438 723c0 -25 -19 -45 -43 -45c-25 0 -45 20 -45 45c0 24 20 44 45 44
c24 0 43 -20 43 -44z" />
    <glyph glyph-name="dotlessi" unicode="&#x131;" horiz-adv-x="189" 
d="M60 26v527c-2 44 70 44 69 0v-527c1 -44 -71 -44 -69 0z" />
    <glyph glyph-name="Lslash" unicode="&#x141;" horiz-adv-x="606" 
d="M375 382l-228 -49v-265h409c44 2 44 -70 0 -68h-443c-19 0 -34 15 -34 34v284l-35 -7c-43 -9 -42 59 0 68l35 7v338c-2 44 70 44 68 0v-323l228 49c44 9 43 -59 0 -68z" />
    <glyph glyph-name="lslash" unicode="&#x142;" horiz-adv-x="236" 
d="M84 26v310l-37 -8c-19 -5 -35 7 -35 26s15 37 34 42l38 8v320c-2 44 70 44 68 0v-304l38 9c44 13 44 -60 1 -68l-39 -9v-326c2 -44 -70 -44 -68 0z" />
    <glyph glyph-name="OE" unicode="&#x152;" horiz-adv-x="1331" 
d="M750 34v129c-34 -55 -80 -98 -137 -131s-119 -49 -186 -49c-109 0 -201 38 -278 115c-76 77 -114 169 -114 277s38 200 114 277c77 77 169 115 278 115c133 0 254 -72 323 -180v129c0 19 15 34 34 34h478c44 2 44 -70 0 -68h-444v-274h375c44 2 44 -70 0 -68h-375v-272
h444c19 -1 34 -17 34 -34c0 -19 -15 -34 -34 -34h-478c-19 0 -34 15 -34 34zM655 144c63 64 95 141 95 231s-32 167 -95 230c-63 64 -139 96 -228 96s-165 -32 -228 -96c-63 -63 -94 -140 -94 -230s31 -167 94 -231c63 -63 139 -95 228 -95s165 32 228 95z" />
    <glyph glyph-name="oe" unicode="&#x153;" horiz-adv-x="1237" 
d="M1197 290c0 -19 -16 -34 -35 -34h-505c9 -59 35 -108 79 -148c44 -39 96 -59 155 -59c79 0 149 39 192 102c7 11 16 17 29 17c28 0 44 -33 29 -54c-24 -37 -59 -69 -104 -94s-94 -37 -146 -37c-116 0 -219 66 -270 166c-52 -100 -157 -166 -274 -166
c-85 0 -157 30 -217 90s-90 132 -90 217s30 157 90 216c60 60 132 90 217 90c117 0 221 -66 273 -166c52 100 155 166 271 166c83 0 155 -30 214 -89c60 -59 91 -132 92 -217zM347 49c67 0 123 23 170 70s70 104 70 171c0 66 -23 122 -70 169s-103 71 -170 71
c-65 0 -121 -24 -168 -71c-46 -47 -69 -103 -69 -169c0 -67 23 -124 69 -171c47 -47 103 -70 168 -70zM657 324h469c-9 58 -35 107 -80 146c-44 40 -96 60 -155 60s-111 -20 -155 -60c-44 -39 -70 -88 -79 -146z" />
    <glyph glyph-name="Scaron" unicode="&#x160;" horiz-adv-x="591" 
d="M40 93c0 19 15 34 34 34c7 0 14 -2 20 -6c61 -48 130 -72 207 -72c51 0 93 15 128 44c35 30 52 66 52 108c0 69 -50 121 -127 142l-129 32c-100 25 -169 99 -169 191c0 56 23 103 68 142s101 59 167 59c79 0 153 -22 220 -65c11 -7 16 -17 16 -29c0 -19 -15 -34 -34 -34
c-9 0 -15 2 -20 6c-58 37 -119 56 -182 56c-47 0 -86 -13 -118 -40c-31 -26 -47 -58 -47 -95c0 -61 47 -106 116 -125l125 -32c109 -28 184 -107 184 -208c0 -61 -24 -112 -73 -155c-48 -42 -107 -63 -177 -63c-93 0 -175 27 -247 82c-9 6 -14 15 -14 28zM296 787
c-8 0 -18 6 -29 19c-5 5 -16 17 -32 36c-13 15 -24 27 -33 37c-13 15 -2 39 18 39c6 0 12 -3 19 -10l57 -64l57 64c7 7 13 10 19 10c20 0 31 -24 18 -39c-49 -55 -75 -85 -80 -88s-9 -4 -14 -4z" />
    <glyph glyph-name="scaron" unicode="&#x161;" horiz-adv-x="547" 
d="M422 490c-57 27 -109 41 -154 41c-87 0 -147 -39 -147 -87c0 -54 37 -86 110 -95l113 -18c96 -13 163 -69 162 -173c-1 -107 -92 -175 -236 -175c-77 0 -149 20 -214 60c-11 7 -16 17 -16 30c0 28 29 44 52 31c64 -37 123 -55 178 -55c103 0 166 44 166 113
c0 57 -39 92 -117 104l-111 18c-89 13 -157 59 -157 158c0 48 21 86 63 113c43 28 94 42 154 42c67 0 129 -16 186 -47c14 -7 21 -17 21 -31c0 -27 -29 -42 -53 -29zM268 663c-8 0 -18 6 -29 19c-5 5 -16 17 -32 36c-13 15 -24 27 -33 37c-13 15 -2 39 18 39
c6 0 12 -3 19 -10l57 -64l57 64c7 7 13 10 19 10c20 0 31 -24 18 -39c-49 -55 -75 -85 -80 -88s-9 -4 -14 -4z" />
    <glyph glyph-name="Ydieresis" unicode="&#x178;" horiz-adv-x="626" 
d="M266 836c3 -58 -91 -58 -89 0c0 24 21 44 45 44s44 -20 44 -44zM463 836c0 -25 -19 -45 -43 -45c-25 0 -44 20 -44 45c0 24 19 44 44 44c24 0 43 -20 43 -44zM614 704l-258 -361v-317c2 -44 -70 -44 -68 0v317l-258 361c-16 21 0 54 28 54c11 0 21 -5 28 -14l236 -332
l236 332c7 9 17 14 28 14c28 0 44 -33 28 -54z" />
    <glyph glyph-name="Zcaron" unicode="&#x17d;" horiz-adv-x="641" 
d="M311 787c-8 0 -18 6 -29 19c-5 5 -16 17 -32 36c-13 15 -24 27 -33 37c-13 15 -2 39 18 39c6 0 12 -3 19 -10l57 -64l57 64c7 7 13 10 19 10c20 0 31 -24 18 -39c-49 -55 -75 -85 -80 -88s-9 -4 -14 -4zM585 0h-529c-19 0 -34 15 -34 34c0 8 3 15 8 22l485 626h-459
c-44 -2 -44 70 0 68h529c19 0 34 -15 34 -34c0 -8 -3 -15 -8 -22l-485 -626h459c44 2 44 -70 0 -68z" />
    <glyph glyph-name="zcaron" unicode="&#x17e;" horiz-adv-x="526" 
d="M266 663c-8 0 -18 6 -29 19c-5 5 -16 17 -32 36c-13 15 -24 27 -33 37c-13 15 -2 39 18 39c6 0 12 -3 19 -10l57 -64l57 64c7 7 13 10 19 10c20 0 31 -24 18 -39c-49 -55 -75 -85 -80 -88s-9 -4 -14 -4zM502 545c0 -8 -3 -15 -8 -22l-363 -455h336c19 0 35 -15 35 -34
s-16 -34 -35 -34h-408c-19 0 -35 15 -35 34c0 8 3 15 8 22l363 455h-336c-19 0 -35 15 -35 34s16 34 35 34h408c19 0 35 -15 35 -34z" />
    <glyph glyph-name="florin" unicode="&#x192;" horiz-adv-x="416" 
d="M15 -138c1 19 19 33 38 33c37 0 73 32 77 71l77 545h-67c-19 0 -33 15 -30 34s20 34 39 34h68l5 34c5 38 23 70 53 97s64 40 101 40c43 0 37 -66 -13 -66c-36 -1 -69 -35 -74 -71l-5 -34h67c19 0 32 -15 29 -34c-1 -19 -19 -34 -38 -34h-67l-77 -545
c-5 -37 -22 -68 -52 -95c-29 -27 -62 -41 -98 -42c-23 0 -36 14 -33 33z" />
    <glyph glyph-name="circumflex" unicode="&#x2c6;" horiz-adv-x="401" 
d="M206 794c8 0 18 -6 29 -19c5 -5 16 -17 32 -36l33 -37c13 -15 2 -39 -18 -39c-6 0 -12 3 -19 10l-57 64l-57 -64c-7 -7 -13 -10 -19 -10c-20 0 -31 24 -18 39c49 55 75 85 80 88s9 4 14 4z" />
    <glyph glyph-name="caron" unicode="&#x2c7;" horiz-adv-x="401" 
d="M206 663c-8 0 -18 6 -29 19c-5 5 -16 17 -32 36c-13 15 -24 27 -33 37c-13 15 -2 39 18 39c6 0 12 -3 19 -10l57 -64l57 64c7 7 13 10 19 10c20 0 31 -24 18 -39c-49 -55 -75 -85 -80 -88s-9 -4 -14 -4z" />
    <glyph glyph-name="breve" unicode="&#x2d8;" horiz-adv-x="292" 
d="M238 743c0 -16 -10 -32 -30 -47c-19 -15 -40 -23 -62 -23s-43 8 -63 23c-19 15 -29 31 -29 47c0 15 10 25 25 25c30 0 22 -46 67 -46c15 0 28 8 38 23c11 15 20 23 29 23c15 0 25 -10 25 -25z" />
    <glyph glyph-name="dotaccent" unicode="&#x2d9;" horiz-adv-x="235" 
d="M175 731c0 -32 -27 -58 -58 -58s-57 26 -57 58c0 31 26 57 57 57s58 -26 58 -57z" />
    <glyph glyph-name="ring" unicode="&#x2da;" horiz-adv-x="348" 
d="M174 696c39 0 39 61 0 61c-40 0 -41 -61 0 -61zM248 727c0 -41 -34 -75 -74 -75s-74 34 -74 75c0 40 34 73 74 73s74 -33 74 -73z" />
    <glyph glyph-name="ogonek" unicode="&#x2db;" horiz-adv-x="300" 
d="M188 -119c8 0 16 2 24 5c25 12 54 -1 54 -29c0 -32 -39 -45 -78 -45c-35 0 -66 13 -91 38s-37 55 -37 90c0 20 5 40 15 60h106c-31 -4 -53 -29 -53 -60c0 -33 27 -59 60 -59z" />
    <glyph glyph-name="tilde" unicode="&#x2dc;" horiz-adv-x="426" 
d="M100 696c1 40 31 71 70 71c25 0 46 -12 61 -36c10 -11 19 -17 26 -17c16 0 29 14 29 31c0 26 40 26 40 0c-1 -40 -32 -71 -69 -71c-25 0 -45 12 -60 36c-11 12 -20 18 -27 18c-17 0 -30 -15 -30 -32c0 -26 -40 -26 -40 0z" />
    <glyph glyph-name="hungarumlaut" unicode="&#x2dd;" horiz-adv-x="272" 
d="M160 646c-13 5 -20 21 -15 36l24 58c7 17 19 22 36 16c13 -5 20 -21 15 -36l-24 -58c-7 -17 -19 -22 -36 -16zM75 646c-13 5 -20 21 -15 36l24 58c7 17 19 22 36 16c13 -5 20 -21 15 -36l-24 -58c-7 -17 -19 -22 -36 -16z" />
    <glyph glyph-name="Omega" unicode="&#x3a9;" horiz-adv-x="863" 
d="M823 375c0 -135 -68 -242 -167 -307h151v-68h-260c-1 0 -2 0 -2 -1v71c62 23 112 63 150 118c39 56 58 118 58 187c0 90 -31 167 -94 230c-62 64 -138 96 -227 96s-165 -32 -228 -96s-94 -141 -94 -230c0 -69 19 -131 58 -187c39 -55 89 -95 152 -118v-71c-1 1 -2 1 -3 1
h-260v68h151c-100 65 -168 171 -168 307c0 108 38 200 114 277c77 77 169 115 278 115c108 0 200 -38 276 -115c77 -77 115 -169 115 -277z" />
    <glyph glyph-name="pi" unicode="&#x3c0;" horiz-adv-x="620" 
d="M455 544l145 2v-69c-35 -1 -78 -1 -128 -2v-475h-68v472c-60 -1 -123 -3 -190 -8c-13 -309 -23 -464 -28 -464h-67c5 0 14 153 27 459c-79 -8 -121 -18 -126 -29v71c0 12 48 22 145 29c97 8 193 13 290 14z" />
    <glyph glyph-name="endash" unicode="&#x2013;" horiz-adv-x="584" 
d="M72 322h441c43 0 43 -67 0 -67h-441c-44 -2 -44 70 0 67z" />
    <glyph glyph-name="emdash" unicode="&#x2014;" horiz-adv-x="840" 
d="M72 322h697c43 0 43 -67 0 -67h-697c-44 -2 -44 70 0 67z" />
    <glyph glyph-name="quoteleft" unicode="&#x2018;" horiz-adv-x="202" 
d="M126 717c-17 0 -34 -21 -34 -42v-22c2 1 5 2 9 2c29 0 51 -23 51 -52c0 -28 -22 -51 -51 -51c-28 0 -51 23 -51 51v67c0 47 32 86 76 87c13 0 20 -7 20 -20s-7 -20 -20 -20z" />
    <glyph glyph-name="quoteright" unicode="&#x2019;" horiz-adv-x="202" 
d="M76 592c17 0 34 21 34 42v22c-2 -1 -5 -2 -9 -2c-29 0 -51 23 -51 52c0 28 22 51 51 51c28 0 51 -23 51 -51v-67c0 -47 -32 -86 -76 -87c-13 0 -20 7 -20 20s7 20 20 20z" />
    <glyph glyph-name="quotesinglbase" unicode="&#x201a;" horiz-adv-x="202" 
d="M76 -70c17 0 34 21 34 42v22c-2 -1 -5 -2 -9 -2c-29 0 -51 23 -51 52c0 28 22 51 51 51c28 0 51 -23 51 -51v-67c0 -47 -32 -86 -76 -87c-13 0 -20 7 -20 20s7 20 20 20z" />
    <glyph glyph-name="quotedblleft" unicode="&#x201c;" horiz-adv-x="304" 
d="M126 717c-17 0 -34 -21 -34 -42v-22c2 1 5 2 9 2c29 0 51 -23 51 -52c0 -28 -22 -51 -51 -51c-28 0 -51 23 -51 51v67c0 47 32 86 76 87c13 0 20 -7 20 -20s-7 -20 -20 -20zM248 717c-17 0 -34 -21 -34 -42v-22c2 1 5 2 9 2c29 0 51 -23 51 -52c0 -28 -22 -51 -51 -51
c-28 0 -51 23 -51 51v67c0 47 32 86 76 87c13 0 20 -7 20 -20s-7 -20 -20 -20z" />
    <glyph glyph-name="quotedblright" unicode="&#x201d;" horiz-adv-x="304" 
d="M178 592c17 0 34 21 34 42v22c-2 -1 -5 -2 -9 -2c-29 0 -51 23 -51 52c0 28 22 51 51 51c28 0 51 -23 51 -51v-67c0 -47 -32 -86 -76 -87c-13 0 -20 7 -20 20s7 20 20 20zM56 592c17 0 34 21 34 42v22c-2 -1 -5 -2 -9 -2c-29 0 -51 23 -51 52c0 28 22 51 51 51
c28 0 51 -23 51 -51v-67c0 -47 -32 -86 -76 -87c-13 0 -20 7 -20 20s7 20 20 20z" />
    <glyph glyph-name="quotedblbase" unicode="&#x201e;" horiz-adv-x="304" 
d="M56 -70c17 0 34 21 34 42v22c-2 -1 -5 -2 -9 -2c-29 0 -51 23 -51 52c0 28 22 51 51 51c28 0 51 -23 51 -51v-67c0 -47 -32 -86 -76 -87c-13 0 -20 7 -20 20s7 20 20 20zM178 -70c17 0 34 21 34 42v22c-2 -1 -5 -2 -9 -2c-29 0 -51 23 -51 52c0 28 22 51 51 51
c28 0 51 -23 51 -51v-67c0 -47 -32 -86 -76 -87c-13 0 -20 7 -20 20s7 20 20 20z" />
    <glyph glyph-name="dagger" unicode="&#x2020;" horiz-adv-x="540" 
d="M248 -70v601h-172c-31 0 -31 48 0 48h172v155c0 31 48 31 48 0v-155h168c31 0 31 -48 0 -48h-168v-601c0 -31 -48 -31 -48 0z" />
    <glyph glyph-name="daggerdbl" unicode="&#x2021;" horiz-adv-x="540" 
d="M76 133h172v398h-172c-31 0 -31 48 0 48h172v155c0 31 48 31 48 0v-155h168c31 0 31 -48 0 -48h-168v-398h168c31 0 31 -48 0 -48h-168v-155c0 -31 -48 -31 -48 0v155h-172c-31 0 -31 48 0 48z" />
    <glyph glyph-name="bullet" unicode="&#x2022;" horiz-adv-x="404" 
d="M202 188c-56 0 -102 45 -102 102c0 56 46 102 102 102c57 0 102 -46 102 -102c0 -57 -45 -102 -102 -102z" />
    <glyph glyph-name="ellipsis" unicode="&#x2026;" horiz-adv-x="775" 
d="M683 94c29 0 52 -23 52 -51s-23 -51 -52 -51c-27 0 -50 23 -50 51s23 51 50 51zM388 94c28 0 51 -23 51 -51s-23 -51 -51 -51c-66 -3 -66 105 0 102zM92 94c28 0 51 -23 51 -51s-23 -51 -51 -51c-29 0 -52 23 -52 51s23 51 52 51z" />
    <glyph glyph-name="perthousand" unicode="&#x2030;" horiz-adv-x="908" 
d="M150 -8c-20 0 -32 19 -23 40l251 605c-29 -5 -37 -5 -64 0v-7c0 -37 -14 -69 -41 -96s-59 -40 -96 -40s-70 13 -97 40s-40 59 -40 96c0 38 13 70 40 97s60 40 97 40c43 0 78 -16 105 -49c15 -20 36 -30 63 -30c33 0 64 21 76 50l2 5c3 10 11 15 24 15c20 0 32 -18 25 -37
l-297 -713c-5 -11 -13 -16 -25 -16zM325 22c-27 27 -40 59 -40 97s13 70 40 96c27 27 59 40 97 40s70 -13 97 -40c27 -26 40 -58 40 -96s-13 -70 -40 -97c-27 -26 -59 -39 -97 -39s-70 13 -97 39zM364 177c-31 -32 -31 -84 0 -116c32 -32 84 -32 115 0c32 32 32 84 0 116
c-31 32 -83 32 -115 0zM234 572c32 32 32 84 0 116c-31 33 -83 33 -115 0c-31 -32 -31 -84 0 -116c32 -32 84 -32 115 0zM634 22c-27 27 -40 59 -40 97s13 70 40 96c27 27 59 40 97 40s70 -13 97 -40c27 -26 40 -58 40 -96s-13 -70 -40 -97c-27 -26 -59 -39 -97 -39
s-70 13 -97 39zM673 177c-31 -32 -31 -84 0 -116c32 -32 84 -32 115 0c32 32 32 84 0 116c-31 32 -83 32 -115 0z" />
    <glyph glyph-name="guilsinglleft" unicode="&#x2039;" horiz-adv-x="261" 
d="M32 290c0 10 4 19 12 28c9 9 32 31 70 64c23 20 41 36 56 49c11 11 24 13 38 6s21 -18 21 -33c0 -8 -5 -18 -15 -29l-99 -85l99 -86c10 -9 15 -18 15 -28c0 -15 -7 -25 -21 -32s-27 -5 -38 5c-79 70 -122 108 -127 114c-7 9 -11 18 -11 27z" />
    <glyph glyph-name="guilsinglright" unicode="&#x203a;" horiz-adv-x="261" 
d="M229 290c0 -10 -4 -20 -13 -29c-8 -9 -31 -30 -69 -63c-23 -20 -41 -36 -56 -49c-11 -10 -24 -12 -38 -5s-21 17 -21 32c0 10 5 19 15 28l99 86l-99 85c-10 11 -15 21 -15 29c0 15 7 26 21 33s27 5 38 -6c79 -70 122 -108 127 -114c7 -9 11 -18 11 -27z" />
    <glyph glyph-name="fraction" unicode="&#x2044;" horiz-adv-x="497" 
d="M89 13l304 736c5 9 12 12 21 8c10 -4 13 -11 8 -20l-304 -736c-5 -9 -12 -12 -20 -9c-11 4 -14 11 -9 21z" />
    <glyph glyph-name="Euro" unicode="&#x20ac;" horiz-adv-x="724" 
d="M61 340h61c0 1 -3 26 -3 35c0 1 1 12 3 34h-61c-44 -2 -44 70 0 68h70c19 87 54 157 106 210c53 53 119 80 198 80c96 0 176 -46 240 -139c19 -21 7 -56 -25 -56c-13 0 -22 5 -29 16c-49 75 -111 113 -186 113c-123 0 -199 -87 -234 -224h387c44 2 44 -70 0 -68h-398
c-3 -15 -3 -53 0 -69h313c44 2 44 -70 0 -68h-302c33 -137 111 -223 234 -223c75 0 137 38 186 113c7 11 16 16 29 16c32 0 44 -35 25 -56c-64 -93 -144 -139 -240 -139c-79 0 -145 26 -198 79c-52 53 -87 123 -106 210h-70c-44 -2 -44 70 0 68z" />
    <glyph glyph-name="trademark" unicode="&#x2122;" horiz-adv-x="361" 
d="M307 750h14v-150h-14v118l-54 -118h-13l-55 118v-118h-14v150h14l61 -132zM158 750v-14h-52v-136h-14v136h-52v14h118z" />
    <glyph glyph-name="partialdiff" unicode="&#x2202;" horiz-adv-x="676" 
d="M636 299c0 -91 -29 -167 -87 -227c-57 -59 -128 -89 -211 -89s-153 29 -211 87s-87 128 -87 211c0 77 29 143 87 198s128 83 211 83c92 0 177 -54 220 -138l1 1l1 1c-19 82 -48 148 -89 198c-40 51 -90 76 -150 76c-50 0 -97 -25 -142 -74l-54 38c57 68 123 102 196 102
c95 0 171 -45 228 -134c58 -89 87 -200 87 -333zM566 281c0 59 -22 109 -67 151c-44 43 -98 64 -161 64s-116 -21 -161 -64c-45 -42 -67 -92 -67 -151c0 -64 22 -119 67 -164s98 -68 161 -68s117 23 161 68c45 45 67 100 67 164z" />
    <glyph glyph-name="increment" unicode="&#x2206;" horiz-adv-x="592" 
d="M572 0h-552l241 750h69zM295 633l-181 -565h364z" />
    <glyph glyph-name="product" unicode="&#x220f;" horiz-adv-x="620" 
d="M600 750v-68h-128v-682h-68v682h-187v-682h-68v682h-129v68h580z" />
    <glyph glyph-name="summation" unicode="&#x2211;" horiz-adv-x="551" 
d="M424 375l-307 -307h414v-68h-511v68l307 307l-307 307v68h511v-68h-414z" />
    <glyph glyph-name="minus" unicode="&#x2212;" horiz-adv-x="679" 
d="M75 323h528c44 2 44 -70 0 -67h-528c-43 0 -43 67 0 67z" />
    <glyph glyph-name="radical" unicode="&#x221a;" horiz-adv-x="588" 
d="M75 267h66l71 -181l273 664h73l-311 -750h-69l-71 181l-15 -42l-62 27z" />
    <glyph glyph-name="infinity" unicode="&#x221e;" horiz-adv-x="539" 
d="M50 290c0 60 51 108 111 108c31 0 58 -11 79 -32l30 -33l30 33c21 21 48 32 79 32c61 0 110 -47 110 -108s-49 -108 -110 -108c-33 0 -59 11 -79 32l-30 33l-30 -33c-20 -21 -46 -32 -79 -32c-61 0 -111 47 -111 108zM161 248c13 0 23 4 30 12l31 30l-31 30
c-8 8 -18 12 -30 12c-23 0 -42 -18 -42 -42s19 -42 42 -42zM349 320l-30 -30l30 -30c7 -8 17 -12 30 -12c23 0 42 18 42 42s-19 42 -42 42c-12 0 -22 -4 -30 -12z" />
    <glyph glyph-name="integral" unicode="&#x222b;" horiz-adv-x="296" 
d="M20 -171v66h27c37 0 67 32 67 71v647c0 38 13 70 40 97s59 40 97 40h25v-66h-25c-37 0 -69 -32 -69 -71v-647c0 -37 -13 -69 -40 -96s-58 -41 -95 -41h-27z" />
    <glyph glyph-name="approxequal" unicode="&#x2248;" horiz-adv-x="680" 
d="M72 179l-22 -8v67c11 4 24 11 77 24s97 19 149 8c27 -5 48 -16 64 -32s37 -27 62 -33c73 -15 165 9 206 25l22 8v-67c-11 -4 -24 -11 -77 -24s-97 -20 -149 -9c-26 6 -47 17 -63 33s-37 27 -63 32c-71 17 -166 -9 -206 -24zM72 348l-22 -8v69c11 4 24 11 77 24
s97 19 149 8c27 -5 48 -16 64 -32s37 -27 62 -33c75 -17 163 11 206 24l22 9v-69c-11 -4 -24 -11 -77 -24s-97 -19 -149 -8c-26 5 -47 16 -63 32s-37 27 -63 33c-71 17 -166 -8 -206 -25z" />
    <glyph glyph-name="notequal" unicode="&#x2260;" horiz-adv-x="680" 
d="M76 239h166l102 102h-268c-44 -2 -44 70 0 67h337l90 92c13 13 35 13 48 0c15 -16 15 -32 -1 -48l-42 -44h96c44 3 44 -69 0 -67h-165l-102 -102h267c44 2 44 -70 0 -67h-334l-94 -94c-13 -13 -33 -13 -46 0c-16 16 -16 32 -1 48l46 46h-99c-44 -3 -44 69 0 67z" />
    <glyph glyph-name="lessequal" unicode="&#x2264;" horiz-adv-x="423" 
d="M128 392l244 -131c17 -9 24 -30 13 -46c-9 -16 -29 -23 -46 -15l-288 160c-25 13 -25 51 0 64l288 160c17 8 37 1 46 -15c11 -16 4 -37 -13 -46zM66 67h290c44 2 44 -70 0 -67h-290c-44 -3 -44 69 0 67z" />
    <glyph glyph-name="greaterequal" unicode="&#x2265;" horiz-adv-x="423" 
d="M54 261l244 131l-244 131c-17 9 -24 30 -13 46c9 16 29 23 46 15l288 -160c25 -13 25 -51 0 -64l-288 -160c-17 -8 -37 -1 -46 15c-11 16 -4 37 13 46zM360 0h-290c-44 -3 -44 69 0 67h290c44 2 44 -70 0 -67z" />
    <glyph glyph-name="lozenge" unicode="&#x25ca;" horiz-adv-x="557" 
d="M40 375l204 375h69l204 -375l-204 -375h-69zM439 375l-160 305l-161 -305l161 -306z" />
    <glyph glyph-name="uniF8FF" unicode="&#xf8ff;" horiz-adv-x="500" 
 />
    <glyph glyph-name="fi" unicode="&#xfb01;" horiz-adv-x="524" 
d="M397 26v485h-241v-485c2 -44 -70 -44 -68 0v485h-42c-44 -2 -44 70 0 68h42v56c0 83 57 132 136 132c33 0 62 -10 88 -31c8 -7 12 -15 12 -26c0 -19 -15 -34 -34 -34c-8 0 -15 3 -22 8c-13 11 -28 17 -44 17c-45 0 -68 -22 -68 -66v-56h274c19 0 35 -15 35 -34v-519
c1 -44 -71 -44 -68 0zM430 678c-24 0 -45 20 -45 44s21 45 45 45s44 -21 44 -45s-19 -44 -44 -44z" />
    <glyph glyph-name="fl" unicode="&#xfb02;" horiz-adv-x="517" 
d="M389 26v656h-166c-45 0 -68 -21 -68 -64v-39h94c44 2 44 -70 0 -68h-93v-485c2 -44 -70 -44 -68 0v485h-42c-44 -2 -44 70 0 68h42v39c0 83 58 132 135 132h200c19 0 34 -15 34 -34v-690c1 -44 -71 -44 -68 0z" />
    <glyph glyph-name="Publisher" horiz-adv-x="693" 
d="M653 290c0 -85 -30 -158 -90 -218c-59 -59 -132 -89 -217 -89s-157 30 -217 90c-59 60 -89 132 -89 217s30 157 89 216c60 60 132 90 217 90s157 -30 217 -90c60 -59 90 -131 90 -216zM346 560c-75 0 -138 -26 -191 -79s-79 -116 -79 -191s26 -139 79 -192
s116 -79 191 -79s139 26 192 79s79 117 79 192s-26 138 -79 191s-117 79 -192 79zM215 121v329c0 17 16 30 36 30h129c37 0 68 -12 93 -37c26 -24 39 -54 39 -91c0 -36 -13 -66 -39 -91c-25 -25 -56 -37 -93 -37h-121v-103c0 -26 -44 -26 -44 0zM384 435h-125v-165h125
c44 0 83 37 83 82s-39 83 -83 83z" />
    <glyph glyph-name="tt" horiz-adv-x="596" 
d="M46 579h42v104c0 19 15 35 34 35s34 -16 34 -35v-104h232v104c0 19 15 35 34 35s34 -16 34 -35v-104h93c44 2 44 -70 0 -68h-93v-375c0 -45 28 -68 68 -68h25c19 0 35 -15 35 -34s-16 -34 -35 -34h-25c-77 0 -136 53 -136 136v375h-232v-375c0 -45 28 -68 68 -68h25
c19 0 35 -15 35 -34s-16 -34 -35 -34h-25c-77 0 -136 53 -136 136v375h-42c-44 -2 -44 70 0 68z" />
    <glyph glyph-name="ft" horiz-adv-x="596" 
d="M46 579h42v56c0 83 57 132 136 132c33 0 62 -10 88 -31c8 -7 12 -15 12 -26c0 -19 -15 -34 -34 -34c-8 0 -15 3 -22 8c-13 11 -28 17 -44 17c-45 0 -68 -22 -68 -66v-56h232v104c0 19 15 35 34 35s34 -16 34 -35v-104h93c44 2 44 -70 0 -68h-93v-375c0 -45 28 -68 68 -68
h25c19 0 35 -15 35 -34s-16 -34 -35 -34h-25c-77 0 -136 53 -136 136v375h-232v-485c2 -44 -70 -44 -68 0v485h-42c-44 -2 -44 70 0 68z" />
    <glyph glyph-name="ffi" horiz-adv-x="833" 
d="M46 579h42v56c0 83 57 132 136 132c33 0 62 -10 88 -31c8 -7 12 -15 12 -26c0 -19 -15 -34 -34 -34c-8 0 -15 3 -22 8c-13 11 -28 17 -44 17c-45 0 -68 -22 -68 -66v-56h240v56c0 83 57 132 136 132c33 0 62 -10 88 -31c8 -7 12 -15 12 -26c0 -19 -15 -34 -34 -34
c-8 0 -15 3 -22 8c-13 11 -28 17 -44 17c-45 0 -68 -22 -68 -66v-56h275c19 0 34 -15 34 -34v-519c2 -44 -70 -44 -68 0v485h-241v-485c2 -44 -70 -44 -68 0v485h-240v-485c2 -44 -70 -44 -68 0v485h-42c-44 -2 -44 70 0 68zM738 678c-24 0 -45 20 -45 44s21 45 45 45
s44 -21 44 -45s-19 -44 -44 -44z" />
    <glyph glyph-name="ffl" horiz-adv-x="816" 
d="M46 579h42v56c0 83 57 132 136 132c33 0 62 -10 88 -31c8 -7 12 -15 12 -26c0 -19 -15 -34 -34 -34c-8 0 -15 3 -22 8c-13 11 -28 17 -44 17c-45 0 -68 -22 -68 -66v-56h231v39c0 83 58 132 135 132h200c19 0 34 -15 34 -34v-690c2 -44 -70 -44 -68 0v656h-166
c-45 0 -68 -21 -68 -64v-39h1h93c44 2 44 -70 0 -68h-93v-485c2 -44 -70 -44 -68 0v485h-231v-485c2 -44 -70 -44 -68 0v485h-42c-44 -2 -44 70 0 68z" />
    <glyph glyph-name="_0000" horiz-adv-x="501" 
 />
    <glyph glyph-name="Abreve" unicode="&#x102;" horiz-adv-x="690" 
d="M604 12l-63 157h-392l-63 -157c-6 -13 -17 -20 -32 -20c-20 0 -34 14 -34 33c0 5 1 10 3 14l291 699c5 13 16 20 31 20s26 -7 31 -20l291 -699c2 -4 3 -9 3 -14c0 -19 -14 -33 -34 -33c-15 0 -26 7 -32 20zM345 637l-167 -401h334zM437 855c0 -16 -10 -32 -30 -47
c-19 -15 -40 -23 -62 -23s-43 8 -63 23c-19 15 -29 31 -29 47c0 15 10 25 25 25c30 0 22 -46 67 -46c15 0 28 8 38 23c11 15 20 23 29 23c15 0 25 -10 25 -25z" />
    <glyph glyph-name="abreve" unicode="&#x103;" 
d="M587 26v91c-59 -89 -139 -134 -239 -134c-85 0 -157 30 -218 90c-60 60 -90 132 -90 217s30 157 90 216c61 60 133 90 218 90c101 0 180 -45 239 -134v91c-2 44 70 44 68 0v-527c2 -44 -70 -44 -68 0zM587 290c0 66 -24 122 -71 169s-103 71 -168 71
c-66 0 -122 -24 -169 -71c-46 -47 -69 -103 -69 -169c0 -67 23 -124 69 -171c47 -47 103 -70 169 -70c65 0 121 23 168 70s71 104 71 171zM459 724c0 -16 -10 -32 -30 -47c-19 -15 -40 -23 -62 -23s-43 8 -63 23c-19 15 -29 31 -29 47c0 15 10 25 25 25c30 0 22 -46 67 -46
c15 0 28 8 38 23c11 15 20 23 29 23c15 0 25 -10 25 -25z" />
    <glyph glyph-name="Itilde" unicode="&#x128;" horiz-adv-x="188" 
d="M88 26v698c-2 44 70 44 68 0v-698c2 -44 -70 -44 -68 0zM9 811c1 40 31 71 70 71c25 0 46 -12 61 -36c10 -11 19 -17 26 -17c16 0 29 14 29 31c0 26 40 26 40 0c-1 -40 -32 -71 -69 -71c-25 0 -45 12 -60 36c-11 12 -20 18 -27 18c-17 0 -30 -15 -30 -32
c0 -26 -40 -26 -40 0z" />
    <glyph glyph-name="itilde" unicode="&#x129;" horiz-adv-x="188" 
d="M92 26v527c-2 44 70 44 69 0v-527c1 -44 -71 -44 -69 0zM14 680c1 40 31 71 70 71c25 0 46 -12 61 -36c10 -11 19 -17 26 -17c16 0 29 14 29 31c0 26 40 26 40 0c-1 -40 -32 -71 -69 -71c-25 0 -45 12 -60 36c-11 12 -20 18 -27 18c-17 0 -30 -15 -30 -32
c0 -26 -40 -26 -40 0z" />
    <glyph glyph-name="Utilde" unicode="&#x168;" horiz-adv-x="699" 
d="M571 273v451c-2 44 70 44 68 0v-451c0 -80 -28 -148 -85 -205s-125 -85 -204 -85c-80 0 -148 28 -205 85s-85 125 -85 205v451c-2 44 70 44 68 0v-451c0 -61 22 -114 65 -158s96 -66 157 -66s113 22 156 66s65 97 65 158zM236 811c1 40 31 71 70 71c25 0 46 -12 61 -36
c10 -11 19 -17 26 -17c16 0 29 14 29 31c0 26 40 26 40 0c-1 -40 -32 -71 -69 -71c-25 0 -45 12 -60 36c-11 12 -20 18 -27 18c-17 0 -30 -15 -30 -32c0 -26 -40 -26 -40 0z" />
    <glyph glyph-name="utilde" unicode="&#x169;" horiz-adv-x="614" 
d="M128 553v-339c0 -99 66 -165 163 -165c49 0 93 17 133 51c40 35 61 75 62 122v331c-2 44 70 44 68 0v-527c2 -44 -70 -44 -68 0v86c-9 -30 -33 -59 -70 -87s-79 -42 -125 -42c-71 0 -128 21 -169 64s-62 98 -62 167v339c-2 44 70 44 68 0zM194 680c1 40 31 71 70 71
c25 0 46 -12 61 -36c10 -11 19 -17 26 -17c16 0 29 14 29 31c0 26 40 26 40 0c-1 -40 -32 -71 -69 -71c-25 0 -45 12 -60 36c-11 12 -20 18 -27 18c-17 0 -30 -15 -30 -32c0 -26 -40 -26 -40 0z" />
    <glyph glyph-name="Ohorn" unicode="&#x1a0;" horiz-adv-x="854" 
d="M427 -17c-109 0 -201 38 -278 115c-76 77 -114 169 -114 277s38 200 114 277c77 77 169 115 278 115c108 0 200 -38 277 -115l6 -6c47 0 53 53 53 80c0 41 65 41 65 0c-1 -50 -20 -112 -75 -133c44 -64 66 -137 66 -218c0 -108 -38 -200 -115 -277s-169 -115 -277 -115z
M655 144c63 64 94 141 94 231s-31 167 -94 230c-63 64 -139 96 -228 96s-165 -32 -228 -96c-63 -63 -94 -140 -94 -230s31 -167 94 -231c63 -63 139 -95 228 -95s165 32 228 95z" />
    <glyph glyph-name="ohorn" unicode="&#x1a1;" horiz-adv-x="695" 
d="M347 -17c-85 0 -157 30 -217 90s-90 132 -90 217s30 157 90 216c60 60 132 90 217 90s158 -30 218 -90c10 -10 19 -20 27 -30c39 6 44 54 44 79c0 41 65 41 65 0c-1 -50 -21 -112 -75 -133c19 -40 29 -84 29 -132c0 -85 -30 -157 -90 -217s-133 -90 -218 -90zM347 49
c66 0 122 23 168 70c47 47 70 104 70 171c0 66 -23 122 -70 169c-46 47 -102 71 -168 71c-65 0 -121 -24 -168 -71c-46 -47 -69 -103 -69 -169c0 -67 23 -124 69 -171c47 -47 103 -70 168 -70z" />
    <glyph glyph-name="Uhorn" unicode="&#x1af;" horiz-adv-x="699" 
d="M571 273v451c-2 44 70 44 68 0v-82h9c47 0 53 57 53 84c0 41 65 41 65 0c-1 -61 -30 -145 -118 -145h-9v-308c0 -80 -28 -148 -85 -205s-125 -85 -204 -85c-80 0 -148 28 -205 85s-85 125 -85 205v451c-2 44 70 44 68 0v-451c0 -61 22 -114 65 -158s96 -66 157 -66
s113 22 156 66s65 97 65 158z" />
    <glyph glyph-name="uhorn" unicode="&#x1b0;" horiz-adv-x="614" 
d="M128 553v-339c0 -99 66 -165 163 -165c49 0 93 17 133 51c40 35 61 75 62 122v331c-2 44 70 44 68 0v-82h8c47 0 53 57 53 84c0 41 65 41 65 0c-1 -61 -30 -145 -118 -145h-8v-384c2 -44 -70 -44 -68 0v86c-9 -30 -33 -59 -70 -87s-79 -42 -125 -42
c-71 0 -128 21 -169 64s-62 98 -62 167v339c-2 44 70 44 68 0z" />
    <glyph glyph-name="dcroat" unicode="&#x111;" 
d="M450 676h137v48c-2 44 70 44 68 0v-48h67c44 2 44 -70 0 -67h-67v-583c2 -44 -70 -44 -68 0v91c-59 -89 -139 -134 -238 -134c-85 0 -157 30 -218 90c-60 60 -90 132 -90 217s30 157 90 216c61 60 133 90 218 90c100 0 179 -45 238 -134v147h-137c-43 0 -43 67 0 67z
M587 290c0 66 -23 122 -70 169s-103 71 -168 71c-66 0 -122 -24 -169 -71c-46 -47 -69 -103 -69 -169c0 -67 23 -124 69 -171c47 -47 103 -70 169 -70c65 0 121 23 168 70s70 104 70 171z" />
    <glyph glyph-name="Dcroat" unicode="&#x110;" horiz-adv-x="726" 
d="M-8 424h68v292c0 19 15 34 34 34h222c103 0 192 -37 265 -110s110 -162 110 -265s-37 -192 -110 -265s-162 -110 -265 -110h-222c-19 0 -34 15 -34 34v323h-68c-43 0 -43 67 0 67zM621 375c0 85 -30 158 -89 217c-59 60 -131 90 -216 90h-188v-258h136c44 2 44 -70 0 -67
h-136v-289h188c85 0 157 30 216 90s89 132 89 217z" />
    <glyph glyph-name="gravecomb" unicode="&#x300;" horiz-adv-x="351" 
d="M269 684c-5 -11 -13 -14 -24 -11l-133 34c-17 5 -27 25 -20 42c5 17 25 26 42 19l124 -59c11 -7 15 -15 11 -25z" />
    <glyph glyph-name="acutecomb" unicode="&#x301;" horiz-adv-x="351" 
d="M93 684c-4 10 0 18 11 25l124 59c17 7 37 -2 42 -19c7 -17 -3 -37 -20 -42l-133 -34c-11 -3 -19 0 -24 11z" />
    <glyph glyph-name="uni0302" unicode="&#x302;" horiz-adv-x="401" 
d="M206 794c8 0 18 -6 29 -19c5 -5 16 -17 32 -36l33 -37c13 -15 2 -39 -18 -39c-6 0 -12 3 -19 10l-57 64l-57 -64c-7 -7 -13 -10 -19 -10c-20 0 -31 24 -18 39c49 55 75 85 80 88s9 4 14 4z" />
    <glyph glyph-name="tildecomb" unicode="&#x303;" horiz-adv-x="426" 
d="M100 696c1 40 31 71 70 71c25 0 46 -12 61 -36c10 -11 19 -17 26 -17c16 0 29 14 29 31c0 26 40 26 40 0c-1 -40 -32 -71 -69 -71c-25 0 -45 12 -60 36c-11 12 -20 18 -27 18c-17 0 -30 -15 -30 -32c0 -26 -40 -26 -40 0z" />
    <glyph glyph-name="uni0306" unicode="&#x306;" horiz-adv-x="292" 
d="M238 743c0 -16 -10 -32 -30 -47c-19 -15 -40 -23 -62 -23s-43 8 -63 23c-19 15 -29 31 -29 47c0 15 10 25 25 25c30 0 22 -46 67 -46c15 0 28 8 38 23c11 15 20 23 29 23c15 0 25 -10 25 -25z" />
    <glyph glyph-name="hookabovecomb" unicode="&#x309;" horiz-adv-x="166" 
d="M122 693c-9 -8 -26 -16 -25 -26c1 -16 -44 -22 -39 6c2 22 21 40 43 54c11 10 17 19 17 26c0 11 -1 27 -30 34c-31 7 -42 -18 -44 -28c-4 -25 -43 -19 -39 6c4 22 28 62 76 60c78 -3 77 -55 77 -72c0 -25 -12 -45 -36 -60z" />
    <glyph glyph-name="dotbelowcomb" unicode="&#x323;" horiz-adv-x="235" 
d="M175 -99c0 -32 -27 -58 -58 -58s-57 26 -57 58c0 31 26 57 57 57s58 -26 58 -57z" />
    <glyph glyph-name="uni1EA0" unicode="&#x1ea0;" horiz-adv-x="690" 
d="M604 12l-63 157h-392l-63 -157c-6 -13 -17 -20 -32 -20c-20 0 -34 14 -34 33c0 5 1 10 3 14l291 699c5 13 16 20 31 20s26 -7 31 -20l291 -699c2 -4 3 -9 3 -14c0 -19 -14 -33 -34 -33c-15 0 -26 7 -32 20zM345 637l-167 -401h334zM402 -99c0 -32 -27 -58 -58 -58
s-57 26 -57 58c0 31 26 57 57 57s58 -26 58 -57z" />
    <glyph glyph-name="uni1EA1" unicode="&#x1ea1;" 
d="M587 26v91c-59 -89 -139 -134 -239 -134c-85 0 -157 30 -218 90c-60 60 -90 132 -90 217s30 157 90 216c61 60 133 90 218 90c101 0 180 -45 239 -134v91c-2 44 70 44 68 0v-527c2 -44 -70 -44 -68 0zM587 290c0 66 -24 122 -71 169s-103 71 -168 71
c-66 0 -122 -24 -169 -71c-46 -47 -69 -103 -69 -169c0 -67 23 -124 69 -171c47 -47 103 -70 169 -70c65 0 121 23 168 70s71 104 71 171zM416 -99c0 -32 -27 -58 -58 -58s-57 26 -57 58c0 31 26 57 57 57s58 -26 58 -57z" />
    <glyph glyph-name="uni1EA2" unicode="&#x1ea2;" horiz-adv-x="690" 
d="M604 12l-63 157h-392l-63 -157c-6 -13 -17 -20 -32 -20c-20 0 -34 14 -34 33c0 5 1 10 3 14l291 699c5 13 16 20 31 20s26 -7 31 -20l291 -699c2 -4 3 -9 3 -14c0 -19 -14 -33 -34 -33c-15 0 -26 7 -32 20zM345 637l-167 -401h334zM394 824c-9 -8 -26 -16 -25 -26
c1 -16 -44 -22 -39 6c2 22 21 40 43 54c11 10 17 19 17 26c0 11 -1 27 -30 34c-31 7 -42 -18 -44 -28c-4 -25 -43 -19 -39 6c4 22 28 62 76 60c78 -3 77 -55 77 -72c0 -25 -12 -45 -36 -60z" />
    <glyph glyph-name="uni1EA3" unicode="&#x1ea3;" 
d="M587 26v91c-59 -89 -139 -134 -239 -134c-85 0 -157 30 -218 90c-60 60 -90 132 -90 217s30 157 90 216c61 60 133 90 218 90c101 0 180 -45 239 -134v91c-2 44 70 44 68 0v-527c2 -44 -70 -44 -68 0zM587 290c0 66 -24 122 -71 169s-103 71 -168 71
c-66 0 -122 -24 -169 -71c-46 -47 -69 -103 -69 -169c0 -67 23 -124 69 -171c47 -47 103 -70 169 -70c65 0 121 23 168 70s71 104 71 171zM417 694c-9 -8 -26 -16 -25 -26c1 -16 -44 -22 -39 6c2 22 21 40 43 54c11 10 17 19 17 26c0 11 -1 27 -30 34c-31 7 -42 -18 -44 -28
c-4 -25 -43 -19 -39 6c4 22 28 62 76 60c78 -3 77 -55 77 -72c0 -25 -12 -45 -36 -60z" />
    <glyph glyph-name="uni1EA4" unicode="&#x1ea4;" horiz-adv-x="690" 
d="M604 12l-63 157h-392l-63 -157c-6 -13 -17 -20 -32 -20c-20 0 -34 14 -34 33c0 5 1 10 3 14l291 699c5 13 16 20 31 20s26 -7 31 -20l291 -699c2 -4 3 -9 3 -14c0 -19 -14 -33 -34 -33c-15 0 -26 7 -32 20zM345 637l-167 -401h334zM345 916c8 0 18 -6 29 -19
c5 -5 16 -17 32 -36l33 -37c13 -15 2 -39 -18 -39c-6 0 -12 3 -19 10l-57 64l-57 -64c-7 -7 -13 -10 -19 -10c-20 0 -31 24 -18 39c49 55 75 85 80 88s9 4 14 4zM255 930c-4 10 0 18 11 25l124 59c17 7 37 -2 42 -19c7 -17 -3 -37 -20 -42l-133 -34c-11 -3 -19 0 -24 11z
" />
    <glyph glyph-name="uni1EA5" unicode="&#x1ea5;" 
d="M394 785c8 0 18 -6 29 -19c5 -5 16 -17 32 -36l33 -37c13 -15 2 -39 -18 -39c-6 0 -12 3 -19 10l-57 64l-57 -64c-7 -7 -13 -10 -19 -10c-20 0 -31 24 -18 39c49 55 75 85 80 88s9 4 14 4zM587 26v91c-59 -89 -139 -134 -239 -134c-85 0 -157 30 -218 90
c-60 60 -90 132 -90 217s30 157 90 216c61 60 133 90 218 90c101 0 180 -45 239 -134v91c-2 44 70 44 68 0v-527c2 -44 -70 -44 -68 0zM587 290c0 66 -24 122 -71 169s-103 71 -168 71c-66 0 -122 -24 -169 -71c-46 -47 -69 -103 -69 -169c0 -67 23 -124 69 -171
c47 -47 103 -70 169 -70c65 0 121 23 168 70s71 104 71 171zM304 799c-4 10 0 18 11 25l124 59c17 7 37 -2 42 -19c7 -17 -3 -37 -20 -42l-133 -34c-11 -3 -19 0 -24 11z" />
    <glyph glyph-name="uni1EA6" unicode="&#x1ea6;" horiz-adv-x="690" 
d="M604 12l-63 157h-392l-63 -157c-6 -13 -17 -20 -32 -20c-20 0 -34 14 -34 33c0 5 1 10 3 14l291 699c5 13 16 20 31 20s26 -7 31 -20l291 -699c2 -4 3 -9 3 -14c0 -19 -14 -33 -34 -33c-15 0 -26 7 -32 20zM345 637l-167 -401h334zM345 916c8 0 18 -6 29 -19
c5 -5 16 -17 32 -36l33 -37c13 -15 2 -39 -18 -39c-6 0 -12 3 -19 10l-57 64l-57 -64c-7 -7 -13 -10 -19 -10c-20 0 -31 24 -18 39c49 55 75 85 80 88s9 4 14 4zM443 930c-5 -11 -13 -14 -24 -11l-133 34c-17 5 -27 25 -20 42c5 17 25 26 42 19l124 -59c11 -7 15 -15 11 -25
z" />
    <glyph glyph-name="uni1EA7" unicode="&#x1ea7;" 
d="M394 785c8 0 18 -6 29 -19c5 -5 16 -17 32 -36l33 -37c13 -15 2 -39 -18 -39c-6 0 -12 3 -19 10l-57 64l-57 -64c-7 -7 -13 -10 -19 -10c-20 0 -31 24 -18 39c49 55 75 85 80 88s9 4 14 4zM587 26v91c-59 -89 -139 -134 -239 -134c-85 0 -157 30 -218 90
c-60 60 -90 132 -90 217s30 157 90 216c61 60 133 90 218 90c101 0 180 -45 239 -134v91c-2 44 70 44 68 0v-527c2 -44 -70 -44 -68 0zM587 290c0 66 -24 122 -71 169s-103 71 -168 71c-66 0 -122 -24 -169 -71c-46 -47 -69 -103 -69 -169c0 -67 23 -124 69 -171
c47 -47 103 -70 169 -70c65 0 121 23 168 70s71 104 71 171zM486 799c-5 -11 -13 -14 -24 -11l-133 34c-17 5 -27 25 -20 42c5 17 25 26 42 19l124 -59c11 -7 15 -15 11 -25z" />
    <glyph glyph-name="uni1EA8" unicode="&#x1ea8;" horiz-adv-x="690" 
d="M604 12l-63 157h-392l-63 -157c-6 -13 -17 -20 -32 -20c-20 0 -34 14 -34 33c0 5 1 10 3 14l291 699c5 13 16 20 31 20s26 -7 31 -20l291 -699c2 -4 3 -9 3 -14c0 -19 -14 -33 -34 -33c-15 0 -26 7 -32 20zM345 637l-167 -401h334zM345 916c8 0 18 -6 29 -19
c5 -5 16 -17 32 -36l33 -37c13 -15 2 -39 -18 -39c-6 0 -12 3 -19 10l-57 64l-57 -64c-7 -7 -13 -10 -19 -10c-20 0 -31 24 -18 39c49 55 75 85 80 88s9 4 14 4zM472 940c-9 -8 -26 -16 -25 -26c1 -16 -44 -22 -39 6c2 22 21 40 43 54c11 10 17 19 17 26c0 11 -1 27 -30 34
c-31 7 -42 -18 -44 -28c-4 -25 -43 -19 -39 6c4 22 28 62 76 60c78 -3 77 -55 77 -72c0 -25 -12 -45 -36 -60z" />
    <glyph glyph-name="uni1EA9" unicode="&#x1ea9;" 
d="M394 785c8 0 18 -6 29 -19c5 -5 16 -17 32 -36l33 -37c13 -15 2 -39 -18 -39c-6 0 -12 3 -19 10l-57 64l-57 -64c-7 -7 -13 -10 -19 -10c-20 0 -31 24 -18 39c49 55 75 85 80 88s9 4 14 4zM587 26v91c-59 -89 -139 -134 -239 -134c-85 0 -157 30 -218 90
c-60 60 -90 132 -90 217s30 157 90 216c61 60 133 90 218 90c101 0 180 -45 239 -134v91c-2 44 70 44 68 0v-527c2 -44 -70 -44 -68 0zM587 290c0 66 -24 122 -71 169s-103 71 -168 71c-66 0 -122 -24 -169 -71c-46 -47 -69 -103 -69 -169c0 -67 23 -124 69 -171
c47 -47 103 -70 169 -70c65 0 121 23 168 70s71 104 71 171zM524 809c-9 -8 -26 -16 -25 -26c1 -16 -44 -22 -39 6c2 22 21 40 43 54c11 10 17 19 17 26c0 11 -1 27 -30 34c-31 7 -42 -18 -44 -28c-4 -25 -43 -19 -39 6c4 22 28 62 76 60c78 -3 77 -55 77 -72
c0 -25 -12 -45 -36 -60z" />
    <glyph glyph-name="uni1EAA" unicode="&#x1eaa;" horiz-adv-x="690" 
d="M604 12l-63 157h-392l-63 -157c-6 -13 -17 -20 -32 -20c-20 0 -34 14 -34 33c0 5 1 10 3 14l291 699c5 13 16 20 31 20s26 -7 31 -20l291 -699c2 -4 3 -9 3 -14c0 -19 -14 -33 -34 -33c-15 0 -26 7 -32 20zM345 637l-167 -401h334zM345 916c8 0 18 -6 29 -19
c5 -5 16 -17 32 -36l33 -37c13 -15 2 -39 -18 -39c-6 0 -12 3 -19 10l-57 64l-57 -64c-7 -7 -13 -10 -19 -10c-20 0 -31 24 -18 39c49 55 75 85 80 88s9 4 14 4zM264 955c1 40 31 71 70 71c25 0 46 -12 61 -36c10 -11 19 -17 26 -17c16 0 29 14 29 31c0 26 40 26 40 0
c-1 -40 -32 -71 -69 -71c-25 0 -45 12 -60 36c-11 12 -20 18 -27 18c-17 0 -30 -15 -30 -32c0 -26 -40 -26 -40 0z" />
    <glyph glyph-name="uni1EAB" unicode="&#x1eab;" 
d="M394 785c8 0 18 -6 29 -19c5 -5 16 -17 32 -36l33 -37c13 -15 2 -39 -18 -39c-6 0 -12 3 -19 10l-57 64l-57 -64c-7 -7 -13 -10 -19 -10c-20 0 -31 24 -18 39c49 55 75 85 80 88s9 4 14 4zM587 26v91c-59 -89 -139 -134 -239 -134c-85 0 -157 30 -218 90
c-60 60 -90 132 -90 217s30 157 90 216c61 60 133 90 218 90c101 0 180 -45 239 -134v91c-2 44 70 44 68 0v-527c2 -44 -70 -44 -68 0zM587 290c0 66 -24 122 -71 169s-103 71 -168 71c-66 0 -122 -24 -169 -71c-46 -47 -69 -103 -69 -169c0 -67 23 -124 69 -171
c47 -47 103 -70 169 -70c65 0 121 23 168 70s71 104 71 171zM313 824c1 40 31 71 70 71c25 0 46 -12 61 -36c10 -11 19 -17 26 -17c16 0 29 14 29 31c0 26 40 26 40 0c-1 -40 -32 -71 -69 -71c-25 0 -45 12 -60 36c-11 12 -20 18 -27 18c-17 0 -30 -15 -30 -32
c0 -26 -40 -26 -40 0z" />
    <glyph glyph-name="uni1EAC" unicode="&#x1eac;" horiz-adv-x="690" 
d="M406 -105c0 -32 -27 -58 -58 -58s-57 26 -57 58c0 31 26 57 57 57s58 -26 58 -57zM604 12l-63 157h-392l-63 -157c-6 -13 -17 -20 -32 -20c-20 0 -34 14 -34 33c0 5 1 10 3 14l291 699c5 13 16 20 31 20s26 -7 31 -20l291 -699c2 -4 3 -9 3 -14c0 -19 -14 -33 -34 -33
c-15 0 -26 7 -32 20zM345 637l-167 -401h334zM345 916c8 0 18 -6 29 -19c5 -5 16 -17 32 -36l33 -37c13 -15 2 -39 -18 -39c-6 0 -12 3 -19 10l-57 64l-57 -64c-7 -7 -13 -10 -19 -10c-20 0 -31 24 -18 39c49 55 75 85 80 88s9 4 14 4z" />
    <glyph glyph-name="uni1EAD" unicode="&#x1ead;" 
d="M402 -105c0 -32 -27 -58 -58 -58s-57 26 -57 58c0 31 26 57 57 57s58 -26 58 -57zM394 785c8 0 18 -6 29 -19c5 -5 16 -17 32 -36l33 -37c13 -15 2 -39 -18 -39c-6 0 -12 3 -19 10l-57 64l-57 -64c-7 -7 -13 -10 -19 -10c-20 0 -31 24 -18 39c49 55 75 85 80 88s9 4 14 4
zM587 26v91c-59 -89 -139 -134 -239 -134c-85 0 -157 30 -218 90c-60 60 -90 132 -90 217s30 157 90 216c61 60 133 90 218 90c101 0 180 -45 239 -134v91c-2 44 70 44 68 0v-527c2 -44 -70 -44 -68 0zM587 290c0 66 -24 122 -71 169s-103 71 -168 71
c-66 0 -122 -24 -169 -71c-46 -47 -69 -103 -69 -169c0 -67 23 -124 69 -171c47 -47 103 -70 169 -70c65 0 121 23 168 70s71 104 71 171z" />
    <glyph glyph-name="uni1EAE" unicode="&#x1eae;" horiz-adv-x="690" 
d="M604 12l-63 157h-392l-63 -157c-6 -13 -17 -20 -32 -20c-20 0 -34 14 -34 33c0 5 1 10 3 14l291 699c5 13 16 20 31 20s26 -7 31 -20l291 -699c2 -4 3 -9 3 -14c0 -19 -14 -33 -34 -33c-15 0 -26 7 -32 20zM345 637l-167 -401h334zM437 855c0 -16 -10 -32 -30 -47
c-19 -15 -40 -23 -62 -23s-43 8 -63 23c-19 15 -29 31 -29 47c0 15 10 25 25 25c30 0 22 -46 67 -46c15 0 28 8 38 23c11 15 20 23 29 23c15 0 25 -10 25 -25zM304 914c-4 10 0 18 11 25l124 59c17 7 37 -2 42 -19c7 -17 -3 -37 -20 -42l-133 -34c-11 -3 -19 0 -24 11z" />
    <glyph glyph-name="uni1EAF" unicode="&#x1eaf;" 
d="M587 26v91c-59 -89 -139 -134 -239 -134c-85 0 -157 30 -218 90c-60 60 -90 132 -90 217s30 157 90 216c61 60 133 90 218 90c101 0 180 -45 239 -134v91c-2 44 70 44 68 0v-527c2 -44 -70 -44 -68 0zM587 290c0 66 -24 122 -71 169s-103 71 -168 71
c-66 0 -122 -24 -169 -71c-46 -47 -69 -103 -69 -169c0 -67 23 -124 69 -171c47 -47 103 -70 169 -70c65 0 121 23 168 70s71 104 71 171zM459 724c0 -16 -10 -32 -30 -47c-19 -15 -40 -23 -62 -23s-43 8 -63 23c-19 15 -29 31 -29 47c0 15 10 25 25 25c30 0 22 -46 67 -46
c15 0 28 8 38 23c11 15 20 23 29 23c15 0 25 -10 25 -25zM339 784c-4 10 0 18 11 25l124 59c17 7 37 -2 42 -19c7 -17 -3 -37 -20 -42l-133 -34c-11 -3 -19 0 -24 11z" />
    <glyph glyph-name="uni1EB0" unicode="&#x1eb0;" horiz-adv-x="690" 
d="M604 12l-63 157h-392l-63 -157c-6 -13 -17 -20 -32 -20c-20 0 -34 14 -34 33c0 5 1 10 3 14l291 699c5 13 16 20 31 20s26 -7 31 -20l291 -699c2 -4 3 -9 3 -14c0 -19 -14 -33 -34 -33c-15 0 -26 7 -32 20zM345 637l-167 -401h334zM437 855c0 -16 -10 -32 -30 -47
c-19 -15 -40 -23 -62 -23s-43 8 -63 23c-19 15 -29 31 -29 47c0 15 10 25 25 25c30 0 22 -46 67 -46c15 0 28 8 38 23c11 15 20 23 29 23c15 0 25 -10 25 -25zM400 914c-5 -11 -13 -14 -24 -11l-133 34c-17 5 -27 25 -20 42c5 17 25 26 42 19l124 -59c11 -7 15 -15 11 -25z
" />
    <glyph glyph-name="uni1EB1" unicode="&#x1eb1;" 
d="M587 26v91c-59 -89 -139 -134 -239 -134c-85 0 -157 30 -218 90c-60 60 -90 132 -90 217s30 157 90 216c61 60 133 90 218 90c101 0 180 -45 239 -134v91c-2 44 70 44 68 0v-527c2 -44 -70 -44 -68 0zM587 290c0 66 -24 122 -71 169s-103 71 -168 71
c-66 0 -122 -24 -169 -71c-46 -47 -69 -103 -69 -169c0 -67 23 -124 69 -171c47 -47 103 -70 169 -70c65 0 121 23 168 70s71 104 71 171zM459 724c0 -16 -10 -32 -30 -47c-19 -15 -40 -23 -62 -23s-43 8 -63 23c-19 15 -29 31 -29 47c0 15 10 25 25 25c30 0 22 -46 67 -46
c15 0 28 8 38 23c11 15 20 23 29 23c15 0 25 -10 25 -25zM430 784c-5 -11 -13 -14 -24 -11l-133 34c-17 5 -27 25 -20 42c5 17 25 26 42 19l124 -59c11 -7 15 -15 11 -25z" />
    <glyph glyph-name="uni1EB2" unicode="&#x1eb2;" horiz-adv-x="690" 
d="M604 12l-63 157h-392l-63 -157c-6 -13 -17 -20 -32 -20c-20 0 -34 14 -34 33c0 5 1 10 3 14l291 699c5 13 16 20 31 20s26 -7 31 -20l291 -699c2 -4 3 -9 3 -14c0 -19 -14 -33 -34 -33c-15 0 -26 7 -32 20zM345 637l-167 -401h334zM437 855c0 -16 -10 -32 -30 -47
c-19 -15 -40 -23 -62 -23s-43 8 -63 23c-19 15 -29 31 -29 47c0 15 10 25 25 25c30 0 22 -46 67 -46c15 0 28 8 38 23c11 15 20 23 29 23c15 0 25 -10 25 -25zM390 938c-9 -8 -26 -16 -25 -26c1 -16 -44 -22 -39 6c2 22 21 40 43 54c11 10 17 19 17 26c0 11 -1 27 -30 34
c-31 7 -42 -18 -44 -28c-4 -25 -43 -19 -39 6c4 22 28 62 76 60c78 -3 77 -55 77 -72c0 -25 -12 -45 -36 -60z" />
    <glyph glyph-name="uni1EB3" unicode="&#x1eb3;" 
d="M587 26v91c-59 -89 -139 -134 -239 -134c-85 0 -157 30 -218 90c-60 60 -90 132 -90 217s30 157 90 216c61 60 133 90 218 90c101 0 180 -45 239 -134v91c-2 44 70 44 68 0v-527c2 -44 -70 -44 -68 0zM587 290c0 66 -24 122 -71 169s-103 71 -168 71
c-66 0 -122 -24 -169 -71c-46 -47 -69 -103 -69 -169c0 -67 23 -124 69 -171c47 -47 103 -70 169 -70c65 0 121 23 168 70s71 104 71 171zM459 724c0 -16 -10 -32 -30 -47c-19 -15 -40 -23 -62 -23s-43 8 -63 23c-19 15 -29 31 -29 47c0 15 10 25 25 25c30 0 22 -46 67 -46
c15 0 28 8 38 23c11 15 20 23 29 23c15 0 25 -10 25 -25zM409 810c-9 -8 -26 -16 -25 -26c1 -16 -44 -22 -39 6c2 22 21 40 43 54c11 10 17 19 17 26c0 11 -1 27 -30 34c-31 7 -42 -18 -44 -28c-4 -25 -43 -19 -39 6c4 22 28 62 76 60c78 -3 77 -55 77 -72
c0 -25 -12 -45 -36 -60z" />
    <glyph glyph-name="uni1EB4" unicode="&#x1eb4;" horiz-adv-x="690" 
d="M604 12l-63 157h-392l-63 -157c-6 -13 -17 -20 -32 -20c-20 0 -34 14 -34 33c0 5 1 10 3 14l291 699c5 13 16 20 31 20s26 -7 31 -20l291 -699c2 -4 3 -9 3 -14c0 -19 -14 -33 -34 -33c-15 0 -26 7 -32 20zM345 637l-167 -401h334zM437 855c0 -16 -10 -32 -30 -47
c-19 -15 -40 -23 -62 -23s-43 8 -63 23c-19 15 -29 31 -29 47c0 15 10 25 25 25c30 0 22 -46 67 -46c15 0 28 8 38 23c11 15 20 23 29 23c15 0 25 -10 25 -25zM236 926c1 40 31 71 70 71c25 0 46 -12 61 -36c10 -11 19 -17 26 -17c16 0 29 14 29 31c0 26 40 26 40 0
c-1 -40 -32 -71 -69 -71c-25 0 -45 12 -60 36c-11 12 -20 18 -27 18c-17 0 -30 -15 -30 -32c0 -26 -40 -26 -40 0z" />
    <glyph glyph-name="uni1EB5" unicode="&#x1eb5;" 
d="M587 26v91c-59 -89 -139 -134 -239 -134c-85 0 -157 30 -218 90c-60 60 -90 132 -90 217s30 157 90 216c61 60 133 90 218 90c101 0 180 -45 239 -134v91c-2 44 70 44 68 0v-527c2 -44 -70 -44 -68 0zM587 290c0 66 -24 122 -71 169s-103 71 -168 71
c-66 0 -122 -24 -169 -71c-46 -47 -69 -103 -69 -169c0 -67 23 -124 69 -171c47 -47 103 -70 169 -70c65 0 121 23 168 70s71 104 71 171zM459 724c0 -16 -10 -32 -30 -47c-19 -15 -40 -23 -62 -23s-43 8 -63 23c-19 15 -29 31 -29 47c0 15 10 25 25 25c30 0 22 -46 67 -46
c15 0 28 8 38 23c11 15 20 23 29 23c15 0 25 -10 25 -25zM263 796c1 40 31 71 70 71c25 0 46 -12 61 -36c10 -11 19 -17 26 -17c16 0 29 14 29 31c0 26 40 26 40 0c-1 -40 -32 -71 -69 -71c-25 0 -45 12 -60 36c-11 12 -20 18 -27 18c-17 0 -30 -15 -30 -32
c0 -26 -40 -26 -40 0z" />
    <glyph glyph-name="uni1EB6" unicode="&#x1eb6;" horiz-adv-x="690" 
d="M404 -99c0 -32 -27 -58 -58 -58s-57 26 -57 58c0 31 26 57 57 57s58 -26 58 -57zM604 12l-63 157h-392l-63 -157c-6 -13 -17 -20 -32 -20c-20 0 -34 14 -34 33c0 5 1 10 3 14l291 699c5 13 16 20 31 20s26 -7 31 -20l291 -699c2 -4 3 -9 3 -14c0 -19 -14 -33 -34 -33
c-15 0 -26 7 -32 20zM345 637l-167 -401h334zM437 855c0 -16 -10 -32 -30 -47c-19 -15 -40 -23 -62 -23s-43 8 -63 23c-19 15 -29 31 -29 47c0 15 10 25 25 25c30 0 22 -46 67 -46c15 0 28 8 38 23c11 15 20 23 29 23c15 0 25 -10 25 -25z" />
    <glyph glyph-name="uni1EB7" unicode="&#x1eb7;" 
d="M428 -99c0 -32 -27 -58 -58 -58s-57 26 -57 58c0 31 26 57 57 57s58 -26 58 -57zM587 26v91c-59 -89 -139 -134 -239 -134c-85 0 -157 30 -218 90c-60 60 -90 132 -90 217s30 157 90 216c61 60 133 90 218 90c101 0 180 -45 239 -134v91c-2 44 70 44 68 0v-527
c2 -44 -70 -44 -68 0zM587 290c0 66 -24 122 -71 169s-103 71 -168 71c-66 0 -122 -24 -169 -71c-46 -47 -69 -103 -69 -169c0 -67 23 -124 69 -171c47 -47 103 -70 169 -70c65 0 121 23 168 70s71 104 71 171zM459 724c0 -16 -10 -32 -30 -47c-19 -15 -40 -23 -62 -23
s-43 8 -63 23c-19 15 -29 31 -29 47c0 15 10 25 25 25c30 0 22 -46 67 -46c15 0 28 8 38 23c11 15 20 23 29 23c15 0 25 -10 25 -25z" />
    <glyph glyph-name="uni1EB8" unicode="&#x1eb8;" horiz-adv-x="641" 
d="M60 34v682c0 19 15 34 34 34h478c44 2 44 -70 0 -68h-444v-274h375c44 2 44 -70 0 -68h-375v-272h444c19 -1 34 -17 34 -34c0 -19 -15 -34 -34 -34h-478c-19 0 -34 15 -34 34zM386 -99c0 -32 -27 -58 -58 -58s-57 26 -57 58c0 31 26 57 57 57s58 -26 58 -57z" />
    <glyph glyph-name="uni1EB9" unicode="&#x1eb9;" horiz-adv-x="691" 
d="M651 290c0 -19 -16 -34 -35 -34h-504c9 -59 35 -108 78 -148c44 -39 96 -59 155 -59c79 0 149 39 192 102c7 11 16 17 29 17c28 0 44 -33 29 -54c-24 -37 -59 -69 -104 -94s-94 -37 -146 -37c-84 0 -156 30 -216 90c-59 60 -89 132 -89 217s30 157 89 216
c60 60 132 90 216 90c83 0 155 -30 214 -89c60 -59 91 -132 92 -217zM112 324h467c-9 58 -35 107 -79 146c-44 40 -96 60 -155 60s-111 -20 -155 -59c-43 -39 -69 -88 -78 -147zM401 -99c0 -32 -27 -58 -58 -58s-57 26 -57 58c0 31 26 57 57 57s58 -26 58 -57z" />
    <glyph glyph-name="uni1EBA" unicode="&#x1eba;" horiz-adv-x="641" 
d="M60 34v682c0 19 15 34 34 34h478c44 2 44 -70 0 -68h-444v-274h375c44 2 44 -70 0 -68h-375v-272h444c19 -1 34 -17 34 -34c0 -19 -15 -34 -34 -34h-478c-19 0 -34 15 -34 34zM369 825c-9 -8 -26 -16 -25 -26c1 -16 -44 -22 -39 6c2 22 21 40 43 54c11 10 17 19 17 26
c0 11 -1 27 -30 34c-31 7 -42 -18 -44 -28c-4 -25 -43 -19 -39 6c4 22 28 62 76 60c78 -3 77 -55 77 -72c0 -25 -12 -45 -36 -60z" />
    <glyph glyph-name="uni1EBB" unicode="&#x1ebb;" horiz-adv-x="691" 
d="M651 290c0 -19 -16 -34 -35 -34h-504c9 -59 35 -108 78 -148c44 -39 96 -59 155 -59c79 0 149 39 192 102c7 11 16 17 29 17c28 0 44 -33 29 -54c-24 -37 -59 -69 -104 -94s-94 -37 -146 -37c-84 0 -156 30 -216 90c-59 60 -89 132 -89 217s30 157 89 216
c60 60 132 90 216 90c83 0 155 -30 214 -89c60 -59 91 -132 92 -217zM112 324h467c-9 58 -35 107 -79 146c-44 40 -96 60 -155 60s-111 -20 -155 -59c-43 -39 -69 -88 -78 -147zM398 694c-9 -8 -26 -16 -25 -26c1 -16 -44 -22 -39 6c2 22 21 40 43 54c11 10 17 19 17 26
c0 11 -1 27 -30 34c-31 7 -42 -18 -44 -28c-4 -25 -43 -19 -39 6c4 22 28 62 76 60c78 -3 77 -55 77 -72c0 -25 -12 -45 -36 -60z" />
    <glyph glyph-name="Etilde" unicode="&#x1ebc;" horiz-adv-x="641" 
d="M60 34v682c0 19 15 34 34 34h478c44 2 44 -70 0 -68h-444v-274h375c44 2 44 -70 0 -68h-375v-272h444c19 -1 34 -17 34 -34c0 -19 -15 -34 -34 -34h-478c-19 0 -34 15 -34 34zM227 811c1 40 31 71 70 71c25 0 46 -12 61 -36c10 -11 19 -17 26 -17c16 0 29 14 29 31
c0 26 40 26 40 0c-1 -40 -32 -71 -69 -71c-25 0 -45 12 -60 36c-11 12 -20 18 -27 18c-17 0 -30 -15 -30 -32c0 -26 -40 -26 -40 0z" />
    <glyph glyph-name="etilde" unicode="&#x1ebd;" horiz-adv-x="691" 
d="M651 290c0 -19 -16 -34 -35 -34h-504c9 -59 35 -108 78 -148c44 -39 96 -59 155 -59c79 0 149 39 192 102c7 11 16 17 29 17c28 0 44 -33 29 -54c-24 -37 -59 -69 -104 -94s-94 -37 -146 -37c-84 0 -156 30 -216 90c-59 60 -89 132 -89 217s30 157 89 216
c60 60 132 90 216 90c83 0 155 -30 214 -89c60 -59 91 -132 92 -217zM112 324h467c-9 58 -35 107 -79 146c-44 40 -96 60 -155 60s-111 -20 -155 -59c-43 -39 -69 -88 -78 -147zM240 681c1 40 31 71 70 71c25 0 46 -12 61 -36c10 -11 19 -17 26 -17c16 0 29 14 29 31
c0 26 40 26 40 0c-1 -40 -32 -71 -69 -71c-25 0 -45 12 -60 36c-11 12 -20 18 -27 18c-17 0 -30 -15 -30 -32c0 -26 -40 -26 -40 0z" />
    <glyph glyph-name="uni1EBE" unicode="&#x1ebe;" horiz-adv-x="641" 
d="M333 916c8 0 18 -6 29 -19c5 -5 16 -17 32 -36l33 -37c13 -15 2 -39 -18 -39c-6 0 -12 3 -19 10l-57 64l-57 -64c-7 -7 -13 -10 -19 -10c-20 0 -31 24 -18 39c49 55 75 85 80 88s9 4 14 4zM60 34v682c0 19 15 34 34 34h478c44 2 44 -70 0 -68h-444v-274h375
c44 2 44 -70 0 -68h-375v-272h444c19 -1 34 -17 34 -34c0 -19 -15 -34 -34 -34h-478c-19 0 -34 15 -34 34zM243 930c-4 10 0 18 11 25l124 59c17 7 37 -2 42 -19c7 -17 -3 -37 -20 -42l-133 -34c-11 -3 -19 0 -24 11z" />
    <glyph glyph-name="uni1EBF" unicode="&#x1ebf;" horiz-adv-x="691" 
d="M361 785c8 0 18 -6 29 -19c5 -5 16 -17 32 -36l33 -37c13 -15 2 -39 -18 -39c-6 0 -12 3 -19 10l-57 64l-57 -64c-7 -7 -13 -10 -19 -10c-20 0 -31 24 -18 39c49 55 75 85 80 88s9 4 14 4zM651 290c0 -19 -16 -34 -35 -34h-504c9 -59 35 -108 78 -148
c44 -39 96 -59 155 -59c79 0 149 39 192 102c7 11 16 17 29 17c28 0 44 -33 29 -54c-24 -37 -59 -69 -104 -94s-94 -37 -146 -37c-84 0 -156 30 -216 90c-59 60 -89 132 -89 217s30 157 89 216c60 60 132 90 216 90c83 0 155 -30 214 -89c60 -59 91 -132 92 -217zM112 324
h467c-9 58 -35 107 -79 146c-44 40 -96 60 -155 60s-111 -20 -155 -59c-43 -39 -69 -88 -78 -147zM271 799c-4 10 0 18 11 25l124 59c17 7 37 -2 42 -19c7 -17 -3 -37 -20 -42l-133 -34c-11 -3 -19 0 -24 11z" />
    <glyph glyph-name="uni1EC0" unicode="&#x1ec0;" horiz-adv-x="641" 
d="M333 916c8 0 18 -6 29 -19c5 -5 16 -17 32 -36l33 -37c13 -15 2 -39 -18 -39c-6 0 -12 3 -19 10l-57 64l-57 -64c-7 -7 -13 -10 -19 -10c-20 0 -31 24 -18 39c49 55 75 85 80 88s9 4 14 4zM60 34v682c0 19 15 34 34 34h478c44 2 44 -70 0 -68h-444v-274h375
c44 2 44 -70 0 -68h-375v-272h444c19 -1 34 -17 34 -34c0 -19 -15 -34 -34 -34h-478c-19 0 -34 15 -34 34zM423 930c-5 -11 -13 -14 -24 -11l-133 34c-17 5 -27 25 -20 42c5 17 25 26 42 19l124 -59c11 -7 15 -15 11 -25z" />
    <glyph glyph-name="uni1EC1" unicode="&#x1ec1;" horiz-adv-x="691" 
d="M361 785c8 0 18 -6 29 -19c5 -5 16 -17 32 -36l33 -37c13 -15 2 -39 -18 -39c-6 0 -12 3 -19 10l-57 64l-57 -64c-7 -7 -13 -10 -19 -10c-20 0 -31 24 -18 39c49 55 75 85 80 88s9 4 14 4zM651 290c0 -19 -16 -34 -35 -34h-504c9 -59 35 -108 78 -148
c44 -39 96 -59 155 -59c79 0 149 39 192 102c7 11 16 17 29 17c28 0 44 -33 29 -54c-24 -37 -59 -69 -104 -94s-94 -37 -146 -37c-84 0 -156 30 -216 90c-59 60 -89 132 -89 217s30 157 89 216c60 60 132 90 216 90c83 0 155 -30 214 -89c60 -59 91 -132 92 -217zM112 324
h467c-9 58 -35 107 -79 146c-44 40 -96 60 -155 60s-111 -20 -155 -59c-43 -39 -69 -88 -78 -147zM452 799c-5 -11 -13 -14 -24 -11l-133 34c-17 5 -27 25 -20 42c5 17 25 26 42 19l124 -59c11 -7 15 -15 11 -25z" />
    <glyph glyph-name="uni1EC2" unicode="&#x1ec2;" horiz-adv-x="641" 
d="M333 916c8 0 18 -6 29 -19c5 -5 16 -17 32 -36l33 -37c13 -15 2 -39 -18 -39c-6 0 -12 3 -19 10l-57 64l-57 -64c-7 -7 -13 -10 -19 -10c-20 0 -31 24 -18 39c49 55 75 85 80 88s9 4 14 4zM60 34v682c0 19 15 34 34 34h478c44 2 44 -70 0 -68h-444v-274h375
c44 2 44 -70 0 -68h-375v-272h444c19 -1 34 -17 34 -34c0 -19 -15 -34 -34 -34h-478c-19 0 -34 15 -34 34zM453 940c-9 -8 -26 -16 -25 -26c1 -16 -44 -22 -39 6c2 22 21 40 43 54c11 10 17 19 17 26c0 11 -1 27 -30 34c-31 7 -42 -18 -44 -28c-4 -25 -43 -19 -39 6
c4 22 28 62 76 60c78 -3 77 -55 77 -72c0 -25 -12 -45 -36 -60z" />
    <glyph glyph-name="uni1EC3" unicode="&#x1ec3;" horiz-adv-x="691" 
d="M361 785c8 0 18 -6 29 -19c5 -5 16 -17 32 -36l33 -37c13 -15 2 -39 -18 -39c-6 0 -12 3 -19 10l-57 64l-57 -64c-7 -7 -13 -10 -19 -10c-20 0 -31 24 -18 39c49 55 75 85 80 88s9 4 14 4zM651 290c0 -19 -16 -34 -35 -34h-504c9 -59 35 -108 78 -148
c44 -39 96 -59 155 -59c79 0 149 39 192 102c7 11 16 17 29 17c28 0 44 -33 29 -54c-24 -37 -59 -69 -104 -94s-94 -37 -146 -37c-84 0 -156 30 -216 90c-59 60 -89 132 -89 217s30 157 89 216c60 60 132 90 216 90c83 0 155 -30 214 -89c60 -59 91 -132 92 -217zM112 324
h467c-9 58 -35 107 -79 146c-44 40 -96 60 -155 60s-111 -20 -155 -59c-43 -39 -69 -88 -78 -147zM484 810c-9 -8 -26 -16 -25 -26c1 -16 -44 -22 -39 6c2 22 21 40 43 54c11 10 17 19 17 26c0 11 -1 27 -30 34c-31 7 -42 -18 -44 -28c-4 -25 -43 -19 -39 6
c4 22 28 62 76 60c78 -3 77 -55 77 -72c0 -25 -12 -45 -36 -60z" />
    <glyph glyph-name="uni1EC4" unicode="&#x1ec4;" horiz-adv-x="641" 
d="M333 916c8 0 18 -6 29 -19c5 -5 16 -17 32 -36l33 -37c13 -15 2 -39 -18 -39c-6 0 -12 3 -19 10l-57 64l-57 -64c-7 -7 -13 -10 -19 -10c-20 0 -31 24 -18 39c49 55 75 85 80 88s9 4 14 4zM60 34v682c0 19 15 34 34 34h478c44 2 44 -70 0 -68h-444v-274h375
c44 2 44 -70 0 -68h-375v-272h444c19 -1 34 -17 34 -34c0 -19 -15 -34 -34 -34h-478c-19 0 -34 15 -34 34zM250 959c1 40 31 71 70 71c25 0 46 -12 61 -36c10 -11 19 -17 26 -17c16 0 29 14 29 31c0 26 40 26 40 0c-1 -40 -32 -71 -69 -71c-25 0 -45 12 -60 36
c-11 12 -20 18 -27 18c-17 0 -30 -15 -30 -32c0 -26 -40 -26 -40 0z" />
    <glyph glyph-name="uni1EC5" unicode="&#x1ec5;" horiz-adv-x="691" 
d="M361 785c8 0 18 -6 29 -19c5 -5 16 -17 32 -36l33 -37c13 -15 2 -39 -18 -39c-6 0 -12 3 -19 10l-57 64l-57 -64c-7 -7 -13 -10 -19 -10c-20 0 -31 24 -18 39c49 55 75 85 80 88s9 4 14 4zM651 290c0 -19 -16 -34 -35 -34h-504c9 -59 35 -108 78 -148
c44 -39 96 -59 155 -59c79 0 149 39 192 102c7 11 16 17 29 17c28 0 44 -33 29 -54c-24 -37 -59 -69 -104 -94s-94 -37 -146 -37c-84 0 -156 30 -216 90c-59 60 -89 132 -89 217s30 157 89 216c60 60 132 90 216 90c83 0 155 -30 214 -89c60 -59 91 -132 92 -217zM112 324
h467c-9 58 -35 107 -79 146c-44 40 -96 60 -155 60s-111 -20 -155 -59c-43 -39 -69 -88 -78 -147zM279 824c1 40 31 71 70 71c25 0 46 -12 61 -36c10 -11 19 -17 26 -17c16 0 29 14 29 31c0 26 40 26 40 0c-1 -40 -32 -71 -69 -71c-25 0 -45 12 -60 36c-11 12 -20 18 -27 18
c-17 0 -30 -15 -30 -32c0 -26 -40 -26 -40 0z" />
    <glyph glyph-name="uni1EC6" unicode="&#x1ec6;" horiz-adv-x="641" 
d="M389 -99c0 -32 -27 -58 -58 -58s-57 26 -57 58c0 31 26 57 57 57s58 -26 58 -57zM333 916c8 0 18 -6 29 -19c5 -5 16 -17 32 -36l33 -37c13 -15 2 -39 -18 -39c-6 0 -12 3 -19 10l-57 64l-57 -64c-7 -7 -13 -10 -19 -10c-20 0 -31 24 -18 39c49 55 75 85 80 88s9 4 14 4z
M60 34v682c0 19 15 34 34 34h478c44 2 44 -70 0 -68h-444v-274h375c44 2 44 -70 0 -68h-375v-272h444c19 -1 34 -17 34 -34c0 -19 -15 -34 -34 -34h-478c-19 0 -34 15 -34 34z" />
    <glyph glyph-name="uni1EC7" unicode="&#x1ec7;" horiz-adv-x="691" 
d="M361 785c8 0 18 -6 29 -19c5 -5 16 -17 32 -36l33 -37c13 -15 2 -39 -18 -39c-6 0 -12 3 -19 10l-57 64l-57 -64c-7 -7 -13 -10 -19 -10c-20 0 -31 24 -18 39c49 55 75 85 80 88s9 4 14 4zM651 290c0 -19 -16 -34 -35 -34h-504c9 -59 35 -108 78 -148
c44 -39 96 -59 155 -59c79 0 149 39 192 102c7 11 16 17 29 17c28 0 44 -33 29 -54c-24 -37 -59 -69 -104 -94s-94 -37 -146 -37c-84 0 -156 30 -216 90c-59 60 -89 132 -89 217s30 157 89 216c60 60 132 90 216 90c83 0 155 -30 214 -89c60 -59 91 -132 92 -217zM112 324
h467c-9 58 -35 107 -79 146c-44 40 -96 60 -155 60s-111 -20 -155 -59c-43 -39 -69 -88 -78 -147zM418 -99c0 -32 -27 -58 -58 -58s-57 26 -57 58c0 31 26 57 57 57s58 -26 58 -57z" />
    <glyph glyph-name="uni1EC8" unicode="&#x1ec8;" horiz-adv-x="188" 
d="M66 26v698c-2 44 70 44 68 0v-698c2 -44 -70 -44 -68 0zM143 825c-9 -8 -26 -16 -25 -26c1 -16 -44 -22 -39 6c2 22 21 40 43 54c11 10 17 19 17 26c0 11 -1 27 -30 34c-31 7 -42 -18 -44 -28c-4 -25 -43 -19 -39 6c4 22 28 62 76 60c78 -3 77 -55 77 -72
c0 -25 -12 -45 -36 -60z" />
    <glyph glyph-name="uni1EC9" unicode="&#x1ec9;" horiz-adv-x="188" 
d="M140 695c-9 -8 -26 -16 -25 -26c1 -16 -44 -22 -39 6c2 22 21 40 43 54c11 10 17 19 17 26c0 11 -1 27 -30 34c-31 7 -42 -18 -44 -28c-4 -25 -43 -19 -39 6c4 22 28 62 76 60c78 -3 77 -55 77 -72c0 -25 -12 -45 -36 -60zM61 26v527c-2 44 70 44 69 0v-527
c1 -44 -71 -44 -69 0z" />
    <glyph glyph-name="uni1ECA" unicode="&#x1eca;" horiz-adv-x="188" 
d="M57 26v698c-2 44 70 44 68 0v-698c2 -44 -70 -44 -68 0zM152 -99c0 -32 -27 -58 -58 -58s-57 26 -57 58c0 31 26 57 57 57s58 -26 58 -57z" />
    <glyph glyph-name="uni1ECB" unicode="&#x1ecb;" horiz-adv-x="188" 
d="M59 26v527c-2 44 70 44 68 0v-527c2 -44 -70 -44 -68 0zM61 690c-17 17 -17 47 0 64s47 17 64 0s17 -47 0 -64s-47 -17 -64 0zM153 -99c0 -32 -27 -58 -58 -58s-57 26 -57 58c0 31 26 57 57 57s58 -26 58 -57z" />
    <glyph glyph-name="uni1ECC" unicode="&#x1ecc;" horiz-adv-x="854" 
d="M655 144c63 64 94 141 94 231s-31 167 -94 230c-63 64 -139 96 -228 96s-165 -32 -228 -96c-63 -63 -94 -140 -94 -230s31 -167 94 -231c63 -63 139 -95 228 -95s165 32 228 95zM427 -17c-109 0 -201 38 -278 115c-76 77 -114 169 -114 277s38 200 114 277
c77 77 169 115 278 115c108 0 200 -38 277 -115s115 -169 115 -277s-38 -200 -115 -277s-169 -115 -277 -115zM492 -99c0 -32 -27 -58 -58 -58s-57 26 -57 58c0 31 26 57 57 57s58 -26 58 -57z" />
    <glyph glyph-name="uni1ECD" unicode="&#x1ecd;" horiz-adv-x="695" 
d="M347 49c66 0 122 23 168 70c47 47 70 104 70 171c0 66 -23 122 -70 169c-46 47 -102 71 -168 71c-65 0 -121 -24 -168 -71c-46 -47 -69 -103 -69 -169c0 -67 23 -124 69 -171c47 -47 103 -70 168 -70zM347 -17c-85 0 -157 30 -217 90s-90 132 -90 217s30 157 90 216
c60 60 132 90 217 90s158 -30 218 -90c60 -59 90 -131 90 -216s-30 -157 -90 -217s-133 -90 -218 -90zM407 -99c0 -32 -27 -58 -58 -58s-57 26 -57 58c0 31 26 57 57 57s58 -26 58 -57z" />
    <glyph glyph-name="uni1ECE" unicode="&#x1ece;" horiz-adv-x="854" 
d="M655 144c63 64 94 141 94 231s-31 167 -94 230c-63 64 -139 96 -228 96s-165 -32 -228 -96c-63 -63 -94 -140 -94 -230s31 -167 94 -231c63 -63 139 -95 228 -95s165 32 228 95zM427 -17c-109 0 -201 38 -278 115c-76 77 -114 169 -114 277s38 200 114 277
c77 77 169 115 278 115c108 0 200 -38 277 -115s115 -169 115 -277s-38 -200 -115 -277s-169 -115 -277 -115zM477 825c-9 -8 -26 -16 -25 -26c1 -16 -44 -22 -39 6c2 22 21 40 43 54c11 10 17 19 17 26c0 11 -1 27 -30 34c-31 7 -42 -18 -44 -28c-4 -25 -43 -19 -39 6
c4 22 28 62 76 60c78 -3 77 -55 77 -72c0 -25 -12 -45 -36 -60z" />
    <glyph glyph-name="uni1ECF" unicode="&#x1ecf;" horiz-adv-x="695" 
d="M347 49c66 0 122 23 168 70c47 47 70 104 70 171c0 66 -23 122 -70 169c-46 47 -102 71 -168 71c-65 0 -121 -24 -168 -71c-46 -47 -69 -103 -69 -169c0 -67 23 -124 69 -171c47 -47 103 -70 168 -70zM347 -17c-85 0 -157 30 -217 90s-90 132 -90 217s30 157 90 216
c60 60 132 90 217 90s158 -30 218 -90c60 -59 90 -131 90 -216s-30 -157 -90 -217s-133 -90 -218 -90zM392 693c-9 -8 -26 -16 -25 -26c1 -16 -44 -22 -39 6c2 22 21 40 43 54c11 10 17 19 17 26c0 11 -1 27 -30 34c-31 7 -42 -18 -44 -28c-4 -25 -43 -19 -39 6
c4 22 28 62 76 60c78 -3 77 -55 77 -72c0 -25 -12 -45 -36 -60z" />
    <glyph glyph-name="uni1ED0" unicode="&#x1ed0;" horiz-adv-x="854" 
d="M427 916c8 0 18 -6 29 -19c5 -5 16 -17 32 -36c13 -15 24 -27 33 -37c13 -15 2 -39 -18 -39c-6 0 -12 3 -19 10l-57 64l-57 -64c-7 -7 -13 -10 -19 -10c-20 0 -31 24 -18 39c49 55 75 85 80 88s9 4 14 4zM655 144c63 64 94 141 94 231s-31 167 -94 230
c-63 64 -139 96 -228 96s-165 -32 -228 -96c-63 -63 -94 -140 -94 -230s31 -167 94 -231c63 -63 139 -95 228 -95s165 32 228 95zM427 -17c-109 0 -201 38 -278 115c-76 77 -114 169 -114 277s38 200 114 277c77 77 169 115 278 115c108 0 200 -38 277 -115
s115 -169 115 -277s-38 -200 -115 -277s-169 -115 -277 -115zM336 930c-4 10 0 18 11 25l124 59c17 7 37 -2 42 -19c7 -17 -3 -37 -20 -42l-133 -34c-11 -3 -19 0 -24 11z" />
    <glyph glyph-name="uni1ED1" unicode="&#x1ed1;" horiz-adv-x="695" 
d="M354 785c8 0 18 -6 29 -19c5 -5 16 -17 32 -36l33 -37c13 -15 2 -39 -18 -39c-6 0 -12 3 -19 10l-57 64l-57 -64c-7 -7 -13 -10 -19 -10c-20 0 -31 24 -18 39c49 55 75 85 80 88s9 4 14 4zM347 49c66 0 122 23 168 70c47 47 70 104 70 171c0 66 -23 122 -70 169
c-46 47 -102 71 -168 71c-65 0 -121 -24 -168 -71c-46 -47 -69 -103 -69 -169c0 -67 23 -124 69 -171c47 -47 103 -70 168 -70zM347 -17c-85 0 -157 30 -217 90s-90 132 -90 217s30 157 90 216c60 60 132 90 217 90s158 -30 218 -90c60 -59 90 -131 90 -216
s-30 -157 -90 -217s-133 -90 -218 -90zM264 799c-4 10 0 18 11 25l124 59c17 7 37 -2 42 -19c7 -17 -3 -37 -20 -42l-133 -34c-11 -3 -19 0 -24 11z" />
    <glyph glyph-name="uni1ED2" unicode="&#x1ed2;" horiz-adv-x="854" 
d="M427 916c8 0 18 -6 29 -19c5 -5 16 -17 32 -36c13 -15 24 -27 33 -37c13 -15 2 -39 -18 -39c-6 0 -12 3 -19 10l-57 64l-57 -64c-7 -7 -13 -10 -19 -10c-20 0 -31 24 -18 39c49 55 75 85 80 88s9 4 14 4zM655 144c63 64 94 141 94 231s-31 167 -94 230
c-63 64 -139 96 -228 96s-165 -32 -228 -96c-63 -63 -94 -140 -94 -230s31 -167 94 -231c63 -63 139 -95 228 -95s165 32 228 95zM427 -17c-109 0 -201 38 -278 115c-76 77 -114 169 -114 277s38 200 114 277c77 77 169 115 278 115c108 0 200 -38 277 -115
s115 -169 115 -277s-38 -200 -115 -277s-169 -115 -277 -115zM517 930c-5 -11 -13 -14 -24 -11l-133 34c-17 5 -27 25 -20 42c5 17 25 26 42 19l124 -59c11 -7 15 -15 11 -25z" />
    <glyph glyph-name="uni1ED3" unicode="&#x1ed3;" horiz-adv-x="695" 
d="M354 785c8 0 18 -6 29 -19c5 -5 16 -17 32 -36l33 -37c13 -15 2 -39 -18 -39c-6 0 -12 3 -19 10l-57 64l-57 -64c-7 -7 -13 -10 -19 -10c-20 0 -31 24 -18 39c49 55 75 85 80 88s9 4 14 4zM347 49c66 0 122 23 168 70c47 47 70 104 70 171c0 66 -23 122 -70 169
c-46 47 -102 71 -168 71c-65 0 -121 -24 -168 -71c-46 -47 -69 -103 -69 -169c0 -67 23 -124 69 -171c47 -47 103 -70 168 -70zM347 -17c-85 0 -157 30 -217 90s-90 132 -90 217s30 157 90 216c60 60 132 90 217 90s158 -30 218 -90c60 -59 90 -131 90 -216
s-30 -157 -90 -217s-133 -90 -218 -90zM444 799c-5 -11 -13 -14 -24 -11l-133 34c-17 5 -27 25 -20 42c5 17 25 26 42 19l124 -59c11 -7 15 -15 11 -25z" />
    <glyph glyph-name="uni1ED4" unicode="&#x1ed4;" horiz-adv-x="854" 
d="M427 916c8 0 18 -6 29 -19c5 -5 16 -17 32 -36c13 -15 24 -27 33 -37c13 -15 2 -39 -18 -39c-6 0 -12 3 -19 10l-57 64l-57 -64c-7 -7 -13 -10 -19 -10c-20 0 -31 24 -18 39c49 55 75 85 80 88s9 4 14 4zM655 144c63 64 94 141 94 231s-31 167 -94 230
c-63 64 -139 96 -228 96s-165 -32 -228 -96c-63 -63 -94 -140 -94 -230s31 -167 94 -231c63 -63 139 -95 228 -95s165 32 228 95zM427 -17c-109 0 -201 38 -278 115c-76 77 -114 169 -114 277s38 200 114 277c77 77 169 115 278 115c108 0 200 -38 277 -115
s115 -169 115 -277s-38 -200 -115 -277s-169 -115 -277 -115zM549 939c-9 -8 -26 -16 -25 -26c1 -16 -44 -22 -39 6c2 22 21 40 43 54c11 10 17 19 17 26c0 11 -1 27 -30 34c-31 7 -42 -18 -44 -28c-4 -25 -43 -19 -39 6c4 22 28 62 76 60c78 -3 77 -55 77 -72
c0 -25 -12 -45 -36 -60z" />
    <glyph glyph-name="uni1ED5" unicode="&#x1ed5;" horiz-adv-x="695" 
d="M354 785c8 0 18 -6 29 -19c5 -5 16 -17 32 -36l33 -37c13 -15 2 -39 -18 -39c-6 0 -12 3 -19 10l-57 64l-57 -64c-7 -7 -13 -10 -19 -10c-20 0 -31 24 -18 39c49 55 75 85 80 88s9 4 14 4zM347 49c66 0 122 23 168 70c47 47 70 104 70 171c0 66 -23 122 -70 169
c-46 47 -102 71 -168 71c-65 0 -121 -24 -168 -71c-46 -47 -69 -103 -69 -169c0 -67 23 -124 69 -171c47 -47 103 -70 168 -70zM347 -17c-85 0 -157 30 -217 90s-90 132 -90 217s30 157 90 216c60 60 132 90 217 90s158 -30 218 -90c60 -59 90 -131 90 -216
s-30 -157 -90 -217s-133 -90 -218 -90zM476 809c-9 -8 -26 -16 -25 -26c1 -16 -44 -22 -39 6c2 22 21 40 43 54c11 10 17 19 17 26c0 11 -1 27 -30 34c-31 7 -42 -18 -44 -28c-4 -25 -43 -19 -39 6c4 22 28 62 76 60c78 -3 77 -55 77 -72c0 -25 -12 -45 -36 -60z" />
    <glyph glyph-name="uni1ED6" unicode="&#x1ed6;" horiz-adv-x="854" 
d="M427 916c8 0 18 -6 29 -19c5 -5 16 -17 32 -36c13 -15 24 -27 33 -37c13 -15 2 -39 -18 -39c-6 0 -12 3 -19 10l-57 64l-57 -64c-7 -7 -13 -10 -19 -10c-20 0 -31 24 -18 39c49 55 75 85 80 88s9 4 14 4zM655 144c63 64 94 141 94 231s-31 167 -94 230
c-63 64 -139 96 -228 96s-165 -32 -228 -96c-63 -63 -94 -140 -94 -230s31 -167 94 -231c63 -63 139 -95 228 -95s165 32 228 95zM427 -17c-109 0 -201 38 -278 115c-76 77 -114 169 -114 277s38 200 114 277c77 77 169 115 278 115c108 0 200 -38 277 -115
s115 -169 115 -277s-38 -200 -115 -277s-169 -115 -277 -115zM350 958c1 40 31 71 70 71c25 0 46 -12 61 -36c10 -11 19 -17 26 -17c16 0 29 14 29 31c0 26 40 26 40 0c-1 -40 -32 -71 -69 -71c-25 0 -45 12 -60 36c-11 12 -20 18 -27 18c-17 0 -30 -15 -30 -32
c0 -26 -40 -26 -40 0z" />
    <glyph glyph-name="uni1ED7" unicode="&#x1ed7;" horiz-adv-x="695" 
d="M354 785c8 0 18 -6 29 -19c5 -5 16 -17 32 -36l33 -37c13 -15 2 -39 -18 -39c-6 0 -12 3 -19 10l-57 64l-57 -64c-7 -7 -13 -10 -19 -10c-20 0 -31 24 -18 39c49 55 75 85 80 88s9 4 14 4zM347 49c66 0 122 23 168 70c47 47 70 104 70 171c0 66 -23 122 -70 169
c-46 47 -102 71 -168 71c-65 0 -121 -24 -168 -71c-46 -47 -69 -103 -69 -169c0 -67 23 -124 69 -171c47 -47 103 -70 168 -70zM347 -17c-85 0 -157 30 -217 90s-90 132 -90 217s30 157 90 216c60 60 132 90 217 90s158 -30 218 -90c60 -59 90 -131 90 -216
s-30 -157 -90 -217s-133 -90 -218 -90zM277 825c1 40 31 71 70 71c25 0 46 -12 61 -36c10 -11 19 -17 26 -17c16 0 29 14 29 31c0 26 40 26 40 0c-1 -40 -32 -71 -69 -71c-25 0 -45 12 -60 36c-11 12 -20 18 -27 18c-17 0 -30 -15 -30 -32c0 -26 -40 -26 -40 0z" />
    <glyph glyph-name="uni1ED8" unicode="&#x1ed8;" horiz-adv-x="854" 
d="M484 -99c0 -32 -27 -58 -58 -58s-57 26 -57 58c0 31 26 57 57 57s58 -26 58 -57zM427 916c8 0 18 -6 29 -19c5 -5 16 -17 32 -36c13 -15 24 -27 33 -37c13 -15 2 -39 -18 -39c-6 0 -12 3 -19 10l-57 64l-57 -64c-7 -7 -13 -10 -19 -10c-20 0 -31 24 -18 39
c49 55 75 85 80 88s9 4 14 4zM655 144c63 64 94 141 94 231s-31 167 -94 230c-63 64 -139 96 -228 96s-165 -32 -228 -96c-63 -63 -94 -140 -94 -230s31 -167 94 -231c63 -63 139 -95 228 -95s165 32 228 95zM427 -17c-109 0 -201 38 -278 115c-76 77 -114 169 -114 277
s38 200 114 277c77 77 169 115 278 115c108 0 200 -38 277 -115s115 -169 115 -277s-38 -200 -115 -277s-169 -115 -277 -115z" />
    <glyph glyph-name="uni1ED9" unicode="&#x1ed9;" horiz-adv-x="695" 
d="M413 -99c0 -32 -27 -58 -58 -58s-57 26 -57 58c0 31 26 57 57 57s58 -26 58 -57zM354 785c8 0 18 -6 29 -19c5 -5 16 -17 32 -36l33 -37c13 -15 2 -39 -18 -39c-6 0 -12 3 -19 10l-57 64l-57 -64c-7 -7 -13 -10 -19 -10c-20 0 -31 24 -18 39c49 55 75 85 80 88s9 4 14 4z
M347 49c66 0 122 23 168 70c47 47 70 104 70 171c0 66 -23 122 -70 169c-46 47 -102 71 -168 71c-65 0 -121 -24 -168 -71c-46 -47 -69 -103 -69 -169c0 -67 23 -124 69 -171c47 -47 103 -70 168 -70zM347 -17c-85 0 -157 30 -217 90s-90 132 -90 217s30 157 90 216
c60 60 132 90 217 90s158 -30 218 -90c60 -59 90 -131 90 -216s-30 -157 -90 -217s-133 -90 -218 -90z" />
    <glyph glyph-name="uni1EDA" unicode="&#x1eda;" horiz-adv-x="854" 
d="M427 -17c-109 0 -201 38 -278 115c-76 77 -114 169 -114 277s38 200 114 277c77 77 169 115 278 115c108 0 200 -38 277 -115l6 -6c47 0 53 53 53 80c0 41 65 41 65 0c-1 -50 -20 -112 -75 -133c44 -64 66 -137 66 -218c0 -108 -38 -200 -115 -277s-169 -115 -277 -115z
M655 144c63 64 94 141 94 231s-31 167 -94 230c-63 64 -139 96 -228 96s-165 -32 -228 -96c-63 -63 -94 -140 -94 -230s31 -167 94 -231c63 -63 139 -95 228 -95s165 32 228 95zM387 799c-4 10 0 18 11 25l124 59c17 7 37 -2 42 -19c7 -17 -3 -37 -20 -42l-133 -34
c-11 -3 -19 0 -24 11z" />
    <glyph glyph-name="uni1EDB" unicode="&#x1edb;" horiz-adv-x="695" 
d="M280 668c-4 10 0 18 11 25l124 59c17 7 37 -2 42 -19c7 -17 -3 -37 -20 -42l-133 -34c-11 -3 -19 0 -24 11zM347 -17c-85 0 -157 30 -217 90s-90 132 -90 217s30 157 90 216c60 60 132 90 217 90s158 -30 218 -90c10 -10 19 -20 27 -30c39 6 44 54 44 79c0 41 65 41 65 0
c-1 -50 -21 -112 -75 -133c19 -40 29 -84 29 -132c0 -85 -30 -157 -90 -217s-133 -90 -218 -90zM347 49c66 0 122 23 168 70c47 47 70 104 70 171c0 66 -23 122 -70 169c-46 47 -102 71 -168 71c-65 0 -121 -24 -168 -71c-46 -47 -69 -103 -69 -169c0 -67 23 -124 69 -171
c47 -47 103 -70 168 -70z" />
    <glyph glyph-name="uni1EDC" unicode="&#x1edc;" horiz-adv-x="854" 
d="M427 -17c-109 0 -201 38 -278 115c-76 77 -114 169 -114 277s38 200 114 277c77 77 169 115 278 115c108 0 200 -38 277 -115l6 -6c47 0 53 53 53 80c0 41 65 41 65 0c-1 -50 -20 -112 -75 -133c44 -64 66 -137 66 -218c0 -108 -38 -200 -115 -277s-169 -115 -277 -115z
M655 144c63 64 94 141 94 231s-31 167 -94 230c-63 64 -139 96 -228 96s-165 -32 -228 -96c-63 -63 -94 -140 -94 -230s31 -167 94 -231c63 -63 139 -95 228 -95s165 32 228 95zM501 799c-5 -11 -13 -14 -24 -11l-133 34c-17 5 -27 25 -20 42c5 17 25 26 42 19l124 -59
c11 -7 15 -15 11 -25z" />
    <glyph glyph-name="uni1EDD" unicode="&#x1edd;" horiz-adv-x="695" 
d="M447 667c-5 -11 -13 -14 -24 -11l-133 34c-17 5 -27 25 -20 42c5 17 25 26 42 19l124 -59c11 -7 15 -15 11 -25zM347 -17c-85 0 -157 30 -217 90s-90 132 -90 217s30 157 90 216c60 60 132 90 217 90s158 -30 218 -90c10 -10 19 -20 27 -30c39 6 44 54 44 79
c0 41 65 41 65 0c-1 -50 -21 -112 -75 -133c19 -40 29 -84 29 -132c0 -85 -30 -157 -90 -217s-133 -90 -218 -90zM347 49c66 0 122 23 168 70c47 47 70 104 70 171c0 66 -23 122 -70 169c-46 47 -102 71 -168 71c-65 0 -121 -24 -168 -71c-46 -47 -69 -103 -69 -169
c0 -67 23 -124 69 -171c47 -47 103 -70 168 -70z" />
    <glyph glyph-name="uni1EDE" unicode="&#x1ede;" horiz-adv-x="854" 
d="M427 -17c-109 0 -201 38 -278 115c-76 77 -114 169 -114 277s38 200 114 277c77 77 169 115 278 115c108 0 200 -38 277 -115l6 -6c47 0 53 53 53 80c0 41 65 41 65 0c-1 -50 -20 -112 -75 -133c44 -64 66 -137 66 -218c0 -108 -38 -200 -115 -277s-169 -115 -277 -115z
M655 144c63 64 94 141 94 231s-31 167 -94 230c-63 64 -139 96 -228 96s-165 -32 -228 -96c-63 -63 -94 -140 -94 -230s31 -167 94 -231c63 -63 139 -95 228 -95s165 32 228 95zM483 826c-9 -8 -26 -16 -25 -26c1 -16 -44 -22 -39 6c2 22 21 40 43 54c11 10 17 19 17 26
c0 11 -1 27 -30 34c-31 7 -42 -18 -44 -28c-4 -25 -43 -19 -39 6c4 22 28 62 76 60c78 -3 77 -55 77 -72c0 -25 -12 -45 -36 -60z" />
    <glyph glyph-name="uni1EDF" unicode="&#x1edf;" horiz-adv-x="695" 
d="M401 694c-9 -8 -26 -16 -25 -26c1 -16 -44 -22 -39 6c2 22 21 40 43 54c11 10 17 19 17 26c0 11 -1 27 -30 34c-31 7 -42 -18 -44 -28c-4 -25 -43 -19 -39 6c4 22 28 62 76 60c78 -3 77 -55 77 -72c0 -25 -12 -45 -36 -60zM347 -17c-85 0 -157 30 -217 90
s-90 132 -90 217s30 157 90 216c60 60 132 90 217 90s158 -30 218 -90c10 -10 19 -20 27 -30c39 6 44 54 44 79c0 41 65 41 65 0c-1 -50 -21 -112 -75 -133c19 -40 29 -84 29 -132c0 -85 -30 -157 -90 -217s-133 -90 -218 -90zM347 49c66 0 122 23 168 70
c47 47 70 104 70 171c0 66 -23 122 -70 169c-46 47 -102 71 -168 71c-65 0 -121 -24 -168 -71c-46 -47 -69 -103 -69 -169c0 -67 23 -124 69 -171c47 -47 103 -70 168 -70z" />
    <glyph glyph-name="uni1EE0" unicode="&#x1ee0;" horiz-adv-x="854" 
d="M427 -17c-109 0 -201 38 -278 115c-76 77 -114 169 -114 277s38 200 114 277c77 77 169 115 278 115c108 0 200 -38 277 -115l6 -6c47 0 53 53 53 80c0 41 65 41 65 0c-1 -50 -20 -112 -75 -133c44 -64 66 -137 66 -218c0 -108 -38 -200 -115 -277s-169 -115 -277 -115z
M655 144c63 64 94 141 94 231s-31 167 -94 230c-63 64 -139 96 -228 96s-165 -32 -228 -96c-63 -63 -94 -140 -94 -230s31 -167 94 -231c63 -63 139 -95 228 -95s165 32 228 95zM331 811c1 40 31 71 70 71c25 0 46 -12 61 -36c10 -11 19 -17 26 -17c16 0 29 14 29 31
c0 26 40 26 40 0c-1 -40 -32 -71 -69 -71c-25 0 -45 12 -60 36c-11 12 -20 18 -27 18c-17 0 -30 -15 -30 -32c0 -26 -40 -26 -40 0z" />
    <glyph glyph-name="uni1EE1" unicode="&#x1ee1;" horiz-adv-x="695" 
d="M241 679c1 40 31 71 70 71c25 0 46 -12 61 -36c10 -11 19 -17 26 -17c16 0 29 14 29 31c0 26 40 26 40 0c-1 -40 -32 -71 -69 -71c-25 0 -45 12 -60 36c-11 12 -20 18 -27 18c-17 0 -30 -15 -30 -32c0 -26 -40 -26 -40 0zM347 -17c-85 0 -157 30 -217 90s-90 132 -90 217
s30 157 90 216c60 60 132 90 217 90s158 -30 218 -90c10 -10 19 -20 27 -30c39 6 44 54 44 79c0 41 65 41 65 0c-1 -50 -21 -112 -75 -133c19 -40 29 -84 29 -132c0 -85 -30 -157 -90 -217s-133 -90 -218 -90zM347 49c66 0 122 23 168 70c47 47 70 104 70 171
c0 66 -23 122 -70 169c-46 47 -102 71 -168 71c-65 0 -121 -24 -168 -71c-46 -47 -69 -103 -69 -169c0 -67 23 -124 69 -171c47 -47 103 -70 168 -70z" />
    <glyph glyph-name="uni1EE2" unicode="&#x1ee2;" horiz-adv-x="854" 
d="M427 -17c-109 0 -201 38 -278 115c-76 77 -114 169 -114 277s38 200 114 277c77 77 169 115 278 115c108 0 200 -38 277 -115l6 -6c47 0 53 53 53 80c0 41 65 41 65 0c-1 -50 -20 -112 -75 -133c44 -64 66 -137 66 -218c0 -108 -38 -200 -115 -277s-169 -115 -277 -115z
M655 144c63 64 94 141 94 231s-31 167 -94 230c-63 64 -139 96 -228 96s-165 -32 -228 -96c-63 -63 -94 -140 -94 -230s31 -167 94 -231c63 -63 139 -95 228 -95s165 32 228 95zM487 -99c0 -32 -27 -58 -58 -58s-57 26 -57 58c0 31 26 57 57 57s58 -26 58 -57z" />
    <glyph glyph-name="uni1EE3" unicode="&#x1ee3;" horiz-adv-x="695" 
d="M406 -99c0 -32 -27 -58 -58 -58s-57 26 -57 58c0 31 26 57 57 57s58 -26 58 -57zM347 -17c-85 0 -157 30 -217 90s-90 132 -90 217s30 157 90 216c60 60 132 90 217 90s158 -30 218 -90c10 -10 19 -20 27 -30c39 6 44 54 44 79c0 41 65 41 65 0c-1 -50 -21 -112 -75 -133
c19 -40 29 -84 29 -132c0 -85 -30 -157 -90 -217s-133 -90 -218 -90zM347 49c66 0 122 23 168 70c47 47 70 104 70 171c0 66 -23 122 -70 169c-46 47 -102 71 -168 71c-65 0 -121 -24 -168 -71c-46 -47 -69 -103 -69 -169c0 -67 23 -124 69 -171c47 -47 103 -70 168 -70z
" />
    <glyph glyph-name="uni1EE4" unicode="&#x1ee4;" horiz-adv-x="699" 
d="M571 273v451c-2 44 70 44 68 0v-451c0 -80 -28 -148 -85 -205s-125 -85 -204 -85c-80 0 -148 28 -205 85s-85 125 -85 205v451c-2 44 70 44 68 0v-451c0 -61 22 -114 65 -158s96 -66 157 -66s113 22 156 66s65 97 65 158zM418 -99c0 -32 -27 -58 -58 -58s-57 26 -57 58
c0 31 26 57 57 57s58 -26 58 -57z" />
    <glyph glyph-name="uni1EE5" unicode="&#x1ee5;" horiz-adv-x="614" 
d="M128 553v-339c0 -99 66 -165 163 -165c49 0 93 17 133 51c40 35 61 75 62 122v331c-2 44 70 44 68 0v-527c2 -44 -70 -44 -68 0v86c-9 -30 -33 -59 -70 -87s-79 -42 -125 -42c-71 0 -128 21 -169 64s-62 98 -62 167v339c-2 44 70 44 68 0zM310 -99c0 -32 -27 -58 -58 -58
s-57 26 -57 58c0 31 26 57 57 57s58 -26 58 -57z" />
    <glyph glyph-name="uni1EE6" unicode="&#x1ee6;" horiz-adv-x="699" 
d="M571 273v451c-2 44 70 44 68 0v-451c0 -80 -28 -148 -85 -205s-125 -85 -204 -85c-80 0 -148 28 -205 85s-85 125 -85 205v451c-2 44 70 44 68 0v-451c0 -61 22 -114 65 -158s96 -66 157 -66s113 22 156 66s65 97 65 158zM389 825c-9 -8 -26 -16 -25 -26
c1 -16 -44 -22 -39 6c2 22 21 40 43 54c11 10 17 19 17 26c0 11 -1 27 -30 34c-31 7 -42 -18 -44 -28c-4 -25 -43 -19 -39 6c4 22 28 62 76 60c78 -3 77 -55 77 -72c0 -25 -12 -45 -36 -60z" />
    <glyph glyph-name="uni1EE7" unicode="&#x1ee7;" horiz-adv-x="614" 
d="M128 553v-339c0 -99 66 -165 163 -165c49 0 93 17 133 51c40 35 61 75 62 122v331c-2 44 70 44 68 0v-527c2 -44 -70 -44 -68 0v86c-9 -30 -33 -59 -70 -87s-79 -42 -125 -42c-71 0 -128 21 -169 64s-62 98 -62 167v339c-2 44 70 44 68 0zM351 693c-9 -8 -26 -16 -25 -26
c1 -16 -44 -22 -39 6c2 22 21 40 43 54c11 10 17 19 17 26c0 11 -1 27 -30 34c-31 7 -42 -18 -44 -28c-4 -25 -43 -19 -39 6c4 22 28 62 76 60c78 -3 77 -55 77 -72c0 -25 -12 -45 -36 -60z" />
    <glyph glyph-name="uni1EE8" unicode="&#x1ee8;" horiz-adv-x="699" 
d="M571 273v451c-2 44 70 44 68 0v-82h9c47 0 53 57 53 84c0 41 65 41 65 0c-1 -61 -30 -145 -118 -145h-9v-308c0 -80 -28 -148 -85 -205s-125 -85 -204 -85c-80 0 -148 28 -205 85s-85 125 -85 205v451c-2 44 70 44 68 0v-451c0 -61 22 -114 65 -158s96 -66 157 -66
s113 22 156 66s65 97 65 158zM288 799c-4 10 0 18 11 25l124 59c17 7 37 -2 42 -19c7 -17 -3 -37 -20 -42l-133 -34c-11 -3 -19 0 -24 11z" />
    <glyph glyph-name="uni1EE9" unicode="&#x1ee9;" horiz-adv-x="614" 
d="M234 667c-4 10 0 18 11 25l124 59c17 7 37 -2 42 -19c7 -17 -3 -37 -20 -42l-133 -34c-11 -3 -19 0 -24 11zM128 553v-339c0 -99 66 -165 163 -165c49 0 93 17 133 51c40 35 61 75 62 122v331c-2 44 70 44 68 0v-82h8c47 0 53 57 53 84c0 41 65 41 65 0
c-1 -61 -30 -145 -118 -145h-8v-384c2 -44 -70 -44 -68 0v86c-9 -30 -33 -59 -70 -87s-79 -42 -125 -42c-71 0 -128 21 -169 64s-62 98 -62 167v339c-2 44 70 44 68 0z" />
    <glyph glyph-name="uni1EEA" unicode="&#x1eea;" horiz-adv-x="699" 
d="M571 273v451c-2 44 70 44 68 0v-82h9c47 0 53 57 53 84c0 41 65 41 65 0c-1 -61 -30 -145 -118 -145h-9v-308c0 -80 -28 -148 -85 -205s-125 -85 -204 -85c-80 0 -148 28 -205 85s-85 125 -85 205v451c-2 44 70 44 68 0v-451c0 -61 22 -114 65 -158s96 -66 157 -66
s113 22 156 66s65 97 65 158zM455 799c-5 -11 -13 -14 -24 -11l-133 34c-17 5 -27 25 -20 42c5 17 25 26 42 19l124 -59c11 -7 15 -15 11 -25z" />
    <glyph glyph-name="uni1EEB" unicode="&#x1eeb;" horiz-adv-x="614" 
d="M395 668c-5 -11 -13 -14 -24 -11l-133 34c-17 5 -27 25 -20 42c5 17 25 26 42 19l124 -59c11 -7 15 -15 11 -25zM128 553v-339c0 -99 66 -165 163 -165c49 0 93 17 133 51c40 35 61 75 62 122v331c-2 44 70 44 68 0v-82h8c47 0 53 57 53 84c0 41 65 41 65 0
c-1 -61 -30 -145 -118 -145h-8v-384c2 -44 -70 -44 -68 0v86c-9 -30 -33 -59 -70 -87s-79 -42 -125 -42c-71 0 -128 21 -169 64s-62 98 -62 167v339c-2 44 70 44 68 0z" />
    <glyph glyph-name="uni1EEC" unicode="&#x1eec;" horiz-adv-x="699" 
d="M571 273v451c-2 44 70 44 68 0v-82h9c47 0 53 57 53 84c0 41 65 41 65 0c-1 -61 -30 -145 -118 -145h-9v-308c0 -80 -28 -148 -85 -205s-125 -85 -204 -85c-80 0 -148 28 -205 85s-85 125 -85 205v451c-2 44 70 44 68 0v-451c0 -61 22 -114 65 -158s96 -66 157 -66
s113 22 156 66s65 97 65 158zM423 825c-9 -8 -26 -16 -25 -26c1 -16 -44 -22 -39 6c2 22 21 40 43 54c11 10 17 19 17 26c0 11 -1 27 -30 34c-31 7 -42 -18 -44 -28c-4 -25 -43 -19 -39 6c4 22 28 62 76 60c78 -3 77 -55 77 -72c0 -25 -12 -45 -36 -60z" />
    <glyph glyph-name="uni1EED" unicode="&#x1eed;" horiz-adv-x="614" 
d="M128 553v-339c0 -99 66 -165 163 -165c49 0 93 17 133 51c40 35 61 75 62 122v331c-2 44 70 44 68 0v-82h8c47 0 53 57 53 84c0 41 65 41 65 0c-1 -61 -30 -145 -118 -145h-8v-384c2 -44 -70 -44 -68 0v86c-9 -30 -33 -59 -70 -87s-79 -42 -125 -42
c-71 0 -128 21 -169 64s-62 98 -62 167v339c-2 44 70 44 68 0zM358 694c-9 -8 -26 -16 -25 -26c1 -16 -44 -22 -39 6c2 22 21 40 43 54c11 10 17 19 17 26c0 11 -1 27 -30 34c-31 7 -42 -18 -44 -28c-4 -25 -43 -19 -39 6c4 22 28 62 76 60c78 -3 77 -55 77 -72
c0 -25 -12 -45 -36 -60z" />
    <glyph glyph-name="uni1EEE" unicode="&#x1eee;" horiz-adv-x="699" 
d="M571 273v451c-2 44 70 44 68 0v-82h9c47 0 53 57 53 84c0 41 65 41 65 0c-1 -61 -30 -145 -118 -145h-9v-308c0 -80 -28 -148 -85 -205s-125 -85 -204 -85c-80 0 -148 28 -205 85s-85 125 -85 205v451c-2 44 70 44 68 0v-451c0 -61 22 -114 65 -158s96 -66 157 -66
s113 22 156 66s65 97 65 158zM257 811c1 40 31 71 70 71c25 0 46 -12 61 -36c10 -11 19 -17 26 -17c16 0 29 14 29 31c0 26 40 26 40 0c-1 -40 -32 -71 -69 -71c-25 0 -45 12 -60 36c-11 12 -20 18 -27 18c-17 0 -30 -15 -30 -32c0 -26 -40 -26 -40 0z" />
    <glyph glyph-name="uni1EEF" unicode="&#x1eef;" horiz-adv-x="614" 
d="M128 553v-339c0 -99 66 -165 163 -165c49 0 93 17 133 51c40 35 61 75 62 122v331c-2 44 70 44 68 0v-82h8c47 0 53 57 53 84c0 41 65 41 65 0c-1 -61 -30 -145 -118 -145h-8v-384c2 -44 -70 -44 -68 0v86c-9 -30 -33 -59 -70 -87s-79 -42 -125 -42
c-71 0 -128 21 -169 64s-62 98 -62 167v339c-2 44 70 44 68 0zM204 680c1 40 31 71 70 71c25 0 46 -12 61 -36c10 -11 19 -17 26 -17c16 0 29 14 29 31c0 26 40 26 40 0c-1 -40 -32 -71 -69 -71c-25 0 -45 12 -60 36c-11 12 -20 18 -27 18c-17 0 -30 -15 -30 -32
c0 -26 -40 -26 -40 0z" />
    <glyph glyph-name="uni1EF0" unicode="&#x1ef0;" horiz-adv-x="699" 
d="M571 273v451c-2 44 70 44 68 0v-82h9c47 0 53 57 53 84c0 41 65 41 65 0c-1 -61 -30 -145 -118 -145h-9v-308c0 -80 -28 -148 -85 -205s-125 -85 -204 -85c-80 0 -148 28 -205 85s-85 125 -85 205v451c-2 44 70 44 68 0v-451c0 -61 22 -114 65 -158s96 -66 157 -66
s113 22 156 66s65 97 65 158zM406 -99c0 -32 -27 -58 -58 -58s-57 26 -57 58c0 31 26 57 57 57s58 -26 58 -57z" />
    <glyph glyph-name="uni1EF1" unicode="&#x1ef1;" horiz-adv-x="614" 
d="M128 553v-339c0 -99 66 -165 163 -165c49 0 93 17 133 51c40 35 61 75 62 122v331c-2 44 70 44 68 0v-82h8c47 0 53 57 53 84c0 41 65 41 65 0c-1 -61 -30 -145 -118 -145h-8v-384c2 -44 -70 -44 -68 0v86c-9 -30 -33 -59 -70 -87s-79 -42 -125 -42
c-71 0 -128 21 -169 64s-62 98 -62 167v339c-2 44 70 44 68 0zM350 -99c0 -32 -27 -58 -58 -58s-57 26 -57 58c0 31 26 57 57 57s58 -26 58 -57z" />
    <glyph glyph-name="Ygrave" unicode="&#x1ef2;" horiz-adv-x="626" 
d="M614 704l-258 -361v-317c2 -44 -70 -44 -68 0v317l-258 361c-16 21 0 54 28 54c11 0 21 -5 28 -14l236 -332l236 332c7 9 17 14 28 14c28 0 44 -33 28 -54zM409 799c-5 -11 -13 -14 -24 -11l-133 34c-17 5 -27 25 -20 42c5 17 25 26 42 19l124 -59c11 -7 15 -15 11 -25z
" />
    <glyph glyph-name="ygrave" unicode="&#x1ef3;" horiz-adv-x="584" 
d="M187 -131l72 155l-240 515c-22 39 45 70 62 29l215 -468l215 468c17 41 84 10 62 -29l-324 -699c-17 -41 -84 -10 -62 29zM387 667c-5 -11 -13 -14 -24 -11l-133 34c-17 5 -27 25 -20 42c5 17 25 26 42 19l124 -59c11 -7 15 -15 11 -25z" />
    <glyph glyph-name="uni1EF4" unicode="&#x1ef4;" horiz-adv-x="626" 
d="M614 704l-258 -361v-317c2 -44 -70 -44 -68 0v317l-258 361c-16 21 0 54 28 54c11 0 21 -5 28 -14l236 -332l236 332c7 9 17 14 28 14c28 0 44 -33 28 -54zM380 -117c0 -32 -27 -58 -58 -58s-57 26 -57 58c0 31 26 57 57 57s58 -26 58 -57z" />
    <glyph glyph-name="uni1EF5" unicode="&#x1ef5;" horiz-adv-x="584" 
d="M187 -131l72 155l-240 515c-22 39 45 70 62 29l215 -468l215 468c17 41 84 10 62 -29l-324 -699c-17 -41 -84 -10 -62 29zM431 -117c0 -32 -27 -58 -58 -58s-57 26 -57 58c0 31 26 57 57 57s58 -26 58 -57z" />
    <glyph glyph-name="uni1EF6" unicode="&#x1ef6;" horiz-adv-x="626" 
d="M614 704l-258 -361v-317c2 -44 -70 -44 -68 0v317l-258 361c-16 21 0 54 28 54c11 0 21 -5 28 -14l236 -332l236 332c7 9 17 14 28 14c28 0 44 -33 28 -54zM364 825c-9 -8 -26 -16 -25 -26c1 -16 -44 -22 -39 6c2 22 21 40 43 54c11 10 17 19 17 26c0 11 -1 27 -30 34
c-31 7 -42 -18 -44 -28c-4 -25 -43 -19 -39 6c4 22 28 62 76 60c78 -3 77 -55 77 -72c0 -25 -12 -45 -36 -60z" />
    <glyph glyph-name="uni1EF7" unicode="&#x1ef7;" horiz-adv-x="584" 
d="M187 -131l72 155l-240 515c-22 39 45 70 62 29l215 -468l215 468c17 41 84 10 62 -29l-324 -699c-17 -41 -84 -10 -62 29zM340 695c-9 -8 -26 -16 -25 -26c1 -16 -44 -22 -39 6c2 22 21 40 43 54c11 10 17 19 17 26c0 11 -1 27 -30 34c-31 7 -42 -18 -44 -28
c-4 -25 -43 -19 -39 6c4 22 28 62 76 60c78 -3 77 -55 77 -72c0 -25 -12 -45 -36 -60z" />
    <glyph glyph-name="Ytilde" unicode="&#x1ef8;" horiz-adv-x="626" 
d="M614 704l-258 -361v-317c2 -44 -70 -44 -68 0v317l-258 361c-16 21 0 54 28 54c11 0 21 -5 28 -14l236 -332l236 332c7 9 17 14 28 14c28 0 44 -33 28 -54zM209 811c1 40 31 71 70 71c25 0 46 -12 61 -36c10 -11 19 -17 26 -17c16 0 29 14 29 31c0 26 40 26 40 0
c-1 -40 -32 -71 -69 -71c-25 0 -45 12 -60 36c-11 12 -20 18 -27 18c-17 0 -30 -15 -30 -32c0 -26 -40 -26 -40 0z" />
    <glyph glyph-name="ytilde" unicode="&#x1ef9;" horiz-adv-x="584" 
d="M187 -131l72 155l-240 515c-22 39 45 70 62 29l215 -468l215 468c17 41 84 10 62 -29l-324 -699c-17 -41 -84 -10 -62 29zM196 679c1 40 31 71 70 71c25 0 46 -12 61 -36c10 -11 19 -17 26 -17c16 0 29 14 29 31c0 26 40 26 40 0c-1 -40 -32 -71 -69 -71
c-25 0 -45 12 -60 36c-11 12 -20 18 -27 18c-17 0 -30 -15 -30 -32c0 -26 -40 -26 -40 0z" />
    </font>
</defs>
</svg>
